<?xml version="1.0" standalone="no"?>
<!DOCTYPE svg PUBLIC "-//W3C//DTD SVG 20010904//EN"
 "http://www.w3.org/TR/2001/REC-SVG-20010904/DTD/svg10.dtd">
<svg version="1.0" xmlns="http://www.w3.org/2000/svg"
 width="260.000000pt" height="260.000000pt" viewBox="0 0 260.000000 260.000000"
 preserveAspectRatio="xMidYMid meet">
<metadata>
Created by potrace 1.11, written by Peter Selinger 2001-2013
</metadata>
<g transform="translate(0.000000,260.000000) scale(0.100000,-0.100000)"
fill="#000000" stroke="none">
<path d="M2080 2480 c-77 -10 -119 -34 -127 -71 -5 -25 -10 -30 -27 -25 -155
37 -203 41 -526 41 -339 -1 -444 -10 -672 -55 -118 -24 -115 -24 -121 -1 -20
76 -304 80 -353 5 -14 -21 -16 -41 -11 -122 6 -92 5 -100 -17 -133 -36 -53
-49 -108 -45 -192 4 -70 8 -81 46 -136 l42 -60 27 -403 c20 -297 31 -407 41
-419 26 -31 97 -42 211 -36 162 10 222 32 222 83 0 14 -10 30 -23 38 -25 16
-113 36 -159 36 l-31 0 6 88 c4 48 9 167 13 265 6 157 9 177 23 173 94 -27
319 -61 477 -71 l101 -7 6 -164 c8 -236 68 -1126 76 -1144 17 -35 72 -50 186
-50 127 0 179 12 200 44 29 44 -11 80 -100 93 -25 3 -47 9 -49 12 -2 3 7 256
20 561 13 305 24 579 24 608 0 33 5 54 13 56 6 2 59 11 117 20 59 9 153 28
209 41 57 14 106 24 107 22 6 -6 34 -407 34 -489 0 -146 22 -162 226 -156 124
3 134 5 158 27 50 47 23 86 -73 104 -55 11 -61 14 -61 37 0 14 5 157 12 319
l12 294 47 55 c54 60 75 115 85 213 8 85 -5 126 -62 184 l-44 46 0 109 c0 105
-1 109 -26 129 -37 29 -127 42 -214 31z m165 -71 c15 -14 15 -17 0 -29 -34
-28 -236 -21 -235 8 1 32 33 41 137 39 60 -2 87 -6 98 -18z m-1713 -50 c30
-16 16 -33 -40 -48 -86 -23 -206 2 -183 38 19 29 174 36 223 10z m1275 -13
c214 -41 396 -120 491 -211 57 -56 62 -64 62 -103 0 -60 -49 -112 -154 -162
-288 -138 -719 -208 -1124 -182 -321 21 -564 60 -671 107 -71 32 -142 103
-161 159 -36 110 111 246 348 320 102 32 260 61 412 75 63 6 131 13 150 15 92
10 569 -3 647 -18z m453 -56 c0 -35 -6 -36 -55 -13 -42 20 -44 30 -7 36 60 9
62 8 62 -23z m-1905 -39 c18 -7 17 -9 -13 -25 l-32 -17 0 26 c0 26 10 29 45
16z m1975 -401 c-50 -93 -199 -169 -455 -231 -114 -27 -316 -63 -319 -57 -1 2
-7 18 -13 36 -13 37 -21 34 127 52 189 24 497 119 620 193 54 32 53 32 40 7z
m-1820 -153 c100 -29 269 -52 500 -67 90 -6 165 -12 166 -13 0 -1 -1 -19 -4
-40 l-4 -38 -77 6 c-378 30 -627 98 -751 205 l-35 30 60 -29 c33 -17 98 -41
145 -54z m9 -177 c0 -30 -6 -172 -12 -315 l-12 -260 -46 -3 c-29 -2 -50 2 -56
10 -8 11 -54 600 -53 690 l0 26 90 -46 90 -47 -1 -55z m1711 123 c-2 -131 -29
-636 -35 -641 -9 -10 -85 -6 -95 4 -9 9 -52 585 -45 592 5 5 156 69 168 71 4
0 7 -11 7 -26z m-776 -33 c38 -14 32 -37 -11 -49 -42 -12 -134 -13 -173 -2
-33 9 -38 38 -8 50 31 13 160 13 192 1z m-42 -111 c34 6 63 9 66 7 7 -8 -50
-1301 -59 -1310 -13 -14 -79 -10 -94 6 -14 16 -84 1021 -85 1224 l0 81 55 -10
c37 -6 76 -5 117 2z"/>
</g>
</svg>
