<?xml version="1.0" standalone="no"?>
<!DOCTYPE svg PUBLIC "-//W3C//DTD SVG 20010904//EN"
 "http://www.w3.org/TR/2001/REC-SVG-20010904/DTD/svg10.dtd">
<svg version="1.0" xmlns="http://www.w3.org/2000/svg"
 width="260.000000pt" height="260.000000pt" viewBox="0 0 260.000000 260.000000"
 preserveAspectRatio="xMidYMid meet">
<metadata>
Created by potrace 1.11, written by Peter Selinger 2001-2013
</metadata>
<g transform="translate(0.000000,260.000000) scale(0.100000,-0.100000)"
fill="#000000" stroke="none">
<path d="M1985 2348 c-40 -14 -75 -47 -75 -71 0 -13 -5 -17 -15 -13 -8 3 -54
13 -102 23 -74 15 -139 18 -398 18 -324 -1 -446 -11 -649 -56 -89 -19 -105
-17 -106 14 0 4 -19 17 -42 27 -75 34 -231 22 -277 -21 -19 -18 -21 -31 -21
-124 0 -94 -2 -108 -25 -141 -31 -45 -38 -85 -33 -173 3 -61 8 -76 43 -126
l39 -57 24 -367 c13 -201 26 -376 28 -389 8 -42 61 -55 209 -50 150 5 200 20
211 64 11 42 -27 62 -150 79 l-48 7 6 116 c3 64 9 175 12 245 l7 129 31 -6
c111 -23 270 -46 386 -56 74 -6 136 -12 137 -14 1 -1 7 -90 12 -197 13 -254
62 -998 67 -1026 8 -43 57 -58 184 -57 74 0 128 5 149 14 33 13 53 44 43 68
-7 19 -51 39 -105 47 -26 4 -47 10 -47 14 1 56 50 1154 52 1156 2 1 44 8 94
14 50 7 143 25 207 40 64 15 117 25 117 22 0 -3 7 -89 15 -191 8 -102 15 -220
15 -262 0 -144 24 -162 211 -156 101 3 122 6 146 24 58 43 32 88 -59 100 -26
4 -51 12 -56 18 -5 6 -3 143 4 304 l13 294 35 38 c50 56 74 108 87 191 14 94
2 136 -58 200 l-46 49 5 90 c6 101 -2 123 -58 146 -39 16 -174 17 -219 2z
m189 -48 c34 -13 33 -38 -1 -47 -101 -28 -263 14 -180 47 30 12 150 12 181 0z
m-1621 -51 c20 -5 37 -16 37 -24 0 -28 -132 -45 -200 -26 -37 10 -33 44 5 52
48 10 117 10 158 -2z m1082 -4 c163 -9 399 -74 512 -141 65 -38 133 -103 150
-142 39 -92 -92 -185 -374 -267 -317 -92 -635 -113 -1043 -69 -340 36 -462 76
-542 175 -62 77 -42 163 55 240 150 120 437 190 852 208 156 7 207 7 390 -4z
m565 -69 l0 -34 -40 21 -40 22 38 12 c20 6 38 12 40 12 1 1 2 -14 2 -33z
m-1782 -42 c2 -1 -10 -10 -27 -19 -31 -15 -31 -15 -31 10 0 23 3 25 28 19 15
-4 29 -8 30 -10z m1845 -385 c-52 -90 -225 -166 -513 -228 -52 -11 -123 -23
-157 -27 -59 -6 -63 -5 -63 14 0 11 -2 27 -6 35 -4 11 10 16 62 21 198 20 455
93 607 171 45 23 83 43 85 44 2 0 -5 -13 -15 -30z m-1688 -139 c98 -25 284
-48 467 -56 l138 -7 0 -40 0 -39 -92 7 c-327 24 -578 91 -688 185 l-35 30 65
-30 c36 -16 101 -39 145 -50z m-119 -55 c33 -20 70 -38 83 -42 l23 -6 -7 -191
c-4 -105 -10 -240 -14 -301 l-6 -110 -41 -3 c-25 -2 -45 2 -51 10 -6 7 -20
153 -32 323 -22 321 -24 355 -17 355 2 0 30 -16 62 -35z m1719 -77 c-3 -62
-10 -202 -15 -310 -5 -109 -11 -202 -15 -208 -8 -12 -65 -13 -85 0 -11 7 -17
53 -26 202 -7 106 -15 232 -19 279 l-7 87 64 21 c34 12 70 26 78 31 8 5 18 10
23 10 4 0 5 -51 2 -112z m-742 57 c44 -7 50 -31 10 -46 -36 -14 -178 -8 -194
8 -20 20 8 42 59 45 49 4 62 3 125 -7z m-25 -105 c30 5 57 8 59 6 5 -5 -46
-1217 -52 -1233 -6 -17 -94 -17 -100 -1 -7 26 -75 1080 -75 1184 l0 51 56 -9
c35 -5 77 -5 112 2z"/>
</g>
</svg>
