<?xml version="1.0" encoding="utf-8"?>
<!-- Generator: Adobe Illustrator 19.0.0, SVG Export Plug-In . SVG Version: 6.00 Build 0)  -->
<svg version="1.1" id="Livello_1" xmlns="http://www.w3.org/2000/svg" xmlns:xlink="http://www.w3.org/1999/xlink" x="0px" y="0px"
	 viewBox="179.9 234 481.9 127.6" style="enable-background:new 179.9 234 481.9 127.6;" xml:space="preserve">
<metadata><?xpacket begin="﻿" id="W5M0MpCehiHzreSzNTczkc9d"?>
<x:xmpmeta xmlns:x="adobe:ns:meta/" x:xmptk="Adobe XMP Core 5.6-c067 79.157747, 2015/03/30-23:40:42        ">
   <rdf:RDF xmlns:rdf="http://www.w3.org/1999/02/22-rdf-syntax-ns#">
      <rdf:Description rdf:about=""/>
   </rdf:RDF>
</x:xmpmeta>
                                                                                                    
                                                                                                    
                                                                                                    
                                                                                                    
                                                                                                    
                                                                                                    
                                                                                                    
                                                                                                    
                                                                                                    
                                                                                                    
                                                                                                    
                                                                                                    
                                                                                                    
                                                                                                    
                                                                                                    
                                                                                                    
                                                                                                    
                                                                                                    
                                                                                                    
                                                                                                    
                           
<?xpacket end="w"?></metadata>
<style type="text/css">
	.st0{fill:#008D36;}
	.st1{fill:url(#XMLID_5_);}
	.st2{fill:#FFFFFF;}
	.st3{fill:url(#XMLID_6_);}
	.st4{fill:url(#XMLID_8_);}
	.st5{fill:url(#XMLID_9_);}
	.st6{fill:url(#XMLID_11_);}
	.st7{fill:url(#XMLID_13_);}
	.st8{fill:url(#XMLID_15_);}
</style>
<g id="XMLID_2_">
	<g id="XMLID_3_">
		<path id="XMLID_184_" class="st0" d="M199.5,354c-3.7,0-7.2-0.3-10.4-0.9c-1.1-0.2-2.1-0.9-2.7-1.8c-0.6-0.9-0.8-2.1-0.5-3.2
			c4.4-16.1,8-32.6,10.6-48.9c2.6-16.5,5.2-33.4,7.6-50c0.2-1.7,1.5-3,3.1-3.3c13-2.7,23.8-4,32.1-4c11.1,0,19,4,23.4,11.9
			c1.8,3,2.7,6.8,2.7,11.1c0,4.1-0.7,7.9-2,11.4c-1.3,3.4-2.9,6.6-4.9,9.4c-2.7,3.7-5.8,6.7-9.2,8.9c5.2,5.1,7.8,12,7.8,20.5
			c0,4-0.9,7.9-2.8,11.7c-1.8,3.7-4.2,7-7.2,10c-2.9,2.9-6.4,5.4-10.3,7.6c-3.8,2.1-7.9,3.9-12.1,5.3
			C216.6,352.5,208.1,354,199.5,354z M224.5,303.6c-0.2,1-0.3,2-0.5,2.8c-0.3,1.7-0.6,3.4-0.9,4.9c-0.3,1.6-0.6,3.3-0.9,5
			c0,0.1-0.1,0.3-0.1,0.4c4.4-1,7.7-2.6,9.7-4.8c0.8-0.9,1.2-1.8,1.2-2.8c0-1.1-0.2-1.9-0.5-2.3c-0.5-0.7-1.2-1.2-2-1.7
			C228.6,304.3,226.6,303.7,224.5,303.6z M230.7,270.2c-0.2,1.4-0.5,2.9-0.8,4.5c-0.1,0.8-0.3,1.6-0.4,2.4c6.7-2.1,7.8-3.8,8-4
			c-0.1-1.6-3.4-2.4-5.4-2.7H232c-0.4-0.1-0.9-0.1-1.2-0.2C230.7,270.1,230.7,270.1,230.7,270.2z"/>
		<path id="XMLID_160_" class="st0" d="M239.4,245.8c9.6,0,16.2,3.3,20,9.8c1.5,2.5,2.2,5.5,2.2,9.1s-0.6,7-1.7,10
			c-1.1,3.1-2.6,5.9-4.4,8.5c-3.7,5.1-8.2,8.6-13.4,10.5c7.5,4.6,11.2,11.6,11.2,21.2c0,3.4-0.8,6.7-2.4,10
			c-1.6,3.3-3.7,6.2-6.4,8.9c-2.7,2.6-5.8,5-9.4,7c-3.6,2-7.4,3.7-11.4,5.1c-7.8,2.7-15.9,4.1-24.1,4.1c-3.5,0-6.7-0.3-9.7-0.8
			c4.5-16.3,8-32.8,10.7-49.4c2.6-16.6,5.2-33.3,7.7-50C220.9,247.1,231.3,245.8,239.4,245.8 M224.4,282.5
			c11.4-2.6,17.1-5.7,17.1-9.4c0-3.6-2.9-5.8-8.8-6.7c-1.5-0.3-2.7-0.4-3.8-0.4h-1.5c-0.2,1-0.4,2.2-0.6,3.6
			c-0.2,1.4-0.5,2.9-0.8,4.4s-0.6,3-0.9,4.5C224.8,279.9,224.5,281.3,224.4,282.5 M217.3,321.7c8.3-0.9,14.1-3.2,17.5-7
			c1.5-1.6,2.2-3.5,2.2-5.5s-0.4-3.6-1.3-4.7c-0.9-1.1-2-2.1-3.3-2.8c-2.7-1.5-5.7-2.2-8.9-2.2h-1.2c-0.4,0-0.7,0-1.1,0.1
			c-0.4,2.3-0.7,4.3-1,6s-0.6,3.4-0.9,5c-0.3,1.6-0.6,3.3-0.9,5C218,317.4,217.6,319.4,217.3,321.7 M239.4,237.8
			c-8.7,0-19.5,1.4-32.9,4.1c-3.3,0.7-5.8,3.3-6.3,6.7c-2.4,16.6-5,33.4-7.6,49.9c-2.6,16.2-6.1,32.5-10.5,48.5
			c-0.6,2.2-0.2,4.5,0.9,6.4s3.1,3.2,5.3,3.6c3.5,0.6,7.2,0.9,11.1,0.9c9.1,0,18-1.5,26.7-4.5c4.4-1.5,8.7-3.4,12.7-5.6
			c4.2-2.3,8-5.1,11.2-8.3c3.3-3.3,6-7,8-11.1c2.1-4.4,3.2-8.9,3.2-13.5c0-7.7-2-14.4-6-19.8c2.4-2,4.6-4.4,6.6-7.2
			c0,0,0-0.1,0.1-0.1c2.2-3.1,4.1-6.6,5.4-10.4c1.5-4,2.2-8.3,2.2-12.8c0-5-1.1-9.4-3.3-13.1C262.7,245.3,255.1,237.8,239.4,237.8
			L239.4,237.8z M227.3,310.6c0.1-0.7,0.3-1.5,0.4-2.2c0.3,0.1,0.6,0.3,0.8,0.4s0.3,0.2,0.4,0.3v0.1c0,0-0.1,0.1-0.2,0.2
			C228.4,309.8,227.9,310.2,227.3,310.6L227.3,310.6z"/>
	</g>
	<g id="XMLID_7_">
		<path id="XMLID_151_" class="st0" d="M283.5,354c-7.5,0-13.6-2.8-18-8.3c-4.6-5.7-6.9-13.9-6.9-24.4c0-10.9,2.5-22.7,7.5-35.1
			c5-12.5,11.7-23,19.9-31.4c9.2-9.3,19.2-14.1,29.5-14.1c9,0,16,3.9,20.3,11.3c3.2,5.7,4.8,13.8,4.8,24.8c0,5.8-0.8,12.4-2.5,19.4
			s-3.9,13.5-6.8,19.4s-6.2,11.3-10,15.9c-3.8,4.7-7.8,8.7-11.9,12C300.5,350.5,291.8,354,283.5,354z M310.6,278.1
			c-4.3,0-8.2,2.2-11.9,6.7c-3.2,4-6.1,9.6-8.5,16.7c-1.9,5.7-2.8,11.2-2.8,16.2c0,2.2,0.8,3.7,2.7,4.8c0.1,0.1,0.2,0.1,0.3,0.2
			c0.2,0.1,0.4,0.2,0.8,0.2c3.2,0,6-1.1,8.5-3.3c2.9-2.5,5.3-5.7,7.2-9.5c2-3.9,3.6-8.1,4.6-12.5c1.1-4.5,1.6-8.5,1.6-12.1
			C313.1,282.1,312.7,278.1,310.6,278.1z"/>
		<path id="XMLID_139_" class="st0" d="M315.5,244.7c7.7,0,13.3,3.1,16.8,9.3c2.8,5,4.2,12.6,4.2,22.8c0,5.6-0.8,11.7-2.4,18.5
			c-1.6,6.7-3.8,12.9-6.5,18.6s-5.9,10.7-9.5,15.2s-7.4,8.2-11.3,11.3c-8.1,6.4-15.9,9.6-23.4,9.6c-6.3,0-11.3-2.3-14.9-6.8
			c-4-5-6-12.3-6-21.9c0-10.4,2.4-21.6,7.2-33.6c4.8-12,11.2-22.1,19-30.1C297.3,249,306.2,244.7,315.5,244.7 M291.1,326.9
			c4.2,0,7.9-1.4,11.1-4.3s5.9-6.4,8.1-10.6s3.8-8.7,5-13.5c1.1-4.8,1.7-9.1,1.7-13.1c0-7.6-2.2-11.3-6.6-11.3
			c-5.6,0-10.6,2.7-15,8.2c-3.6,4.4-6.6,10.3-9.2,17.9c-2,6.2-3,12-3,17.5c0,3.6,1.5,6.4,4.6,8.2C288.9,326.6,290,326.9,291.1,326.9
			 M315.5,236.7c-11.5,0-22.4,5.1-32.3,15.2c-8.6,8.8-15.5,19.8-20.7,32.7c-5.2,12.9-7.8,25.2-7.8,36.6s2.6,20.4,7.8,26.9
			c5.1,6.4,12.5,9.8,21.1,9.8c9.3,0,18.8-3.8,28.3-11.3c4.4-3.5,8.6-7.7,12.6-12.6s7.5-10.5,10.5-16.7c3-6.1,5.4-13,7.1-20.2
			c1.7-7.3,2.6-14.2,2.6-20.3c0-11.7-1.7-20.5-5.3-26.8c0,0,0,0,0-0.1C334.2,241.3,326,236.7,315.5,236.7L315.5,236.7z M294,302.7
			c2.2-6.6,4.8-11.8,7.8-15.4s5.5-4.7,7.2-5.1c0.1,0.7,0.2,1.7,0.2,3.2c0,3.3-0.5,7-1.5,11.2c-1,4.1-2.4,8-4.3,11.6
			c-1.7,3.3-3.9,6.1-6.4,8.3c-1.6,1.4-3.3,2.1-5.2,2.3c-0.3-0.2-0.4-0.4-0.4-1.1C291.4,313.1,292.2,308.1,294,302.7L294,302.7z"/>
	</g>
	<g id="XMLID_10_">
		<path id="XMLID_89_" class="st0" d="M365.3,354.8c-0.8,0-1.5-0.2-2.2-0.6c-1-0.7-1.7-1.8-1.8-3.1c-0.3-3.7-0.5-7.3-0.8-10.5
			c0-0.2,0-0.4,0-0.6c-1.7,3.8-3.7,7.9-5.7,12.1c-0.7,1.4-2.1,2.2-3.6,2.2c-0.1,0-0.2,0-0.3,0l-23.8-2.1c-1.4-0.1-2.6-0.9-3.2-2.1
			s-0.6-2.6,0-3.8c4.7-8.4,9.4-16.7,14-24.7c4.4-7.7,8.5-15.8,12.3-24.1c-1.2-9.1-2.6-17-4-23.5c-1.5-6.8-2.7-12.4-3.6-16.6
			c-0.4-1.9,0.6-3.7,2.4-4.5l22.4-9.3c0.5-0.2,1-0.3,1.5-0.3c0.7,0,1.4,0.2,2,0.6c1.1,0.6,1.8,1.8,1.9,3c0.5,4.4,1,9.3,1.6,14.6
			c0,0.1,0,0.1,0,0.2c2.8-6.1,5.1-11,6.9-14.6c0.7-1.4,2.1-2.2,3.6-2.2c0.3,0,0.7,0,1,0.1l20.4,5.5c1.2,0.3,2.2,1.2,2.7,2.4
			s0.4,2.5-0.3,3.6c-8.2,13.6-15.8,28-22.5,42.7c1.1,7.4,2.7,15.4,4.7,23.6c2.2,8.9,3.9,15.3,4.9,19.3c0.5,1.8-0.4,3.7-2.1,4.5
			c-0.5,0.2-1,0.4-2.7,0.9c-1.1,0.3-2.4,0.6-4.1,1.1c-1.7,0.4-3.5,1-5.4,1.5c-2,0.6-4,1.2-5.9,1.7c-4.8,1.4-7.9,2.4-9,2.8
			C366.2,354.7,365.8,354.8,365.3,354.8z"/>
		<path id="XMLID_77_" class="st0" d="M369,247.3c0.5,4.5,1,9.3,1.6,14.6s1.2,10.2,1.6,14.8c5.6-12.7,9.8-22,12.9-27.9l20.4,5.5
			c-8.5,14.1-16.2,28.8-23.2,44.2c1.1,7.9,2.8,16.3,5,25.2c2.2,8.9,3.8,15.3,4.9,19.3c-0.2,0.1-0.8,0.3-1.9,0.5
			c-1.1,0.3-2.5,0.6-4.2,1.1s-3.5,1-5.5,1.6s-4,1.2-5.9,1.7c-4.9,1.5-8,2.4-9.3,2.9c-0.3-3.7-0.5-7.2-0.8-10.5
			c-0.2-3.3-0.5-6.5-0.7-9.6s-0.4-5.7-0.5-7.8c-3.1,8-7.2,17.1-12.2,27.3l-23.8-2.1c4.6-8.3,9.3-16.5,14-24.7s9-16.7,12.9-25.5
			c-1.3-9.8-2.7-18.1-4.2-25c-1.6-6.9-2.7-12.4-3.6-16.5L369,247.3 M369,239.3c-1,0-2.1,0.2-3.1,0.6l-22.4,9.3
			c-3.5,1.5-5.5,5.2-4.8,9c0.8,4.2,2,9.8,3.6,16.7c1.4,6.1,2.6,13.5,3.8,22c-3.5,7.8-7.5,15.5-11.6,22.7c-4.6,8-9.4,16.4-14.1,24.8
			c-1.3,2.4-1.4,5.3-0.1,7.7c1.3,2.4,3.7,4,6.4,4.2l23.8,2.1c0.2,0,0.5,0,0.7,0c2.8,0,5.5-1.5,6.9-3.9c0.6,1.3,1.6,2.4,2.8,3.2
			c1.3,0.9,2.8,1.3,4.4,1.3c0.9,0,1.8-0.2,2.7-0.5c0.8-0.3,2.9-1,8.8-2.7c1.9-0.6,3.9-1.1,5.9-1.7c1.9-0.6,3.7-1.1,5.4-1.5
			c1.6-0.4,3-0.8,4-1.1c1.7-0.4,2.6-0.7,3.6-1.2c3.4-1.7,5.1-5.5,4.2-9.1c-1-4-2.6-10.5-4.9-19.4c-1.9-7.7-3.4-15.1-4.5-22.1
			c6.6-14.2,13.9-28.1,21.8-41.2c1.3-2.2,1.5-4.8,0.6-7.1s-2.9-4.1-5.3-4.7l-20.4-5.5c-0.7-0.2-1.4-0.3-2.1-0.3
			c-3,0-5.7,1.6-7.1,4.4c-0.3,0.6-0.6,1.3-1,1.9c0-0.2,0-0.4-0.1-0.6c-0.3-2.5-1.7-4.8-3.9-6.1C371.8,239.7,370.4,239.3,369,239.3
			L369,239.3z"/>
	</g>
	<g id="XMLID_12_">
		<path id="XMLID_80_" class="st0" d="M411,353.6c-1.1,0-2.1-0.4-2.9-1.2c-0.9-1-1.3-2.3-1-3.6c6.8-31.9,11.6-57.7,14.3-76.8
			c-0.1,0-0.3,0-0.4,0c-0.5,0-1,0-1.5,0c-0.3,0-0.7,0-1,0c-2.3,0-4.6-0.3-6.9-1c-1.8-0.5-2.9-2.2-2.9-4l0.7-17.9
			c0-1.1,0.5-2.1,1.3-2.8c0.7-0.7,1.7-1,2.7-1c0.1,0,0.2,0,0.3,0c4.6,0.4,9.3,0.5,14,0.5c12.5,0,24.9-0.8,36.8-2.3
			c0.2,0,0.3,0,0.5,0c1.1,0,2.2,0.5,2.9,1.3c0.9,0.9,1.2,2.2,1,3.5l-1.5,7.5c-0.5,2.1-0.9,4.2-1.3,6.4s-0.8,4.2-1.2,6
			c-0.3,1.5-1.4,2.6-2.9,3c-2.3,0.6-4.6,1-6.9,1.3c-1.1,0.1-2.2,0.3-3.3,0.4c-1.4,6.4-2.9,14.2-4.3,23.2
			c-3.6,22.9-6.2,39.7-7.6,50.1c-0.2,1.7-1.6,3.1-3.3,3.4l-25.2,4C411.4,353.6,411.2,353.6,411,353.6z"/>
		<path id="XMLID_74_" class="st0" d="M465.2,247.5l-1.5,7.5c-0.5,2.1-0.9,4.3-1.3,6.5s-0.8,4.2-1.2,5.8c-2.1,0.5-4.2,0.9-6.3,1.2
			c-2.1,0.2-4.1,0.5-6.2,0.9c-1.6,7-3.3,15.7-4.9,26.1c-3.6,23-6.2,39.7-7.7,50.2l-25.2,4c7.4-34.6,12.3-61.8,14.9-81.3
			c-1.6-0.2-3.3-0.3-4.9-0.3c-0.5,0-1.1,0-1.6,0c-0.3,0-0.5,0-0.8,0c-1.9,0-3.8-0.3-5.7-0.8l0.7-17.9c4.7,0.4,9.5,0.5,14.4,0.5
			C440.6,249.8,453.1,249,465.2,247.5 M465.2,239.5c-0.3,0-0.7,0-1,0.1c-11.7,1.5-23.9,2.3-36.3,2.3c-4.6,0-9.2-0.2-13.7-0.5
			c-0.2,0-0.4,0-0.6,0c-2,0-3.9,0.7-5.3,2c-1.6,1.4-2.6,3.5-2.7,5.7l-0.7,17.9c-0.1,3.7,2.2,7,5.8,8c2.1,0.6,4.1,1,6.2,1.1
			c-2.8,18.5-7.3,42.6-13.6,72c-0.5,2.6,0.2,5.3,2,7.2c1.5,1.6,3.6,2.5,5.8,2.5c0.4,0,0.8,0,1.2-0.1l25.2-4c3.5-0.5,6.2-3.3,6.7-6.8
			c1.4-10.4,4-27.2,7.6-50c1.2-7.7,2.4-14.5,3.6-20.3c0.1,0,0.3,0,0.4,0c2.5-0.3,5-0.7,7.4-1.4c2.9-0.8,5.1-3.1,5.8-6
			c0.4-1.8,0.8-3.8,1.2-6.1c0.4-2.2,0.8-4.3,1.2-6.2v-0.1l1.5-7.5c0.5-2.5-0.2-5.1-2-7C469.5,240.4,467.4,239.5,465.2,239.5
			L465.2,239.5z"/>
	</g>
	<g id="XMLID_14_">
		<path id="XMLID_86_" class="st0" d="M458.7,353.6c-1.1,0-2.1-0.4-2.9-1.2c-0.9-0.9-1.3-2.2-1.1-3.5l18.3-99.5
			c0.3-1.8,1.8-3.1,3.6-3.3l44.3-3.8c0.1,0,0.2,0,0.3,0c1.2,0,2.3,0.5,3.1,1.5s1.1,2.4,0.7,3.7c-0.6,2-1.1,4-1.6,5.8
			c-0.5,2-0.9,3.9-1.4,5.8c-0.4,1.8-0.8,3.5-1.1,4.9c-0.3,1.7-1.8,3.1-3.5,3.2c-2.9,0.3-6.7,0.4-11.6,0.4h-6.1l-3.3,16.9
			c2.8-0.1,5.4-0.2,7.6-0.3c4.1-0.1,5.7-0.2,6.3-0.3c0.1,0,0.2,0,0.4,0c1.1,0,2.1,0.4,2.9,1.2c0.8,0.9,1.2,2.1,1.1,3.3
			c-0.4,2.6-0.7,5.2-1,7.7c-0.3,2.6-0.7,5.2-1.2,7.9c-0.3,1.8-1.8,3.1-3.6,3.3c-1.1,0.1-2.7,0.2-4.9,0.2c-2.1,0-4.2,0.1-6.5,0.2
			c-1.4,0.1-2.9,0.1-4.5,0.2l-3.2,17.1l14.8-2.4c0.2,0,0.4-0.1,0.6-0.1c1,0,2,0.4,2.7,1.1c0.9,0.8,1.4,2,1.3,3.3l-1.4,16
			c-0.2,1.8-1.6,3.3-3.4,3.6l-45.3,7C459.1,353.6,458.9,353.6,458.7,353.6z"/>
		<path id="XMLID_81_" class="st0" d="M521.3,246.2c-0.6,2.1-1.2,4.1-1.6,6.1c-0.5,2-0.9,3.9-1.4,5.8s-0.8,3.6-1.1,5.1
			c-2.7,0.3-6.5,0.4-11.2,0.4h-9.4l-4.9,25.2c5-0.3,9.2-0.5,12.6-0.5c3.4-0.1,5.6-0.2,6.6-0.3c-0.4,2.6-0.7,5.2-1,7.7
			s-0.7,5.1-1.2,7.7c-1,0.1-2.6,0.2-4.6,0.2c-2.1,0-4.3,0.1-6.6,0.2c-2.3,0.1-4.8,0.2-7.7,0.3l-4.8,25.8l20.4-3.3l-1.4,16l-45.3,7
			l18.3-99.5L521.3,246.2 M521.3,238.2c-0.2,0-0.5,0-0.7,0l-44.3,3.8c-3.6,0.3-6.5,3-7.2,6.5L450.8,348c-0.5,2.5,0.3,5.2,2.1,7
			c1.5,1.6,3.6,2.4,5.7,2.4c0.4,0,0.8,0,1.2-0.1l45.3-7c3.6-0.6,6.4-3.5,6.8-7.2l1.4-16c0.2-2.5-0.7-4.9-2.5-6.5
			c-1.5-1.4-3.4-2.1-5.4-2.1c-0.4,0-0.8,0-1.3,0.1l-9.2,1.5l1.5-8.4c0.4,0,0.9,0,1.3-0.1c2.2-0.1,4.4-0.2,6.4-0.2
			c2.3,0,4-0.1,5.2-0.2c3.6-0.3,6.5-3,7.2-6.6c0.5-2.7,0.9-5.4,1.2-8.1c0.3-2.5,0.7-5,1-7.6c0.3-2.4-0.5-4.9-2.1-6.6
			c-1.5-1.6-3.6-2.5-5.8-2.5c-0.2,0-0.5,0-0.7,0c-0.4,0-1.7,0.1-6,0.2c-0.8,0-1.7,0-2.6,0.1l1.7-8.7h2.8c5.1,0,9-0.1,12-0.4
			c3.5-0.4,6.4-3,7.1-6.5c0.3-1.4,0.6-2.9,1-4.7c0.5-1.9,0.9-3.9,1.4-5.9c0.4-1.8,0.9-3.7,1.5-5.6c0.8-2.5,0.2-5.3-1.4-7.4
			C526,239.3,523.7,238.2,521.3,238.2L521.3,238.2z"/>
	</g>
	<g id="XMLID_16_">
		<path id="XMLID_100_" class="st0" d="M514.4,354.1c-1,0-2-0.4-2.8-1.1c-1-1-1.4-2.3-1.1-3.7c10.3-49.1,16.4-83.7,18.1-102.9
			c0.2-2.1,1.9-3.6,4-3.6c0.1,0,0.2,0,0.3,0c1.2,0.1,2.1,0.1,2.9,0.1h4c1.8,0,6.9-0.2,15.1-0.5c0.1,0,0.1,0,0.2,0
			c1.9,0,3.6,1.4,3.9,3.2c1.3,6.6,2.5,12.7,3.6,18.3c0.7,4.1,1.4,7.9,2,11.3c0.2-0.8,0.3-1.7,0.5-2.5c0.9-4.5,2.7-13.3,5.6-27
			c0.4-1.7,1.7-2.9,3.4-3.2l17.1-2.1c0.2,0,0.3,0,0.5,0c1.1,0,2.2,0.5,3,1.3c0.9,1,1.2,2.3,1,3.5c-9.9,45.7-16.1,78.9-18.5,98.8
			c-0.2,2-1.9,3.5-4,3.5c-0.3,0-2.1,0.2-10.3,2.2s-10.5,2.7-11.1,2.9c-0.4,0.2-0.9,0.2-1.3,0.2c-0.8,0-1.5-0.2-2.2-0.6
			c-1-0.7-1.7-1.8-1.8-3.1c-0.8-10.8-1.6-20.3-2.5-28.4c-1.4,7.5-3,16-4.9,25.3c-0.3,1.5-1.5,2.8-3,3.1l-20.5,4.8
			C515,354.1,514.7,354.1,514.4,354.1z"/>
		<path id="XMLID_87_" class="st0" d="M591.6,244.5c-9.9,46-16.1,79.1-18.6,99.1c-1.1,0-4.9,0.8-11.3,2.3c-6.4,1.6-10.3,2.6-11.6,3
			c-1.8-25-3.8-42.7-6-53c-0.3,1.7-0.6,3.8-1.1,6.1c-0.5,2.3-0.9,4.8-1.4,7.5c-1.7,9.9-4,21.9-6.8,36l-20.5,4.8
			c10.4-49.5,16.5-83.9,18.2-103.4c1.3,0.1,2.3,0.1,3.1,0.1h4c1.8,0,6.9-0.2,15.3-0.5c1.3,6.6,2.5,12.7,3.6,18.3
			c2.9,16.2,4.9,26.7,6,31.3c0.4-1.9,0.8-4.1,1.2-6.6c0.5-2.5,1-5,1.5-7.7s1.1-5.4,1.6-8.3c0.9-4.5,2.8-13.4,5.6-26.9L591.6,244.5
			 M591.6,236.5c-0.3,0-0.6,0-1,0.1l-17.1,2.1c-3.4,0.4-6.2,2.9-6.9,6.3c-0.7,3.5-1.4,6.7-2,9.6c-0.6-3.1-1.2-6.3-1.9-9.6
			c-0.7-3.8-4-6.5-7.8-6.5c-0.1,0-0.2,0-0.4,0c-10.2,0.4-13.8,0.5-15,0.5h-4c-0.4,0-1.2,0-2.6-0.1c-0.2,0-0.4,0-0.6,0
			c-4.1,0-7.6,3.1-8,7.3c-1.7,19-7.8,53.5-18,102.4c-0.6,2.7,0.3,5.5,2.2,7.4c1.5,1.5,3.5,2.3,5.6,2.3c0.6,0,1.2-0.1,1.8-0.2
			l20.5-4.8c2.4-0.6,4.4-2.2,5.5-4.5c0,0.3,0,0.5,0.1,0.8c0.2,2.5,1.5,4.8,3.6,6.1c1.3,0.9,2.8,1.3,4.4,1.3c0.9,0,1.8-0.2,2.7-0.5
			c0.4-0.1,2.2-0.7,10.7-2.8c7.2-1.7,9.2-2.1,9.7-2.1c3.9-0.1,7.2-3.1,7.7-7c2.4-19.7,8.6-52.8,18.5-98.4c0.5-2.5-0.2-5.2-1.9-7.1
			C596,237.4,593.9,236.5,591.6,236.5L591.6,236.5z"/>
	</g>
	<g id="XMLID_18_">
		<path id="XMLID_105_" class="st0" d="M598,353.6c-1.1,0-2.1-0.4-2.9-1.2c-0.9-1-1.3-2.3-1-3.6c6.8-31.9,11.6-57.8,14.3-76.8
			c-0.1,0-0.3,0-0.4,0c-0.5,0-1,0-1.5,0c-0.3,0-0.7,0-1,0c-2.3,0-4.6-0.3-6.9-1c-1.8-0.5-2.9-2.2-2.9-4l0.7-17.9
			c0-1.1,0.5-2.1,1.3-2.8c0.7-0.7,1.7-1,2.7-1c0.1,0,0.2,0,0.3,0c4.6,0.4,9.3,0.5,14,0.5c12.5,0,24.9-0.8,36.8-2.3
			c0.2,0,0.3,0,0.5,0c1.1,0,2.2,0.5,2.9,1.3c0.9,0.9,1.2,2.2,1,3.5l-1.5,7.5c-0.5,2.1-0.9,4.2-1.3,6.4c-0.4,2.2-0.8,4.2-1.2,6
			c-0.3,1.5-1.4,2.6-2.9,3c-2.3,0.6-4.6,1-6.9,1.3c-1.1,0.1-2.2,0.3-3.3,0.4c-1.4,6.4-2.9,14.2-4.3,23.2
			c-3.6,22.9-6.2,39.7-7.6,50.1c-0.2,1.7-1.6,3.1-3.3,3.4l-25.2,4C598.4,353.6,598.2,353.6,598,353.6z"/>
		<path id="XMLID_101_" class="st0" d="M652.1,247.5l-1.5,7.5c-0.5,2.1-0.9,4.3-1.3,6.5c-0.4,2.2-0.8,4.2-1.2,5.8
			c-2.1,0.5-4.2,0.9-6.3,1.2c-2.1,0.2-4.1,0.5-6.2,0.9c-1.6,7-3.3,15.7-4.9,26.1c-3.6,23-6.2,39.7-7.7,50.2l-25.2,4
			c7.4-34.6,12.3-61.8,14.9-81.3c-1.6-0.2-3.3-0.3-4.9-0.3c-0.5,0-1.1,0-1.6,0c-0.3,0-0.5,0-0.8,0c-1.9,0-3.8-0.3-5.7-0.8l0.7-17.9
			c4.7,0.4,9.5,0.5,14.4,0.5C627.5,249.8,640,249,652.1,247.5 M652.1,239.5c-0.3,0-0.7,0-1,0.1c-11.7,1.5-23.9,2.3-36.3,2.3
			c-4.6,0-9.2-0.2-13.7-0.5c-0.2,0-0.4,0-0.6,0c-2,0-3.9,0.7-5.3,2c-1.6,1.4-2.6,3.5-2.7,5.7l-0.7,17.9c-0.1,3.7,2.2,7,5.8,8
			c2.1,0.6,4.1,1,6.2,1.1c-2.8,18.5-7.3,42.6-13.6,72c-0.5,2.6,0.2,5.3,2,7.2c1.5,1.6,3.6,2.5,5.8,2.5c0.4,0,0.8,0,1.2-0.1l25.2-4
			c3.5-0.5,6.2-3.3,6.7-6.8c1.4-10.4,4-27.2,7.6-50c1.2-7.7,2.4-14.5,3.6-20.3c0.1,0,0.3,0,0.4,0c2.5-0.3,5-0.7,7.4-1.4
			c2.9-0.8,5.1-3.1,5.8-6c0.4-1.8,0.8-3.8,1.2-6.1c0.4-2.2,0.8-4.3,1.2-6.2v-0.1l1.5-7.5c0.5-2.5-0.2-5.1-2-7
			C656.4,240.4,654.3,239.5,652.1,239.5L652.1,239.5z"/>
	</g>
</g>
<g id="XMLID_1_">
	<g id="XMLID_33_">
		
			<linearGradient id="XMLID_5_" gradientUnits="userSpaceOnUse" x1="225.5" y1="244.26" x2="225.5" y2="350.3601" gradientTransform="matrix(1 0 0 -1 -1.915097e-06 595.2401)">
			<stop  offset="0" style="stop-color:#C73427"/>
			<stop  offset="1" style="stop-color:#DB5B38"/>
		</linearGradient>
		<path id="XMLID_196_" class="st1" d="M199.5,351c-3.5,0-6.8-0.3-9.9-0.8l-1.1-0.2l0.3-1.1c4.4-16.2,8-32.8,10.6-49.2
			c2.6-16.6,5.2-33.4,7.7-50l0.1-0.7l0.7-0.1c12.8-2.6,23.4-4,31.5-4c9.9,0,16.9,3.5,20.8,10.3c1.5,2.6,2.3,5.8,2.3,9.6
			c0,3.7-0.6,7.2-1.8,10.4c-1.2,3.2-2.7,6.1-4.6,8.7c-3.4,4.7-7.5,8.1-12.1,10.2c6.7,4.7,10.1,11.8,10.1,21c0,3.5-0.8,7-2.5,10.4
			c-1.6,3.4-3.9,6.5-6.6,9.2c-2.7,2.7-6,5.1-9.6,7.1s-7.5,3.8-11.6,5.1C216,349.6,207.8,351,199.5,351z M222,300.6
			c-0.3,2-0.6,3.8-0.9,5.3c-0.3,1.7-0.6,3.4-0.9,5c-0.3,1.6-0.6,3.3-0.9,5c-0.3,1.4-0.5,2.9-0.8,4.7c7.3-1,12.5-3.2,15.6-6.5
			c1.3-1.5,1.9-3,1.9-4.8s-0.4-3.2-1.1-4.1c-0.8-1-1.8-1.9-3-2.5c-2.6-1.4-5.4-2.1-8.4-2.1h-1.2C222.1,300.6,222,300.6,222,300.6z
			 M228.2,266.9c-0.1,0.8-0.3,1.7-0.5,2.8c-0.2,1.4-0.5,2.9-0.8,4.4s-0.6,3-0.9,4.5c-0.2,0.9-0.4,1.7-0.5,2.5
			c12.2-2.9,14.9-6,14.9-8.1c0-1.1,0-4.5-7.9-5.7c-1.4-0.3-2.6-0.4-3.7-0.4L228.2,266.9L228.2,266.9z"/>
		<path id="XMLID_189_" class="st2" d="M239.4,245.8c9.6,0,16.2,3.3,20,9.8c1.5,2.5,2.2,5.5,2.2,9.1s-0.6,7-1.7,10
			c-1.1,3.1-2.6,5.9-4.4,8.5c-3.7,5.1-8.2,8.6-13.4,10.5c7.5,4.6,11.2,11.6,11.2,21.2c0,3.4-0.8,6.7-2.4,10
			c-1.6,3.3-3.7,6.2-6.4,8.9c-2.7,2.6-5.8,5-9.4,7c-3.6,2-7.4,3.7-11.4,5.1c-7.8,2.7-15.9,4.1-24.1,4.1c-3.5,0-6.7-0.3-9.7-0.8
			c4.5-16.3,8-32.8,10.7-49.4c2.6-16.6,5.2-33.3,7.7-50C220.9,247.1,231.3,245.8,239.4,245.8 M224.4,282.5
			c11.4-2.6,17.1-5.7,17.1-9.4c0-3.6-2.9-5.8-8.8-6.7c-1.5-0.3-2.7-0.4-3.8-0.4h-1.5c-0.2,1-0.4,2.2-0.6,3.6
			c-0.2,1.4-0.5,2.9-0.8,4.4s-0.6,3-0.9,4.5C224.8,279.9,224.5,281.3,224.4,282.5 M217.3,321.7c8.3-0.9,14.1-3.2,17.5-7
			c1.5-1.6,2.2-3.5,2.2-5.5s-0.4-3.6-1.3-4.7c-0.9-1.1-2-2.1-3.3-2.8c-2.7-1.5-5.7-2.2-8.9-2.2h-1.2c-0.4,0-0.7,0-1.1,0.1
			c-0.4,2.3-0.7,4.3-1,6s-0.6,3.4-0.9,5c-0.3,1.6-0.6,3.3-0.9,5C218,317.4,217.6,319.4,217.3,321.7 M239.4,243.8
			c-8.2,0-18.9,1.3-31.7,4l-1.4,0.3l-0.2,1.4c-2.4,16.6-5,33.5-7.7,50c-2.6,16.4-6.2,33-10.6,49.1l-0.6,2.1l2.1,0.4
			c3.1,0.6,6.5,0.9,10.1,0.9c8.4,0,16.7-1.4,24.7-4.2c4.1-1.4,8-3.1,11.7-5.2s7.1-4.5,9.9-7.3c2.8-2.8,5.1-6,6.8-9.4
			c1.7-3.5,2.6-7.2,2.6-10.9c0-8.9-3.1-15.9-9.2-20.8c4.2-2.2,7.8-5.4,11-9.7c1.9-2.7,3.5-5.7,4.7-9s1.8-6.9,1.8-10.7
			c0-3.9-0.8-7.3-2.5-10.1C257,247.5,249.7,243.8,239.4,243.8L239.4,243.8z M226.9,279.8c0.1-0.3,0.1-0.6,0.2-1
			c0.3-1.5,0.6-3.1,0.9-4.6c0.3-1.5,0.5-3,0.8-4.4c0.1-0.7,0.2-1.3,0.3-1.9c0.9,0,2,0.1,3.3,0.4l0,0l0,0c7.1,1.1,7.1,3.8,7.1,4.7
			C239.5,273.9,238.5,276.8,226.9,279.8L226.9,279.8z M222.8,301.6h0.6c2.8,0,5.5,0.7,7.9,2c1.1,0.6,2,1.3,2.7,2.2
			c0.6,0.8,0.9,2,0.9,3.5s-0.6,2.9-1.7,4.1c-2.7,2.9-7.2,4.9-13.6,6c0.2-1.2,0.4-2.3,0.6-3.3c0.3-1.7,0.6-3.4,0.9-5
			c0.3-1.6,0.6-3.2,0.9-5C222.3,304.7,222.5,303.2,222.8,301.6L222.8,301.6z"/>
	</g>
	<g id="XMLID_30_">
		
			<linearGradient id="XMLID_6_" gradientUnits="userSpaceOnUse" x1="299.6" y1="244.26" x2="299.6" y2="351.5601" gradientTransform="matrix(1 0 0 -1 -1.915097e-06 595.2401)">
			<stop  offset="0" style="stop-color:#C73427"/>
			<stop  offset="1" style="stop-color:#DB5B38"/>
		</linearGradient>
		<path id="XMLID_144_" class="st3" d="M283.5,351c-6.6,0-11.9-2.4-15.7-7.2c-4.1-5.2-6.2-12.7-6.2-22.5c0-10.5,2.5-21.9,7.3-34
			c4.9-12.1,11.3-22.3,19.2-30.4c8.6-8.7,17.8-13.2,27.4-13.2c8,0,14,3.3,17.7,9.8c2.9,5.2,4.4,13,4.4,23.3c0,5.6-0.8,11.9-2.4,18.7
			c-1.6,6.8-3.8,13.1-6.6,18.8c-2.8,5.7-6,10.9-9.6,15.4s-7.5,8.4-11.4,11.5C299.2,347.7,291.2,351,283.5,351z M310.6,275.1
			c-5.2,0-10,2.6-14.3,7.8c-3.5,4.3-6.5,10.2-9,17.6c-2,6.1-3,11.8-3,17.2c0,3.3,1.4,5.7,4.2,7.3c0.8,0.6,1.7,0.8,2.6,0.8
			c3.9,0,7.4-1.4,10.5-4.1c3.1-2.8,5.8-6.2,7.9-10.3c2.1-4.1,3.8-8.5,4.9-13.2s1.7-9,1.7-12.8C316.1,275.1,311.9,275.1,310.6,275.1z
			"/>
		<path id="XMLID_136_" class="st2" d="M315.5,244.7c7.7,0,13.3,3.1,16.8,9.3c2.8,5,4.2,12.6,4.2,22.8c0,5.6-0.8,11.7-2.4,18.5
			c-1.6,6.7-3.8,12.9-6.5,18.6s-5.9,10.7-9.5,15.2s-7.4,8.2-11.3,11.3c-8.1,6.4-15.9,9.6-23.4,9.6c-6.3,0-11.3-2.3-14.9-6.8
			c-4-5-6-12.3-6-21.9c0-10.4,2.4-21.6,7.2-33.6c4.8-12,11.2-22.1,19-30.1C297.3,249,306.2,244.7,315.5,244.7 M291.1,326.9
			c4.2,0,7.9-1.4,11.1-4.3s5.9-6.4,8.1-10.6s3.8-8.7,5-13.5c1.1-4.8,1.7-9.1,1.7-13.1c0-7.6-2.2-11.3-6.6-11.3
			c-5.6,0-10.6,2.7-15,8.2c-3.6,4.4-6.6,10.3-9.2,17.9c-2,6.2-3,12-3,17.5c0,3.6,1.5,6.4,4.6,8.2C288.9,326.6,290,326.9,291.1,326.9
			 M315.5,242.7c-9.8,0-19.3,4.5-28.1,13.4c-8,8.2-14.5,18.5-19.4,30.7s-7.4,23.8-7.4,34.4c0,10,2.2,17.8,6.5,23.1
			c4,5,9.6,7.6,16.5,7.6c7.9,0,16.2-3.4,24.6-10c4-3.2,7.9-7.1,11.6-11.7s7-9.8,9.7-15.6c2.8-5.8,5-12.1,6.6-19s2.4-13.2,2.4-18.9
			c0-10.7-1.5-18.4-4.5-23.8C330.1,246.2,323.9,242.7,315.5,242.7L315.5,242.7z M291.1,324.9c-0.8,0-1.4-0.2-2-0.6H289h-0.1
			c-2.5-1.5-3.7-3.5-3.7-6.5c0-5.2,1-10.9,2.9-16.9c2.5-7.3,5.4-13.1,8.8-17.3c4.1-5,8.5-7.5,13.5-7.5c1.1,0,4.6,0,4.6,9.3
			c0,3.7-0.6,8-1.7,12.6s-2.7,9-4.8,13c-2.1,4-4.6,7.3-7.7,10C298.1,323.7,294.9,324.9,291.1,324.9L291.1,324.9z"/>
	</g>
	<g id="XMLID_28_">
		
			<linearGradient id="XMLID_8_" gradientUnits="userSpaceOnUse" x1="366.3999" y1="243.052" x2="366.3999" y2="349.3708" gradientTransform="matrix(1 0 0 -1 -1.915097e-06 595.2401)">
			<stop  offset="0" style="stop-color:#C73427"/>
			<stop  offset="1" style="stop-color:#DB5B38"/>
		</linearGradient>
		<path id="XMLID_124_" class="st4" d="M364.3,350.9c-0.3-3.7-0.5-7.2-0.8-10.5c-0.2-3.3-0.5-6.5-0.7-9.6c-0.1-1.2-0.2-2.3-0.2-3.3
			c-2.8,7-6.4,14.8-10.5,23.2l-0.3,0.6l-26-2.2l0.8-1.4c4.7-8.4,9.4-16.7,14-24.7s8.9-16.5,12.8-25.1c-1.3-9.6-2.7-17.8-4.2-24.6
			c-1.5-6.8-2.7-12.4-3.6-16.5l-0.2-0.8l24.4-10.1l0.1,1.3c0.5,4.4,1,9.4,1.6,14.6c0.5,3.9,0.9,7.5,1.3,11
			c4.8-10.9,8.6-19.1,11.4-24.5l0.4-0.7l22.4,6l-0.7,1.1c-8.4,14-16.1,28.7-23.1,43.8c1.1,7.8,2.7,16.1,4.9,24.8
			c2.2,8.9,5,20.1,5,20.1l-0.7,0.4c-0.2,0.1-0.5,0.2-2.1,0.6c-1.1,0.3-2.5,0.6-4.2,1.1s-3.5,1-5.5,1.6s-4,1.2-5.9,1.7
			c-5,1.5-8,2.4-9.2,2.9l-1.2,0.4L364.3,350.9z"/>
		<path id="XMLID_121_" class="st2" d="M369,247.3c0.5,4.5,1,9.3,1.6,14.6s1.2,10.2,1.6,14.8c5.6-12.7,9.8-22,12.9-27.9l20.4,5.5
			c-8.5,14.1-16.2,28.8-23.2,44.2c1.1,7.9,2.8,16.3,5,25.2c2.2,8.9,3.8,15.3,4.9,19.3c-0.2,0.1-0.8,0.3-1.9,0.5s-2.5,0.6-4.2,1.1
			s-3.5,1-5.5,1.6s-4,1.2-5.9,1.7c-4.9,1.5-8,2.4-9.3,2.9c-0.3-3.7-0.5-7.2-0.8-10.5c-0.2-3.3-0.5-6.5-0.7-9.6s-0.4-5.7-0.5-7.8
			c-3.1,8-7.2,17.1-12.2,27.3l-23.8-2.1c4.6-8.3,9.3-16.5,14-24.7s9-16.7,12.9-25.5c-1.3-9.8-2.7-18.1-4.2-25
			c-1.6-6.9-2.7-12.4-3.6-16.5L369,247.3 M370.7,244.5l-2.5,1l-22.4,9.3l-1.5,0.6l0.3,1.6c0.8,4.2,2,9.7,3.6,16.5
			c1.5,6.7,2.9,14.8,4.1,24.2c-3.8,8.6-8.1,16.9-12.6,24.8c-4.6,8-9.3,16.3-14,24.7l-1.5,2.7l3.1,0.3l23.8,2.1l1.4,0.1l0.6-1.2
			c3.4-6.9,6.4-13.4,8.9-19.4c0.2,2.8,0.4,5.7,0.6,8.6c0.2,3.3,0.5,6.8,0.8,10.5l0.2,2.6l2.5-0.9c1.2-0.4,4.2-1.4,9.2-2.8
			c1.9-0.5,3.9-1.1,5.9-1.7s3.8-1.1,5.5-1.6s3.1-0.8,4.1-1.1c1.7-0.4,2.1-0.6,2.3-0.7l1.4-0.7l-0.4-1.6c-1-4-2.6-10.5-4.9-19.3
			c-2.1-8.5-3.8-16.8-4.9-24.4c6.9-15,14.6-29.6,22.9-43.4l1.4-2.3l-2.6-0.7l-20.4-5.5l-1.6-0.4l-0.7,1.4
			c-2.4,4.8-5.8,11.9-9.9,21.1c-0.3-2.4-0.5-4.8-0.9-7.3c-0.6-5.2-1.2-10.2-1.6-14.6L370.7,244.5L370.7,244.5z"/>
	</g>
	<g id="XMLID_26_">
		
			<linearGradient id="XMLID_9_" gradientUnits="userSpaceOnUse" x1="438.25" y1="244.4601" x2="438.25" y2="349.0601" gradientTransform="matrix(1 0 0 -1 -1.915097e-06 595.2401)">
			<stop  offset="0" style="stop-color:#C73427"/>
			<stop  offset="1" style="stop-color:#DB5B38"/>
		</linearGradient>
		<path id="XMLID_120_" class="st5" d="M410.1,349.4c7.2-33.8,12.2-60.8,14.8-80.3c-1.3-0.1-2.5-0.2-3.8-0.2c-0.5,0-1.1,0-1.6,0
			c-0.3,0-0.6,0-0.9,0c-2,0-4-0.3-6-0.9l-0.7-0.2l0.8-19.7l1,0.1c4.7,0.4,9.5,0.5,14.3,0.5c12.7,0,25.2-0.8,37.2-2.3l1.4-0.2
			l-1.8,8.9c-0.4,2.1-0.9,4.2-1.3,6.5c-0.4,2.2-0.8,4.2-1.2,5.8l-0.1,0.6l-0.6,0.2c-2.1,0.6-4.3,1-6.4,1.2c-1.8,0.2-3.7,0.5-5.4,0.8
			c-1.6,6.9-3.2,15.4-4.8,25.4c-3.6,22.9-6.2,39.8-7.7,50.2l-0.1,0.7l-27.3,4.3L410.1,349.4z"/>
		<path id="XMLID_117_" class="st2" d="M465.2,247.5l-1.5,7.5c-0.5,2.1-0.9,4.3-1.3,6.5s-0.8,4.2-1.2,5.8c-2.1,0.5-4.2,0.9-6.3,1.2
			c-2.1,0.2-4.1,0.5-6.2,0.9c-1.6,7-3.3,15.7-4.9,26.1c-3.6,23-6.2,39.7-7.7,50.2l-25.2,4c7.4-34.6,12.3-61.8,14.9-81.3
			c-1.6-0.2-3.3-0.3-4.9-0.3c-0.5,0-1.1,0-1.6,0c-0.3,0-0.5,0-0.8,0c-1.9,0-3.8-0.3-5.7-0.8l0.7-17.9c4.7,0.4,9.5,0.5,14.4,0.5
			C440.6,249.8,453.1,249,465.2,247.5 M467.7,245.1l-2.8,0.4c-12,1.5-24.4,2.3-37.1,2.3c-4.8,0-9.5-0.2-14.2-0.5l-2.1-0.2l-0.1,2.1
			l-0.7,17.9l-0.1,1.6l1.5,0.4c2.1,0.6,4.2,0.9,6.3,0.9c0.3,0,0.6,0,0.9,0c0.5,0,1,0,1.6,0c0.9,0,1.8,0,2.7,0.1
			c-2.6,19.3-7.5,45.9-14.6,79.1l-0.6,2.8l2.9-0.5l25.2-4l1.5-0.2l0.2-1.5c1.4-10.4,4-27.3,7.7-50.1c1.5-9.7,3.1-18,4.6-24.7
			c1.5-0.3,3.1-0.5,4.7-0.6c2.2-0.2,4.4-0.6,6.6-1.2l1.2-0.3l0.3-1.2c0.4-1.7,0.8-3.7,1.2-5.9c0.4-2.2,0.8-4.4,1.3-6.4l1.5-7.6
			L467.7,245.1L467.7,245.1z"/>
	</g>
	<g id="XMLID_24_">
		
			<linearGradient id="XMLID_11_" gradientUnits="userSpaceOnUse" x1="490.05" y1="244.56" x2="490.05" y2="350.16" gradientTransform="matrix(1 0 0 -1 -1.915097e-06 595.2401)">
			<stop  offset="0" style="stop-color:#C73427"/>
			<stop  offset="1" style="stop-color:#DB5B38"/>
		</linearGradient>
		<path id="XMLID_116_" class="st6" d="M476.1,249.1l46.5-4l-0.4,1.4c-0.6,2.1-1.2,4.1-1.6,6c-0.5,2-0.9,3.9-1.4,5.8
			c-0.4,1.9-0.8,3.5-1.1,5L518,264l-0.7,0.1c-2.8,0.3-6.6,0.4-11.3,0.4h-8.6l-4.5,23.1c4.4-0.2,8.2-0.4,11.3-0.5
			c3.3-0.1,5.5-0.2,6.5-0.3l1.3-0.1l-0.2,1.2c-0.4,2.6-0.7,5.2-1,7.7s-0.7,5.1-1.2,7.8l-0.1,0.8l-0.8,0.1c-1,0.1-2.6,0.2-4.7,0.2
			s-4.3,0.1-6.5,0.2c-2.1,0.1-4.3,0.2-6.9,0.2l-4.4,23.7l20.2-3.3l-1.5,18.1l-47.4,7.3L476.1,249.1z"/>
		<path id="XMLID_113_" class="st2" d="M521.3,246.2c-0.6,2.1-1.2,4.1-1.6,6.1c-0.5,2-0.9,3.9-1.4,5.8s-0.8,3.6-1.1,5.1
			c-2.7,0.3-6.5,0.4-11.2,0.4h-9.4l-4.9,25.2c5-0.3,9.2-0.5,12.6-0.5c3.4-0.1,5.6-0.2,6.6-0.3c-0.4,2.6-0.7,5.2-1,7.7
			s-0.7,5.1-1.2,7.7c-1,0.1-2.6,0.2-4.6,0.2c-2.1,0-4.3,0.1-6.6,0.2c-2.3,0.1-4.8,0.2-7.7,0.3l-4.8,25.8l20.4-3.3l-1.4,16l-45.3,7
			l18.3-99.5L521.3,246.2 M524.1,244l-2.9,0.3l-44.3,3.8l-1.5,0.1l-0.3,1.5l-18.3,99.5l-0.5,2.8l2.8-0.4l45.3-7l1.6-0.2l0.1-1.6
			l1.4-16l0.2-2.6l-2.5,0.4l-17.6,2.8l4-21.5c2.2-0.1,4.2-0.1,6.1-0.2c2.3-0.1,4.4-0.2,6.5-0.2c2.2,0,3.7-0.1,4.8-0.2l1.5-0.1
			l0.3-1.5c0.5-2.6,0.9-5.3,1.2-7.8s0.7-5.1,1-7.7l0.3-2.5l-2.5,0.2c-0.7,0.1-2.3,0.2-6.4,0.3c-2.8,0.1-6.2,0.2-10.1,0.4l4.1-21h7.8
			c4.8,0,8.6-0.1,11.4-0.4l1.5-0.1l0.3-1.5c0.3-1.4,0.6-3.1,1.1-5s0.9-3.9,1.4-5.8c0.4-1.9,1-3.9,1.6-6L524.1,244L524.1,244z"/>
	</g>
	<g id="XMLID_22_">
		
			<linearGradient id="XMLID_13_" gradientUnits="userSpaceOnUse" x1="553.05" y1="243.7903" x2="553.05" y2="351.9903" gradientTransform="matrix(1 0 0 -1 -1.915097e-06 595.2401)">
			<stop  offset="0" style="stop-color:#C73427"/>
			<stop  offset="1" style="stop-color:#DB5B38"/>
		</linearGradient>
		<path id="XMLID_112_" class="st7" d="M513.4,349.9c10.3-49.2,16.4-84,18.2-103.2l0.1-1l1,0.1c1.2,0.1,2.3,0.1,3.1,0.1h4
			c1.8,0,7-0.2,15.3-0.5h0.9c0,0,2.6,13.5,3.7,19.2c2.1,11.9,3.8,20.8,5,26.4c0.1-0.5,0.2-1.1,0.3-1.7c0.4-2.4,1-5,1.5-7.7
			s1.1-5.4,1.6-8.3c0.9-4.4,2.7-13.2,5.6-26.9l0.1-0.7l19.2-2.3l-0.3,1.4c-9.9,45.8-16.1,79.1-18.6,99l-0.1,0.9h-1
			c-0.7,0-3.2,0.4-11,2.3c-6.4,1.5-10.2,2.5-11.5,3l-1.2,0.4l-0.1-1.3c-1.5-20.9-3.2-36.9-5-47.5c0,0.2-0.1,0.5-0.1,0.7
			c-0.4,2.3-0.9,4.8-1.4,7.4c-1.7,9.9-4,22-6.8,36l-0.1,0.6l-22.7,5.3L513.4,349.9z"/>
		<path id="XMLID_108_" class="st2" d="M591.6,244.5c-9.9,46-16.1,79.1-18.6,99.1c-1.1,0-4.9,0.8-11.3,2.3c-6.4,1.6-10.3,2.6-11.6,3
			c-1.8-25-3.8-42.7-6-53c-0.3,1.7-0.6,3.8-1.1,6.1c-0.5,2.3-0.9,4.8-1.4,7.5c-1.7,9.9-4,21.9-6.8,36l-20.5,4.8
			c10.4-49.5,16.5-83.9,18.2-103.4c1.3,0.1,2.3,0.1,3.1,0.1h4c1.8,0,6.9-0.2,15.3-0.5c1.3,6.6,2.5,12.7,3.6,18.3
			c2.9,16.2,4.9,26.7,6,31.3c0.4-1.9,0.8-4.1,1.2-6.6c0.5-2.5,1-5,1.5-7.7s1.1-5.4,1.6-8.3c0.9-4.5,2.8-13.4,5.6-26.9L591.6,244.5
			 M594.2,242.1l-2.8,0.3l-17.1,2.1l-1.4,0.2l-0.3,1.4c-2.9,13.7-4.7,22.5-5.6,26.9c-0.5,2.8-1.1,5.6-1.6,8.3
			c-0.3,1.5-0.6,3-0.9,4.4c-1-5.4-2.4-12.5-4-21.3c-1.1-5.7-2.3-11.8-3.6-18.3l-0.3-1.7l-1.7,0.1c-8.3,0.4-13.4,0.5-15.2,0.5h-4
			c-0.8,0-1.8,0-3-0.1l-2-0.1l-0.2,2c-1.7,19.3-7.8,53.9-18.1,103.1l-0.6,3.1l3.1-0.7l20.5-4.8l1.3-0.3l0.3-1.3
			c2.8-14,5.1-26.1,6.8-36c0.1-0.8,0.3-1.6,0.4-2.4c1.5,10.3,2.8,24.3,4.1,41.7l0.2,2.6l2.5-0.9c0.8-0.3,3.5-1,11.3-2.9
			c8.5-2,10.4-2.3,10.8-2.3h1.8l0.2-1.8c2.4-19.9,8.7-53.2,18.6-98.9L594.2,242.1L594.2,242.1z"/>
	</g>
	<g id="XMLID_20_">
		
			<linearGradient id="XMLID_15_" gradientUnits="userSpaceOnUse" x1="625.15" y1="244.4601" x2="625.15" y2="349.0601" gradientTransform="matrix(1 0 0 -1 -1.915097e-06 595.2401)">
			<stop  offset="0" style="stop-color:#C73427"/>
			<stop  offset="1" style="stop-color:#DB5B38"/>
		</linearGradient>
		<path id="XMLID_107_" class="st8" d="M597,349.4c7.2-33.9,12.2-60.8,14.8-80.3c-1.3-0.1-2.5-0.2-3.8-0.2c-0.5,0-1.1,0-1.6,0
			c-0.3,0-0.6,0-0.9,0c-2,0-4-0.3-6-0.9l-0.7-0.2l0.8-19.7l1,0.1c4.7,0.4,9.5,0.5,14.3,0.5c12.7,0,25.2-0.8,37.2-2.3l1.4-0.2
			l-1.8,8.9c-0.4,2.1-0.9,4.2-1.3,6.5c-0.4,2.2-0.8,4.2-1.2,5.8l-0.1,0.6l-0.6,0.2c-2.1,0.6-4.3,1-6.4,1.2c-1.8,0.2-3.7,0.5-5.4,0.8
			c-1.6,6.9-3.2,15.4-4.8,25.4c-3.6,22.9-6.2,39.8-7.7,50.2l-0.1,0.7l-27.3,4.3L597,349.4z"/>
		<path id="XMLID_96_" class="st2" d="M652.1,247.5l-1.5,7.5c-0.5,2.1-0.9,4.3-1.3,6.5c-0.4,2.2-0.8,4.2-1.2,5.8
			c-2.1,0.5-4.2,0.9-6.3,1.2c-2.1,0.2-4.1,0.5-6.2,0.9c-1.6,7-3.3,15.7-4.9,26.1c-3.6,23-6.2,39.7-7.7,50.2l-25.2,4
			c7.4-34.6,12.3-61.8,14.9-81.3c-1.6-0.2-3.3-0.3-4.9-0.3c-0.5,0-1.1,0-1.6,0c-0.3,0-0.5,0-0.8,0c-1.9,0-3.8-0.3-5.7-0.8l0.7-17.9
			c4.7,0.4,9.5,0.5,14.4,0.5C627.5,249.8,640,249,652.1,247.5 M654.6,245.1l-2.8,0.4c-12,1.5-24.4,2.3-37.1,2.3
			c-4.8,0-9.5-0.2-14.2-0.5l-2.1-0.2l-0.1,2.1l-0.7,17.9l-0.1,1.6l1.5,0.4c2.1,0.6,4.2,0.9,6.3,0.9c0.3,0,0.6,0,0.9,0
			c0.5,0,1,0,1.6,0c0.9,0,1.8,0,2.7,0.1c-2.6,19.3-7.5,45.9-14.6,79.1l-0.6,2.8l2.9-0.5l25.2-4l1.5-0.2l0.2-1.5
			c1.4-10.4,4-27.3,7.7-50.1c1.5-9.7,3.1-18,4.6-24.7c1.5-0.3,3.1-0.5,4.7-0.6c2.2-0.2,4.4-0.6,6.6-1.2l1.2-0.3l0.3-1.2
			c0.4-1.7,0.8-3.7,1.2-5.9c0.4-2.2,0.8-4.4,1.3-6.4l1.5-7.6L654.6,245.1L654.6,245.1z"/>
	</g>
</g>
</svg>
