<svg id="Livello_1" data-name="Livello 1" xmlns="http://www.w3.org/2000/svg" viewBox="0 0 156.44 164.53"><defs><style>.cls-1,.cls-3{fill:#706f6f;}.cls-1{stroke:#706f6f;stroke-miterlimit:10;stroke-width:3px;}.cls-2{fill:#fff;}</style></defs><title>boxtent-ico</title><g id="_Gruppo_" data-name="&lt;Gruppo&gt;"><path id="_Tracciato_" data-name="&lt;Tracciato&gt;" class="cls-1" d="M910.7,230.64c0.24,0.84,16.26,2,19.55-.39,8.5-6.22-19.77-6.31-19.77-6.31Z" transform="translate(-776.9 -124.94)"/><g id="_Gruppo_2" data-name="&lt;Gruppo&gt;"><path id="_Tracciato_2" data-name="&lt;Tracciato&gt;" class="cls-2" d="M902.09,132.67c0.3,25.5,3.76,66.22,5.4,93.68,0,0.71-1.94,4.53,7.09,4.23,7.5-.25,4.55-3,5.15-6.25l3.86-92.11" transform="translate(-776.9 -124.94)"/><g id="_Gruppo_3" data-name="&lt;Gruppo&gt;"><path id="_Tracciato_3" data-name="&lt;Tracciato&gt;" class="cls-3" d="M899.95,132.67c0.33,24,2.3,47.92,4,71.83q0.61,8.89,1.19,17.78c0.14,2.24-.52,5.35.61,7.45,2.39,4.46,14.2,4.73,16-.31,0.8-2.18.18-6,.29-8.46l0.6-14.3,1.86-44.46,1.25-30c0.12-2.76-4.18-2.76-4.29,0l-2.56,61.21c-0.4,9.65-.73,19.31-1.21,29,0,0.63-.06,1.26-0.08,1.88a18,18,0,0,1,0,2.21c-0.26,1.33.67,0.83-.78,1.74-1,.6-5,0.43-5.83,0-2.31-1.09-1.4-3.27-1.57-6q-0.51-8.11-1.08-16.22c-1.68-24.42-3.73-48.89-4.06-73.38,0-2.76-4.33-2.77-4.29,0h0Z" transform="translate(-776.9 -124.94)"/></g></g><g id="_Gruppo_4" data-name="&lt;Gruppo&gt;"><path id="_Tracciato_4" data-name="&lt;Tracciato&gt;" class="cls-2" d="M909.75,126.94a16.38,16.38,0,0,0-6,1.51c-1.7,1-2.72,2.82-1.7,4.23a5.44,5.44,0,0,0,2.4,1.58,22.39,22.39,0,0,0,16.62-.22,5.24,5.24,0,0,0,2.47-1.81c1.53-2.6-2.39-4.43-5.14-4.9a34.2,34.2,0,0,0-8.7-.39" transform="translate(-776.9 -124.94)"/><g id="_Gruppo_5" data-name="&lt;Gruppo&gt;"><path id="_Tracciato_5" data-name="&lt;Tracciato&gt;" class="cls-3" d="M909.75,125.06c-3.73.49-11.27,2-9.75,7.44s11.76,5.44,16,4.86c3.48-.48,11.52-2.47,9.53-7.7s-11.35-4.81-15.74-4.6c-2.4.12-2.42,3.87,0,3.75a29.23,29.23,0,0,1,9.15.53c1.19,0.33,2.3.4,2.31,1.79,0,1.64-2.58,1.87-3.9,2.19a20.94,20.94,0,0,1-9.67,0c-1.41-.34-4.92-0.77-2.91-3.23,0.77-.94,4.08-1.13,5-1.25,2.36-.31,2.39-4.06,0-3.75h0Z" transform="translate(-776.9 -124.94)"/></g></g><path id="_Tracciato_6" data-name="&lt;Tracciato&gt;" class="cls-1" d="M793.75,235.14c0.24,0.84,18.2.66,21.5-1.75,8.5-6.22-19.77-6.31-19.77-6.31Z" transform="translate(-776.9 -124.94)"/><g id="_Gruppo_6" data-name="&lt;Gruppo&gt;"><path id="_Tracciato_7" data-name="&lt;Tracciato&gt;" class="cls-2" d="M783.75,136.51c0.3,25.5,3.76,66.22,5.4,93.68,0,0.71-1.94,4.53,7.09,4.23,7.5-.25,4.45-2.8,5.15-6.25l3.86-92.11" transform="translate(-776.9 -124.94)"/><g id="_Gruppo_7" data-name="&lt;Gruppo&gt;"><path id="_Tracciato_8" data-name="&lt;Tracciato&gt;" class="cls-3" d="M781.6,136.51c0.33,24,2.3,47.92,4,71.83q0.61,8.89,1.19,17.78c0.14,2.24-.52,5.35.61,7.45,2.37,4.42,14.18,4.76,16-.25,0.8-2.2.22-6,.32-8.52l0.6-14.3L806.14,166l1.25-30c0.12-2.76-4.18-2.76-4.29,0l-2.56,61.21c-0.4,9.65-.71,19.32-1.21,29,0,0.63-.06,1.26-0.08,1.88a18.27,18.27,0,0,1-.06,2.28c-0.28,1.33.65,0.8-.75,1.68-1,.6-5,0.41-5.83,0-2.31-1.09-1.4-3.27-1.57-6Q790.53,218,790,209.89c-1.68-24.42-3.73-48.89-4.06-73.38,0-2.76-4.33-2.77-4.29,0h0Z" transform="translate(-776.9 -124.94)"/></g></g><g id="_Gruppo_8" data-name="&lt;Gruppo&gt;"><path id="_Tracciato_9" data-name="&lt;Tracciato&gt;" class="cls-2" d="M790.82,130.83a14.07,14.07,0,0,0-5.37,1.45c-1.7,1-2.72,2.82-1.7,4.23a5.44,5.44,0,0,0,2.4,1.58,22.39,22.39,0,0,0,16.62-.22,5.24,5.24,0,0,0,2.47-1.81c1.53-2.6-2.39-4.43-5.14-4.9a31,31,0,0,0-9.29-.33" transform="translate(-776.9 -124.94)"/><g id="_Gruppo_9" data-name="&lt;Gruppo&gt;"><path id="_Tracciato_10" data-name="&lt;Tracciato&gt;" class="cls-3" d="M790.82,129c-3.68.44-10.6,2.23-9.16,7.39,1.51,5.42,11.76,5.44,16,4.86,3.48-.48,11.52-2.47,9.53-7.7-2.06-5.41-11.92-5-16.33-4.55-2.38.23-2.4,4,0,3.75a27,27,0,0,1,9.74.47c1.19,0.33,2.3.4,2.31,1.79,0,1.64-2.58,1.87-3.9,2.19a20.94,20.94,0,0,1-9.67,0c-1.41-.34-4.91-0.77-2.91-3.23,0.7-.87,3.49-1.09,4.42-1.2,2.37-.28,2.4-4,0-3.75h0Z" transform="translate(-776.9 -124.94)"/></g></g><g id="_Gruppo_10" data-name="&lt;Gruppo&gt;"><path id="_Tracciato_11" data-name="&lt;Tracciato&gt;" class="cls-2" d="M779.33,160.38c-3.17,11.69,14.18,23.34,22.71,25.74,36.39,10.25,78.35,8.41,113-5,7.9-3.05,17-10.94,15.69-23.32Z" transform="translate(-776.9 -124.94)"/><g id="_Gruppo_11" data-name="&lt;Gruppo&gt;"><path id="_Tracciato_12" data-name="&lt;Tracciato&gt;" class="cls-3" d="M777.26,159.81c-2.16,9.95,5.89,18,13.49,23.13,10.09,6.76,22.92,8.58,34.72,10.17,29.53,4,60.58,1.23,88.55-9.28,11.29-4.24,19.78-13.29,18.82-26a2.19,2.19,0,0,0-2.15-2.15L798,157.92l-18.64.31c-2.76,0-2.77,4.34,0,4.29L912,160.3l18.64-.31-2.15-2.15c1.29,17-15.08,22.24-28.43,26a181.16,181.16,0,0,1-47,6.66,179.93,179.93,0,0,1-47.23-5.58c-9.67-2.5-27.19-11.57-24.49-24C782,158.26,777.85,157.1,777.26,159.81Z" transform="translate(-776.9 -124.94)"/></g></g><g id="_Gruppo_12" data-name="&lt;Gruppo&gt;"><path id="_Tracciato_13" data-name="&lt;Tracciato&gt;" class="cls-2" d="M875.93,130.9A263.12,263.12,0,0,0,815.83,135c-12,2.27-26.54,7.55-33.09,15.91-10.3,13.14,5.23,24.79,21,27.53,39.27,6.81,85.38,7.7,119-11.12,6.7-3.75,10.57-9.44,6.91-15C921,139.13,895.28,131.75,875.93,130.9Z" transform="translate(-776.9 -124.94)"/><g id="_Gruppo_13" data-name="&lt;Gruppo&gt;"><path id="_Tracciato_14" data-name="&lt;Tracciato&gt;" class="cls-3" d="M875.93,128.75a273.38,273.38,0,0,0-45.25,1.74c-12.26,1.53-24.63,3.58-35.88,8.92-8.07,3.83-18.4,11-17.47,21.22,0.89,9.77,11.48,15.69,19.8,18.36,11.7,3.77,25.25,4.52,37.46,5.38a220.76,220.76,0,0,0,39.8-.54,141.65,141.65,0,0,0,36.32-8.53c7.77-3.06,22.15-8,22.5-18.28,0.35-10-13.79-17.14-21.34-20.35a106,106,0,0,0-36-7.93c-2.76-.14-2.75,4.15,0,4.29a106.29,106.29,0,0,1,28.26,5.29c8.12,2.72,17.89,6.84,23,14.13,11,15.69-42,25.79-51.17,26.89-21.69,2.61-43.82,1.34-65.37-2-9.53-1.47-21.58-3.56-27.29-12.38-6.4-9.88,5.84-18.21,13.6-21.88,11.63-5.5,24.81-7.38,37.47-8.77a275.55,275.55,0,0,1,41.49-1.3C878.7,133.16,878.69,128.86,875.93,128.75Z" transform="translate(-776.9 -124.94)"/></g></g><path id="_Tracciato_15" data-name="&lt;Tracciato&gt;" class="cls-1" d="M856.93,286.92c0.24,0.84,16.26,2,19.55-.39,8.5-6.22-19.77-6.31-19.77-6.31Z" transform="translate(-776.9 -124.94)"/><g id="_Gruppo_14" data-name="&lt;Gruppo&gt;"><path id="_Tracciato_16" data-name="&lt;Tracciato&gt;" class="cls-2" d="M848.33,189c0.3,25.5,3.76,66.22,5.4,93.68,0,0.71-1.94,4.53,7.09,4.23,7.5-.25,4.55-3,5.15-6.25l3.86-92.11" transform="translate(-776.9 -124.94)"/><g id="_Gruppo_15" data-name="&lt;Gruppo&gt;"><path id="_Tracciato_17" data-name="&lt;Tracciato&gt;" class="cls-3" d="M846.18,189c0.33,24,2.3,47.92,4,71.83q0.61,8.89,1.19,17.78c0.14,2.24-.52,5.35.61,7.45,2.39,4.46,14.2,4.73,16-.31,0.8-2.18.18-6,.29-8.46l0.6-14.3,1.86-44.46,1.25-30c0.12-2.76-4.18-2.76-4.29,0l-2.56,61.21c-0.4,9.65-.73,19.31-1.21,29,0,0.63-.06,1.26-0.08,1.88a18,18,0,0,1,0,2.21c-0.26,1.33.67,0.83-.78,1.74-1,.6-5,0.43-5.83,0-2.31-1.09-1.4-3.27-1.57-6q-0.51-8.11-1.08-16.22c-1.68-24.42-3.73-48.89-4.06-73.38,0-2.76-4.33-2.77-4.29,0h0Z" transform="translate(-776.9 -124.94)"/></g></g><g id="_Gruppo_16" data-name="&lt;Gruppo&gt;"><path id="_Tracciato_18" data-name="&lt;Tracciato&gt;" class="cls-2" d="M856,183.22a16.38,16.38,0,0,0-6,1.51c-1.7,1-2.72,2.82-1.7,4.23a5.44,5.44,0,0,0,2.4,1.58,22.39,22.39,0,0,0,16.62-.22,5.24,5.24,0,0,0,2.47-1.81c1.53-2.6-2.39-4.43-5.14-4.9a34.2,34.2,0,0,0-8.7-.39" transform="translate(-776.9 -124.94)"/><g id="_Gruppo_17" data-name="&lt;Gruppo&gt;"><path id="_Tracciato_19" data-name="&lt;Tracciato&gt;" class="cls-3" d="M856,181.34c-3.73.49-11.27,2-9.75,7.44s11.76,5.44,16,4.86c3.48-.48,11.52-2.47,9.53-7.7s-11.35-4.81-15.74-4.6c-2.4.12-2.42,3.87,0,3.75a29.23,29.23,0,0,1,9.15.53c1.19,0.33,2.3.4,2.31,1.79,0,1.64-2.58,1.87-3.9,2.19a20.94,20.94,0,0,1-9.67,0c-1.41-.34-4.92-0.77-2.91-3.23,0.77-.94,4.08-1.13,5-1.25,2.36-.31,2.39-4.06,0-3.75h0Z" transform="translate(-776.9 -124.94)"/></g></g></g></svg>