<svg id="Livello_1" data-name="Livello 1" xmlns="http://www.w3.org/2000/svg" viewBox="0 0 493.35 322.88"><defs><style>.cls-1{fill:#ee9d71;}.cls-2,.cls-22{fill:#fff;}.cls-18,.cls-3{fill:#706f6f;}.cls-4{fill:#fff9b9;}.cls-5{fill:#c79f67;}.cls-6{fill:none;stroke-linecap:round;stroke-linejoin:round;}.cls-18,.cls-21,.cls-22,.cls-6{stroke:#706f6f;}.cls-21,.cls-6{stroke-width:2.32px;}.cls-7{fill:#e5635b;}.cls-8{fill:#ad804b;}.cls-9{fill:#d3643d;}.cls-10{fill:#fae1d0;}.cls-11{fill:#d04e3a;}.cls-12{fill:#fbebdb;}.cls-13{fill:#f7e9dd;}.cls-14{fill:#e4634c;}.cls-15{fill:#878787;}.cls-16{fill:#679bc0;}.cls-17{fill:#97c776;}.cls-18,.cls-21,.cls-22{stroke-miterlimit:10;}.cls-18{stroke-width:3.48px;}.cls-19{fill:#c6c6c6;}.cls-20,.cls-21{fill:#ededed;}.cls-22{stroke-width:0.87px;}.cls-23{fill:#e77496;}.cls-24{fill:#4bac33;}.cls-25{fill:#e77321;}.cls-26{fill:#dadada;}.cls-27{fill:#f4b437;}.cls-28{fill:#7ba666;}</style></defs><title>boxtent</title><path id="_Tracciato_composto_" data-name="&lt;Tracciato composto&gt;" class="cls-1" d="M527.8,738.24c-2.5-13.17-9.82-21.15-20.93-27.86-4.78-2.89-9.22-6.3-14.09-9a183.35,183.35,0,0,0-18.94-8.87,247.54,247.54,0,0,0-36.23-12.38c-12.28-3-19.19,10.67-14.68,19.14-15.32-4.75-32.48-.55-48.15.25-7.43.38-13.79-5.24-20.22-8.56-7.48-3.86-15.18-7.27-23-10.43a263.88,263.88,0,0,0-202.06,2.84,9.26,9.26,0,0,0-4,3.25,12.11,12.11,0,0,0-10.56.93c-0.42.23-.81,0.48-1.21,0.72a11.78,11.78,0,0,0-9.66-1.2,82.63,82.63,0,0,0-45.28,36.12c-11.24,19.12-13.3,44.15,4.38,60.16,15.43,14,37.61,21.23,57.22,27a569.94,569.94,0,0,0,65.14,14.88c22.78,3.85,45.64,5.57,68.55,1.8,10.55-1.74,21.81-4.4,30.38-11.11a30.72,30.72,0,0,0,9.79-13.26A229.91,229.91,0,0,0,320,802c18.66-1.55,37.34-2.75,56-4.25,5.71-.46,12.2-0.57,18.69-1.18,11.35,3.74,24.09,4.1,35.73,4.23A247.88,247.88,0,0,0,480.7,796c12.53-2.46,25.19-6.89,34.83-15.53C527.57,769.69,530.72,753.65,527.8,738.24Zm-401-27.73c-0.2.14-.29,0.18,0,0h0Z" transform="translate(-47.12 -512.53)"/><path id="_Tracciato_composto_2" data-name="&lt;Tracciato composto&gt;" class="cls-2" d="M490.45,808.21c72.45-27.72,38.46-78.29,38.46-78.29-11.47-3.83-22.33-7.26-34.32-8.75-12.21-1.51-27.28-3.43-39,1.33-8.53,3.47-13.72,12.18-11.22,21.36,0,0.07,0,.14.07,0.21-6.46.57-12.92,0.86-19.41,0.91-8.06.06-15.67,7-15.35,15.35,0.26,6.91,2.84,12.18,7,17.46-1.3.31-3.69,1-3.48,0.93-4.37.56-12.11-.3-17.61-0.47-14.51-.45-89.55,5.67-97.55,18.65-7.33,11.9-29.53,21.88-23.45,34.79C274.66,831.69,417.5,836.12,490.45,808.21ZM440,758l0,0h0v0C439.84,757.14,439.89,757.4,440,758Zm-20.66,19c-0.45-.68.46-0.42,0,0h0Z" transform="translate(-47.12 -512.53)"/><path id="_Tracciato_" data-name="&lt;Tracciato&gt;" class="cls-2" d="M480.49,693.32q-7.21-4.39-14.77-8.19-4-2-8.17-3.91c-0.9-.41-1.82-0.79-2.73-1.19a223.82,223.82,0,0,0-33-10.27q-4.23-.93-8.51-1.66c-0.64-.11-1.28-0.2-1.93-0.29a150,150,0,0,0-15.58-.74,27.34,27.34,0,0,1-10.37-1.89,32.15,32.15,0,0,0-8.66,9.36c-7.33,11.9-10.26,26.12-4.18,39,2.77,5.88,10,8.31,16.19,7.22,10,4.14,22.57,1.25,32.74-.45,20.62-3.45,41.67-6.95,61.17-14.78,2.82-1.13,6.11-2.59,9.55-4.32C488.29,698.66,484.52,695.78,480.49,693.32Z" transform="translate(-47.12 -512.53)"/><path id="_Tracciato_2" data-name="&lt;Tracciato&gt;" class="cls-2" d="M175.94,823.71c11.46-9,14.35-26.24,7.93-38.93-5.12-10.12-15.11-18.89-25-24.09A66.65,66.65,0,0,0,142,754.34c-0.34-7.73-5.28-14.81-12-18.45-9.71-5.26-23.1-4.15-33.86-4.24a323.32,323.32,0,0,0-46.36,2.66S39,777,80.85,798.11,175.94,823.71,175.94,823.71Z" transform="translate(-47.12 -512.53)"/><g id="_Gruppo_" data-name="&lt;Gruppo&gt;"><path id="_Tracciato_3" data-name="&lt;Tracciato&gt;" class="cls-3" d="M393.36,672.46c-77.2-8.19-156-16.38-232.83-.5a324.86,324.86,0,0,0-52.23,15.23C93,693.17,77.15,700,64.23,710.4c-11.26,9.05-18.69,21.12-16.82,36s10.75,27.78,22.32,36.73c29.43,22.79,67.75,32.34,104.22,35.62,3.45,0.31,3.42-5.07,0-5.38-31.64-2.84-64.07-10.64-91.21-27.7-13.26-8.34-25.05-19.26-29.07-35-4.09-16,3.69-28.61,16.3-37.94C83,703,98.7,696.44,113.86,690.8A329.15,329.15,0,0,1,162,677.15c34.69-7.17,70.21-9.35,105.57-8.82,42.09,0.64,84,5.07,125.83,9.51,3.44,0.36,3.41-5,0-5.38h0Z" transform="translate(-47.12 -512.53)"/></g><g id="_Gruppo_2" data-name="&lt;Gruppo&gt;"><path id="_Tracciato_4" data-name="&lt;Tracciato&gt;" class="cls-4" d="M393.36,682.69c-59-5.65-118.54-11.36-177.86-6.6-26.74,2.14-53.41,6.34-79.24,13.67a294.63,294.63,0,0,0-37,13.13C88.67,707.5,77.76,712.8,69.43,721c-18.12,17.87-6.92,42.75,11,55.92,1.47,1.08,2.88-1.37,1.43-2.44-9.55-7-17.75-17.46-19.08-29.57-1.3-11.88,6.05-20.84,15.21-27.39,19-13.63,43.49-21.08,65.91-26.93,51-13.31,104.29-15,156.69-12.47,31,1.48,61.87,4.43,92.74,7.38,1.81,0.17,1.8-2.65,0-2.83h0Z" transform="translate(-47.12 -512.53)"/></g><path id="_Tracciato_5" data-name="&lt;Tracciato&gt;" class="cls-2" d="M385.53,763.51c-1.12-9.75-10.25-20.11-28.57-21.39,3.17-3.19,5.1-7.14,4.88-10.88C361.27,721,352.25,715,340.1,713.89c-19.38-1.74-38.94-3.5-58.46-2.19-11.44.77-22.47,1.91-30.13,9.49a18.25,18.25,0,0,0-4.73,7.66q-3.87.57-7.75,1.09c-9.72,1.28-19.43,4-24.86,11.12-6.69,8.8-4.47,19.71,4.77,26.71,8.57,6.5,19.56,6.06,30.48,6.18,33.71,0.37,67.12,9.27,102.08,6.34C362.34,779.38,386.69,773.63,385.53,763.51Z" transform="translate(-47.12 -512.53)"/><g id="_Gruppo_3" data-name="&lt;Gruppo&gt;"><path id="_Tracciato_6" data-name="&lt;Tracciato&gt;" class="cls-3" d="M386.78,659.31c-82.69-8.77-167.82-17.63-249.47,3.35A299.16,299.16,0,0,0,77,685.07c-3.09,1.56-.37,6.2,2.71,4.64,72.31-36.46,156.38-37.93,235.41-31.91,23.93,1.83,47.8,4.35,71.67,6.88,3.44,0.36,3.41-5,0-5.38h0Z" transform="translate(-47.12 -512.53)"/></g><g id="_Gruppo_4" data-name="&lt;Gruppo&gt;"><path id="_Tracciato_7" data-name="&lt;Tracciato&gt;" class="cls-3" d="M410.8,674.81c31.69,3.56,64.27,13.53,90.65,31.85,20.5,14.23,42.66,41.66,30,67.81-6.81,14.09-22.3,22.7-35.9,29.12-3.21,1.52-.41,6.28,2.79,4.76,12.8-6,27.51-14.26,35.35-26.54s8.53-25.93,3.86-39.45c-10.14-29.34-39.63-47-66.86-58.12a225.09,225.09,0,0,0-59.9-15c-3.52-.4-3.5,5.13,0,5.52h0Z" transform="translate(-47.12 -512.53)"/></g><g id="_Gruppo_5" data-name="&lt;Gruppo&gt;"><path id="_Tracciato_8" data-name="&lt;Tracciato&gt;" class="cls-4" d="M397.65,685.13c30.12,2.85,61.14,7.83,87.91,22.74,19.52,10.87,47.72,35.27,34.52,60.51-7,13.47-23.2,20.9-36.64,26.37-1.67.68-.94,3.43,0.76,2.74,12.06-4.91,26.45-11.3,34.66-21.91,8.06-10.42,9-22.41,4.07-34.43-10.83-26.31-41.5-41-67.09-48.63-18.92-5.64-38.57-8.37-58.18-10.22-1.82-.17-1.81,2.67,0,2.84h0Z" transform="translate(-47.12 -512.53)"/></g><g id="_Gruppo_6" data-name="&lt;Gruppo&gt;"><path id="_Tracciato_9" data-name="&lt;Tracciato&gt;" class="cls-5" d="M419.57,725.88c-3.05.17-9.3-2.14-8.88-5.47,0.5-4,8.95-5.11,12.23-5.33a29.14,29.14,0,0,1,7.43.39,22.31,22.31,0,0,1,6.45,2.35c5.3,2.91,8.06,7.24,7.27,11.4a5.79,5.79,0,0,1-3.83,4.45c-2.47,1-11.83,1.71-11.74-4.36" transform="translate(-47.12 -512.53)"/><path id="_Tracciato_10" data-name="&lt;Tracciato&gt;" class="cls-5" d="M434.25,727.13a11.64,11.64,0,0,0-7.27,3c-1.69,1.49-3,3.18-5.33,4.36a11,11,0,0,1-6.07.73,19,19,0,0,1-6.12-1.23c-1.6-.75-3.12-2.28-1.24-3.6,1.61-1.12,3.88-1.51,5.81-2a20.43,20.43,0,0,0,5.88-2c2.34-1.39,4.7-4.62.92-5.2" transform="translate(-47.12 -512.53)"/></g><g id="_Gruppo_7" data-name="&lt;Gruppo&gt;"><path id="_Tracciato_11" data-name="&lt;Tracciato&gt;" class="cls-4" d="M115.67,751.23c2.92,0.27,7.53.72,7.31,5.1-0.08,1.56-1.63,3.33-2.36,4.66-0.94,1.7-1.92,3.54-1.6,5.56,0.77,4.81,6.18,4.94,10,5.09a47.88,47.88,0,0,1,23.5,7.25c7.19,4.49,17.7,13.37,16.09,22.81-0.31,1.82,2.48,2.61,2.8.77,1.42-8.33-4.47-15.46-10.31-20.72a51.07,51.07,0,0,0-23.22-11.92c-4.15-.9-9-0.17-13-1.34-5.93-1.76-.65-7,0.51-10.35,2.3-6.73-4.29-9.28-9.78-9.79-1.86-.17-1.85,2.73,0,2.9h0Z" transform="translate(-47.12 -512.53)"/></g><g id="_Gruppo_8" data-name="&lt;Gruppo&gt;"><g id="_Gruppo_9" data-name="&lt;Gruppo&gt;"><path id="_Tracciato_12" data-name="&lt;Tracciato&gt;" class="cls-3" d="M416.28,724.74c-3,0-5.4-.68-6.3-3.56-0.83-2.67,0-2.71,2.28-3.58a17.55,17.55,0,0,1,2.09-.6c4.8-1.16,10.32-1.34,15,.26s15.9,9.7,7.94,14.78c-3,1.93-10.59,1.95-11-2.75-0.12-1.45-2.39-1.46-2.28,0,0.49,6.22,8.26,7.31,13.19,5.46,9.26-3.48,3.22-14.08-2.48-17.51-6.73-4.06-19.36-5.35-26.21-.34s2.95,10,7.73,10.11a1.14,1.14,0,0,0,0-2.28h0Z" transform="translate(-47.12 -512.53)"/></g><path id="_Tracciato_13" data-name="&lt;Tracciato&gt;" class="cls-6" d="M431,727.13a11.64,11.64,0,0,0-7.27,3c-1.69,1.49-3,3.18-5.33,4.36a11,11,0,0,1-6.07.73,19,19,0,0,1-6.12-1.23c-1.6-.75-3.12-2.28-1.24-3.6,1.61-1.12,3.88-1.51,5.81-2a20.43,20.43,0,0,0,5.88-2c2.34-1.39,4.7-4.62.92-5.2" transform="translate(-47.12 -512.53)"/></g><g id="_Gruppo_10" data-name="&lt;Gruppo&gt;"><path id="_Tracciato_14" data-name="&lt;Tracciato&gt;" class="cls-7" d="M153.5,745.44c4.24-5.77,12.41-7.92,19.16-8.62,7.56-.78,19-1.14,22.24,7.59,3.3,8.93-9.49,6.73-14.13,5.5a113.53,113.53,0,0,1-14.32-4.82c-4.22-1.75-9.64-3.67-12.57-7.31l2.24,3.84-0.25-1-0.88,6.7,0.61-1.06-3.12,3.12c4.32-2.7,9.94-3.79,15-3.88a21.46,21.46,0,0,1,6.83.66,15.44,15.44,0,0,0,2.27.95c1.64,0.17-.36,2.75,1-1l4-5.2c1.38-.93,1-0.27-0.58-0.42-1.23-.12-2.43-0.1-3.65-0.3s-4.14-1-4.4-1.28l2.24,3.84-0.19-1v4.62l0.44-1.06-2.24,3.84c0.82-.69,5.93-1.16,8-1.19,1.42,0,2.88.3,4.27,0.27,2,0,1.53,1.79.63-.84l6.07-10.7a14,14,0,0,1-5.75.63l2.31,17.08L196,752.8l-6.7-15.9-0.15.22c-10.77,3-6.2,19.77,4.62,16.77a12.27,12.27,0,0,0,4.3-2c7.71-5.78,3.43-18-6.7-15.9L184,737.59c-10.1,2.14-7,16.41,2.31,17.08a27.84,27.84,0,0,0,10.38-1.25c4.28-1.34,7.64-6.11,6.07-10.7-4.35-12.77-19.7-13.58-31-11.06-5.74,1.28-11.94,3.84-13.63,10-2,7.27,4.33,12.11,10.35,14.1,5.56,1.83,12.38,2.82,18.16,1.54,6.56-1.45,9.4-7.95,7.51-14.11-3.93-12.78-18.38-16-30.15-15-9.62.87-32.9,6.68-23.14,20.93,3,4.33,8.24,7,12.85,9.17a137.85,137.85,0,0,0,18.92,7.33c11.57,3.49,25.25,5.3,34.55-4.26,8.53-8.77,6.33-22.75-1-31.43-8.84-10.44-23-11.89-35.72-10.34s-24.19,6.37-32,17c-2.78,3.79-.63,9.7,3.12,11.9,4.41,2.58,9.11.68,11.9-3.12h0Z" transform="translate(-47.12 -512.53)"/></g><g id="_Gruppo_11" data-name="&lt;Gruppo&gt;"><path id="_Tracciato_15" data-name="&lt;Tracciato&gt;" class="cls-8" d="M240.11,769.43c-4,.24-12.07-3.07-11.53-7.86,0.64-5.72,11.61-7.34,15.87-7.66a34.21,34.21,0,0,1,9.64.56,27.23,27.23,0,0,1,8.37,3.37c6.87,4.18,10.45,10.4,9.44,16.38a8.16,8.16,0,0,1-5,6.39c-3.21,1.39-15.35,2.45-15.24-6.27" transform="translate(-47.12 -512.53)"/><path id="_Tracciato_16" data-name="&lt;Tracciato&gt;" class="cls-8" d="M259.16,771.23a14.42,14.42,0,0,0-9.44,4.36c-2.19,2.15-3.88,4.56-6.91,6.26-2.39,1.34-5.22,1.34-7.87,1s-5.51-.51-7.95-1.77c-2.08-1.07-4.05-3.28-1.6-5.17,2.09-1.61,5-2.17,7.53-2.82a24.83,24.83,0,0,0,7.63-2.9c3-2,6.1-6.64,1.19-7.47" transform="translate(-47.12 -512.53)"/></g><g id="_Gruppo_12" data-name="&lt;Gruppo&gt;"><path id="_Tracciato_17" data-name="&lt;Tracciato&gt;" class="cls-7" d="M388.26,769.4c-9.9-7.55-21.22-12.18-33.49-7.29-10.82,4.31-21.06,16.19-17.1,28.53A15.45,15.45,0,0,0,352,801.48c7.1,0.06,11.39-4.87,16.47-8.9,4.23-3.36,6.24-2.78,10.33.15,4.87,3.48,9.25,5.92,15.36,6.4,4.91,0.39,9.75-4.66,9.48-9.48a24.7,24.7,0,0,0-21.12-23.2c-12.46-2-23.61,4.11-32.65,12.15-4.16,3.71-8.09,8.12-8.38,14a13.7,13.7,0,0,0,10.27,14.2c6.29,1.57,11.3-1.62,16.42-4.67a43.81,43.81,0,0,1,15.65-5.42c10.7-1.76,7.93-18.67-2.52-18.61-6.4,0-12.07,1.84-17.88,4.37-2.41,1-10,5.74-11.92,5.06l4.18,2.44c0.69,0.59-.75,2,0-0.57a10.34,10.34,0,0,1,.4-1.44c0.71-1.56,1.76-2,3.33-2.76,4.65-2.14,5.8-8.86,3.4-13-2.79-4.78-8.3-5.54-13-3.4-12.08,5.54-18.61,24.8-7.55,34.53,11.81,10.38,26.55-6.24,39-6.31l-2.52-18.61A59,59,0,0,0,364,783a52.84,52.84,0,0,0-6.15,3.24,14.13,14.13,0,0,0-2.49,1.59c-1.47,1.49-.74-1.14,1.3.41l3.4,3.4c1.69,2.74-1.19,4.43,1.94,1.51,1.14-1.07,2.3-2.13,3.54-3.09a24.77,24.77,0,0,1,8.6-4.59c3.47-.92,10.24-0.73,10.52,4.19l9.48-9.48c-2.18-.17-5.15-3.41-6.92-4.62a25.13,25.13,0,0,0-9.84-4.18c-9.38-1.63-17.42,3.34-24.1,9.4q-0.82.78-1.68,1.52-1.63.81,1.5,0.37c7.4,4.44.87,2.68,3.18,1.46-0.71.37,2.46-2.85,2-2.39a11.18,11.18,0,0,1,2.87-1.87c6.73-2.93,12.48,2,17.59,5.9,4.07,3.11,10.61.63,13-3.4,2.85-4.87.68-9.85-3.4-13h0Z" transform="translate(-47.12 -512.53)"/></g><g id="_Gruppo_13" data-name="&lt;Gruppo&gt;"><g id="_Gruppo_14" data-name="&lt;Gruppo&gt;"><path id="_Tracciato_18" data-name="&lt;Tracciato&gt;" class="cls-3" d="M236.82,767.88c-2.91,0-8.32-1.35-9.57-4.41-1.69-4.13,3.81-6,6.65-6.75,7.07-2,15.23-2.06,21.95,1.1a21.63,21.63,0,0,1,9.65,8.33c2.55,4.39,2.65,10.87-2.75,13.15-4.49,1.9-12.52.93-12.8-4.95-0.1-2-3.21-2-3.11,0,0.42,8.46,10.45,10.47,17.21,7.77,4.79-1.92,6.79-6.85,6.14-11.75-0.79-6-5.25-10.82-10.24-13.86-8.76-5.34-24.43-6.6-33.1,0-8.84,6.73,2.94,14.48,10,14.47a1.56,1.56,0,0,0,0-3.11h0Z" transform="translate(-47.12 -512.53)"/></g><g id="_Gruppo_15" data-name="&lt;Gruppo&gt;"><path id="_Tracciato_19" data-name="&lt;Tracciato&gt;" class="cls-3" d="M255.87,769.67c-6.23.67-9.39,4-13.68,8.12-4,3.81-8.42,4.13-13.58,3.14a12.74,12.74,0,0,1-4.12-1.15q-2.17-3.73,1.64-4.1c1.27-.45,2.62-0.7,3.92-1,4.39-1.16,9.94-2.79,12-7.37,1.35-3.06-.11-5.16-3.14-6a1.56,1.56,0,0,0-.83,3c3.46,1-1.62,4.64-2.28,5a24.45,24.45,0,0,1-6.54,2.33c-2.26.6-4.77,1-6.8,2.25-3.26,2-4,5.3-.71,7.81,4,3.05,12.06,3.82,16.73,2.3,7.11-2.31,9.32-10.35,17.42-11.22,2-.21,2-3.32,0-3.11h0Z" transform="translate(-47.12 -512.53)"/></g></g><g id="_Gruppo_16" data-name="&lt;Gruppo&gt;"><g id="_Gruppo_17" data-name="&lt;Gruppo&gt;"><path id="_Tracciato_20" data-name="&lt;Tracciato&gt;" class="cls-5" d="M158.27,773.08a2.29,2.29,0,0,0-2.16,2.2,3.4,3.4,0,0,0,1.86,2.27c2.47,1.54,6,2.56,6.64,5a3.91,3.91,0,0,1-1.7,3.95,7.23,7.23,0,0,1-5.19,1.32c-2.78-.41-4.27-2.46-5.72-4.23s-3.63-3.59-6.55-3.23" transform="translate(-47.12 -512.53)"/><path id="_Tracciato_21" data-name="&lt;Tracciato&gt;" class="cls-5" d="M148.64,782.74c-0.68,2.19-3.12,4.17-6,4.86s-6,0-7.61-1.6a7,7,0,0,1-1.71-3.2,9.09,9.09,0,0,1,1.12-8.05c2-2.75,5.81-4.54,9.52-5.92a37.4,37.4,0,0,1,11.18-2.62c3.6-.16,11.47,1,11.16,6.1-0.17,3-4.91,5.63-7.64,4.85" transform="translate(-47.12 -512.53)"/></g><g id="_Gruppo_18" data-name="&lt;Gruppo&gt;"><path id="_Tracciato_22" data-name="&lt;Tracciato&gt;" class="cls-3" d="M161.27,772c-1.63.45-3.2,1.63-2.93,3.56,0.36,2.57,3.64,3.49,5.49,4.61,1.42,0.86,3.73,1.64,2.73,4.32-0.51,1.37-3.17,2.3-4.46,2.31-3,0-4.31-2.05-6-4-2-2.28-4.2-3.62-7.33-3.55a1.1,1.1,0,0,0,0,2.2c5.16-.12,6.3,5.4,10.59,7A8,8,0,0,0,167,787.3c1.79-1.48,2.75-3.91,1.55-6.05a7.05,7.05,0,0,0-2.3-2.23,28.74,28.74,0,0,0-2.65-1.45c-0.41-.22-4.74-2.59-1.72-3.43a1.1,1.1,0,0,0-.59-2.13h0Z" transform="translate(-47.12 -512.53)"/></g><g id="_Gruppo_19" data-name="&lt;Gruppo&gt;"><path id="_Tracciato_23" data-name="&lt;Tracciato&gt;" class="cls-3" d="M151,782.19c-3.59,8-15.93,4.42-13.43-4.51,1.41-5,8-7.17,12.35-8.59A27.3,27.3,0,0,1,161,767.39c1.59,0.16,3.93.49,5.27,1.46,4.22,3,.2,7.84-4,7.26-1.39-.19-2,1.93-0.59,2.13,4.85,0.67,11.72-4.11,8-9.32-4.54-6.39-16.19-3.48-21.95-1.42-7.34,2.63-15.65,7.82-11.74,16.88,3.1,7.17,14,5.3,16.87-1.07,0.58-1.28-1.32-2.41-1.9-1.11h0Z" transform="translate(-47.12 -512.53)"/></g></g><g id="_Gruppo_20" data-name="&lt;Gruppo&gt;"><g id="_Gruppo_21" data-name="&lt;Gruppo&gt;"><path id="_Tracciato_24" data-name="&lt;Tracciato&gt;" class="cls-5" d="M182,699.77a1.61,1.61,0,0,0-1.52,1.55,2.39,2.39,0,0,0,1.31,1.6c1.74,1.08,4.2,1.8,4.67,3.53a2.75,2.75,0,0,1-1.19,2.78,5.08,5.08,0,0,1-3.65.93c-2-.29-3-1.73-4-3a5.19,5.19,0,0,0-4.61-2.27" transform="translate(-47.12 -512.53)"/><path id="_Tracciato_25" data-name="&lt;Tracciato&gt;" class="cls-5" d="M175.26,706.57a5.79,5.79,0,0,1-4.2,3.42,6,6,0,0,1-5.35-1.12,4.91,4.91,0,0,1-1.2-2.25,6.39,6.39,0,0,1,.78-5.66c1.41-1.94,4.08-3.19,6.69-4.16a26.29,26.29,0,0,1,7.86-1.84c2.53-.11,8.06.68,7.85,4.29-0.12,2.08-3.45,4-5.38,3.41" transform="translate(-47.12 -512.53)"/></g><g id="_Gruppo_22" data-name="&lt;Gruppo&gt;"><path id="_Tracciato_26" data-name="&lt;Tracciato&gt;" class="cls-3" d="M184.14,699c-1.15.32-2.25,1.15-2.06,2.5,0.25,1.8,2.56,2.45,3.86,3.24,1,0.61,2.63,1.15,1.92,3-0.36,1-2.23,1.62-3.13,1.62-2.09,0-3-1.44-4.23-2.79a6.33,6.33,0,0,0-5.15-2.49,0.78,0.78,0,0,0,0,1.55c3.63-.09,4.43,3.79,7.45,4.95a5.62,5.62,0,0,0,5.37-.86,3.39,3.39,0,0,0,1.09-4.26,5,5,0,0,0-1.62-1.57,20.21,20.21,0,0,0-1.87-1c-0.29-.15-3.33-1.82-1.21-2.41a0.78,0.78,0,0,0-.41-1.49h0Z" transform="translate(-47.12 -512.53)"/></g><g id="_Gruppo_23" data-name="&lt;Gruppo&gt;"><path id="_Tracciato_27" data-name="&lt;Tracciato&gt;" class="cls-3" d="M176.9,706.18a6.59,6.59,0,0,1-5,3.22c-6.51.7-4.08-7.69-1.93-9.52s5.11-2.68,7.66-3.36a18.6,18.6,0,0,1,6.2-.75,6.84,6.84,0,0,1,3.7,1.09q2.39,0.63-.06,2.77-0.25,2.92-2.79,2.25c-1-.1-1,1.45,0,1.55,3.34,0.34,7.79-2.83,5.52-6.44-3.07-4.89-12-2.45-16.07-.95-4.94,1.85-10.83,6-7.53,12.06,2.53,4.66,9.65,3.13,11.68-1.14,0.43-.9-0.91-1.68-1.34-0.78h0Z" transform="translate(-47.12 -512.53)"/></g></g><g id="_Gruppo_24" data-name="&lt;Gruppo&gt;"><path id="_Tracciato_28" data-name="&lt;Tracciato&gt;" class="cls-9" d="M130.11,701.17c-10.47-.45-21.66.77-28.58,7.42q-0.56.54-1.07,1.12c-6.5,7.38,7.38,10,11.75,10.89,10.09,2.05,20.06,1.39,30.2-.24,4.46-.71,11.69-2.31,14.23-6.54,4.85-8.05-7.13-10.53-12.63-11.29C139.89,702,135.08,701.38,130.11,701.17Z" transform="translate(-47.12 -512.53)"/><g id="_Gruppo_25" data-name="&lt;Gruppo&gt;"><path id="_Tracciato_29" data-name="&lt;Tracciato&gt;" class="cls-3" d="M133.22,698.3c-7.37-.25-15.16.07-22,3.24-3.37,1.57-9.78,5.34-9.15,10,1.16,8.55,22.14,8.76,27.44,8.71,6.89-.06,32.51-0.28,31.24-12.61-1-9.41-21.53-9-27.57-9.33-1.36-.07-1.35,2,0,2.11A118.35,118.35,0,0,1,148.4,702c3,0.55,8.49,1.47,9.93,4.6,4.76,10.4-24.51,11.46-28.77,11.5a67.19,67.19,0,0,1-15.28-1.61c-2.74-.61-6.92-1.28-8.88-3.46-4.54-5,7.36-10.09,10.89-11.13,5.47-1.61,11.29-1.71,16.94-1.52A1.06,1.06,0,0,0,133.22,698.3Z" transform="translate(-47.12 -512.53)"/></g><path id="_Tracciato_30" data-name="&lt;Tracciato&gt;" class="cls-10" d="M122.81,711.5c-1.72-.1-3.55.16-4.69,1.58l-0.18.24c-1.07,1.57,1.21,2.13,1.93,2.32a10.57,10.57,0,0,0,5-.05,3.21,3.21,0,0,0,2.33-1.39c0.79-1.72-1.17-2.25-2.07-2.41A19,19,0,0,0,122.81,711.5Z" transform="translate(-47.12 -512.53)"/><path id="_Tracciato_31" data-name="&lt;Tracciato&gt;" class="cls-10" d="M134.91,711.07a3.56,3.56,0,0,0-3.16,1.08l-0.12.16c-0.72,1.08.82,1.46,1.3,1.59a7,7,0,0,0,3.34,0,2.16,2.16,0,0,0,1.57-1c0.54-1.17-.79-1.54-1.39-1.65A12.61,12.61,0,0,0,134.91,711.07Z" transform="translate(-47.12 -512.53)"/><path id="_Tracciato_32" data-name="&lt;Tracciato&gt;" class="cls-10" d="M113,708.63a3.38,3.38,0,0,0-3,1l-0.11.15c-0.68,1,.77,1.36,1.22,1.49a6.68,6.68,0,0,0,3.15,0,2,2,0,0,0,1.48-.89c0.51-1.1-.74-1.44-1.32-1.54A12,12,0,0,0,113,708.63Z" transform="translate(-47.12 -512.53)"/><path id="_Tracciato_33" data-name="&lt;Tracciato&gt;" class="cls-10" d="M121.78,704.4a3,3,0,0,0-2.94,1.2l-0.11.18c-0.67,1.19.76,1.62,1.21,1.76a5.52,5.52,0,0,0,3.11,0,2,2,0,0,0,1.46-1.06c0.5-1.3-.73-1.7-1.3-1.83A10,10,0,0,0,121.78,704.4Z" transform="translate(-47.12 -512.53)"/><path id="_Tracciato_34" data-name="&lt;Tracciato&gt;" class="cls-10" d="M129.06,708a1.47,1.47,0,0,0-1.56.81l-0.06.12a0.85,0.85,0,0,0,.64,1.18,2.36,2.36,0,0,0,1.65,0,1.1,1.1,0,0,0,.78-0.71,0.89,0.89,0,0,0-.69-1.23A4.3,4.3,0,0,0,129.06,708Z" transform="translate(-47.12 -512.53)"/><path id="_Tracciato_35" data-name="&lt;Tracciato&gt;" class="cls-10" d="M130.28,702a3.79,3.79,0,0,0-3.47,1.26l-0.13.19c-0.79,1.25.89,1.69,1.42,1.84a7.3,7.3,0,0,0,3.66,0,2.35,2.35,0,0,0,1.73-1.11c0.59-1.36-.87-1.78-1.53-1.91A13.13,13.13,0,0,0,130.28,702Z" transform="translate(-47.12 -512.53)"/><path id="_Tracciato_36" data-name="&lt;Tracciato&gt;" class="cls-10" d="M153.1,706.63a3.38,3.38,0,0,0-3,1l-0.11.15c-0.68,1,.77,1.36,1.22,1.49a6.68,6.68,0,0,0,3.15,0,2,2,0,0,0,1.48-.89c0.51-1.1-.74-1.44-1.32-1.54A12,12,0,0,0,153.1,706.63Z" transform="translate(-47.12 -512.53)"/><path id="_Tracciato_37" data-name="&lt;Tracciato&gt;" class="cls-10" d="M140,706.95c-1.6-.07-3.3.12-4.35,1.2l-0.16.18c-1,1.19,1.12,1.62,1.79,1.76a12,12,0,0,0,4.6,0,3.16,3.16,0,0,0,2.17-1.06c0.74-1.3-1.09-1.7-1.92-1.83C141.52,707.08,140.79,707,140,706.95Z" transform="translate(-47.12 -512.53)"/><path id="_Tracciato_38" data-name="&lt;Tracciato&gt;" class="cls-10" d="M146.18,704.34a2.38,2.38,0,0,0-2.2.81l-0.08.12c-0.5.8,0.57,1.09,0.9,1.18a4.57,4.57,0,0,0,2.32,0,1.49,1.49,0,0,0,1.09-.71c0.37-.88-0.55-1.14-1-1.23A8.22,8.22,0,0,0,146.18,704.34Z" transform="translate(-47.12 -512.53)"/><path id="_Tracciato_39" data-name="&lt;Tracciato&gt;" class="cls-10" d="M145.3,712.19a2.8,2.8,0,0,0-2.43.81l-0.09.12c-0.55.8,0.63,1.09,1,1.18a5.59,5.59,0,0,0,2.57,0,1.67,1.67,0,0,0,1.21-.71c0.41-.88-0.61-1.14-1.08-1.23A10,10,0,0,0,145.3,712.19Z" transform="translate(-47.12 -512.53)"/><g id="_Gruppo_26" data-name="&lt;Gruppo&gt;"><path id="_Tracciato_40" data-name="&lt;Tracciato&gt;" class="cls-3" d="M102.08,711.43c0.43,12.42,23.47,12.14,31.32,11.7,9.63-.54,27.21-2,26.95-15.31a1.06,1.06,0,0,0-2.11,0c0.23,11.83-16.59,12.73-24.84,13.2-6.33.36-28.84,0.94-29.21-9.59a1.06,1.06,0,0,0-2.11,0h0Z" transform="translate(-47.12 -512.53)"/></g></g><g id="_Gruppo_27" data-name="&lt;Gruppo&gt;"><path id="_Tracciato_41" data-name="&lt;Tracciato&gt;" class="cls-11" d="M267.85,800.27c-16.64-.72-34.41,1.23-45.41,11.79q-0.89.85-1.7,1.78c-10.32,11.73,11.73,15.9,18.67,17.31,16,3.26,31.88,2.2,48-.37,7.08-1.13,18.57-3.67,22.61-10.38,7.7-12.8-11.34-16.73-20.06-17.94C283.39,801.55,275.75,800.61,267.85,800.27Z" transform="translate(-47.12 -512.53)"/><g id="_Gruppo_28" data-name="&lt;Gruppo&gt;"><path id="_Tracciato_42" data-name="&lt;Tracciato&gt;" class="cls-3" d="M272.79,795.72c-15.78-.59-35.92.64-46.79,13.94-8,9.74,4.4,15.33,12.49,17.45,17.89,4.68,36.45,4,54.54.93,6.44-1.1,13.7-2.76,18.75-7.18,3.62-3.16,6.3-8.62,3.95-13.29-2.66-5.26-9.7-7.33-15-8.55-9.09-2.1-18.69-2.83-28-3.29-2.16-.11-2.15,3.25,0,3.36a206.4,206.4,0,0,1,22.38,2.27c4.42,0.71,9.11,1.63,13.08,3.78,5.6,3,6.54,8.33,1.62,13-4.29,4-11,5.47-16.62,6.51-15.86,2.92-32.36,3.77-48.23.54-5.54-1.13-23-4.22-16.82-12.84,9.42-13.12,30.15-13.77,44.59-13.23C275,799.16,274.95,795.8,272.79,795.72Z" transform="translate(-47.12 -512.53)"/></g><path id="_Tracciato_43" data-name="&lt;Tracciato&gt;" class="cls-10" d="M256.26,816.69c-2.73-.15-5.64.26-7.44,2.51-0.1.12-.19,0.25-0.28,0.38-1.69,2.5,1.92,3.39,3.06,3.69a16.8,16.8,0,0,0,7.87-.08c1.16-.24,3-0.78,3.71-2.21,1.26-2.73-1.86-3.57-3.29-3.82A30.16,30.16,0,0,0,256.26,816.69Z" transform="translate(-47.12 -512.53)"/><path id="_Tracciato_44" data-name="&lt;Tracciato&gt;" class="cls-10" d="M275.47,816c-1.84-.1-3.8.18-5,1.72l-0.19.26c-1.14,1.71,1.3,2.32,2.06,2.52a11.15,11.15,0,0,0,5.3-.05,3.43,3.43,0,0,0,2.5-1.51c0.85-1.87-1.25-2.44-2.22-2.62A20,20,0,0,0,275.47,816Z" transform="translate(-47.12 -512.53)"/><path id="_Tracciato_45" data-name="&lt;Tracciato&gt;" class="cls-10" d="M240.7,812.12c-1.73-.1-3.59.17-4.73,1.61l-0.18.24c-1.08,1.6,1.22,2.17,1.95,2.36a10.61,10.61,0,0,0,5-.05,3.24,3.24,0,0,0,2.36-1.42c0.8-1.74-1.18-2.28-2.09-2.45A19.06,19.06,0,0,0,240.7,812.12Z" transform="translate(-47.12 -512.53)"/><path id="_Tracciato_46" data-name="&lt;Tracciato&gt;" class="cls-10" d="M254.61,805.4a4.8,4.8,0,0,0-4.67,1.91l-0.17.29c-1.06,1.9,1.21,2.57,1.92,2.8a8.77,8.77,0,0,0,4.93-.06,3.16,3.16,0,0,0,2.32-1.68c0.79-2.07-1.17-2.71-2.06-2.9A15.83,15.83,0,0,0,254.61,805.4Z" transform="translate(-47.12 -512.53)"/><path id="_Tracciato_47" data-name="&lt;Tracciato&gt;" class="cls-10" d="M266.19,811.2a2.34,2.34,0,0,0-2.49,1.28l-0.09.19a1.35,1.35,0,0,0,1,1.88,3.74,3.74,0,0,0,2.63,0,1.75,1.75,0,0,0,1.24-1.13,1.42,1.42,0,0,0-1.1-1.95A6.82,6.82,0,0,0,266.19,811.2Z" transform="translate(-47.12 -512.53)"/><path id="_Tracciato_48" data-name="&lt;Tracciato&gt;" class="cls-10" d="M268.13,801.52c-2-.12-4.17.21-5.51,2l-0.21.3c-1.25,2,1.42,2.69,2.26,2.93a11.6,11.6,0,0,0,5.82-.06,3.74,3.74,0,0,0,2.74-1.76c0.93-2.17-1.37-2.83-2.43-3A20.86,20.86,0,0,0,268.13,801.52Z" transform="translate(-47.12 -512.53)"/><path id="_Tracciato_49" data-name="&lt;Tracciato&gt;" class="cls-10" d="M304.38,809c-1.73-.1-3.59.17-4.73,1.61l-0.18.24c-1.08,1.6,1.22,2.17,1.95,2.36a10.61,10.61,0,0,0,5-.05,3.24,3.24,0,0,0,2.36-1.42c0.8-1.74-1.18-2.28-2.09-2.45A19.06,19.06,0,0,0,304.38,809Z" transform="translate(-47.12 -512.53)"/><path id="_Tracciato_50" data-name="&lt;Tracciato&gt;" class="cls-10" d="M283.61,809.45c-2.53-.12-5.24.2-6.92,1.91l-0.26.29c-1.57,1.9,1.79,2.57,2.84,2.8a19,19,0,0,0,7.31-.06c1.08-.18,2.83-0.59,3.44-1.68,1.17-2.07-1.73-2.71-3.05-2.9C286,809.66,284.82,809.51,283.61,809.45Z" transform="translate(-47.12 -512.53)"/><path id="_Tracciato_51" data-name="&lt;Tracciato&gt;" class="cls-10" d="M293.38,805.31a3.79,3.79,0,0,0-3.49,1.28l-0.13.19c-0.79,1.27.9,1.73,1.43,1.88a7.26,7.26,0,0,0,3.69,0,2.37,2.37,0,0,0,1.74-1.13c0.59-1.39-.87-1.82-1.54-1.95A13.07,13.07,0,0,0,293.38,805.31Z" transform="translate(-47.12 -512.53)"/><path id="_Tracciato_52" data-name="&lt;Tracciato&gt;" class="cls-10" d="M292,817.79a4.45,4.45,0,0,0-3.87,1.28l-0.14.19c-0.88,1.27,1,1.73,1.59,1.88a8.89,8.89,0,0,0,4.09,0,2.66,2.66,0,0,0,1.93-1.13c0.66-1.39-1-1.82-1.71-1.95A16,16,0,0,0,292,817.79Z" transform="translate(-47.12 -512.53)"/><g id="_Gruppo_29" data-name="&lt;Gruppo&gt;"><path id="_Tracciato_53" data-name="&lt;Tracciato&gt;" class="cls-3" d="M223.33,816.58c0,8,7.44,12.26,14.14,14.69,11,4,23.32,4.53,34.85,3.94,15-.76,44.42-3,43.58-24.36-0.08-2.15-3.44-2.16-3.36,0,0.74,19-27.31,20.35-40.23,21-9.9.51-20.12,0.07-29.74-2.51-6.24-1.67-15.87-5-15.9-12.77a1.68,1.68,0,0,0-3.36,0h0Z" transform="translate(-47.12 -512.53)"/></g></g><g id="_Gruppo_30" data-name="&lt;Gruppo&gt;"><path id="_Tracciato_54" data-name="&lt;Tracciato&gt;" class="cls-11" d="M237.43,680.61c16.73-.72,34.6,1.23,45.66,11.82q0.89,0.85,1.71,1.78C295.18,706,273,710.15,266,711.57c-16.12,3.27-32,2.21-48.24-.38-7.12-1.14-18.67-3.68-22.73-10.41-7.74-12.83,11.4-16.78,20.17-18C221.81,681.89,229.49,681,237.43,680.61Z" transform="translate(-47.12 -512.53)"/><g id="_Gruppo_31" data-name="&lt;Gruppo&gt;"><path id="_Tracciato_55" data-name="&lt;Tracciato&gt;" class="cls-3" d="M234.37,680.1c13.26-.5,28.5.17,39.35,8.81,4.2,3.35,8.21,8.09,2.38,11.83-3.47,2.23-7.75,3.25-11.73,4.15-14.57,3.31-29.35,3.12-44.08,1-6.11-.87-12.5-1.83-18.07-4.63-4.62-2.32-10.24-8.36-5.43-13.21,3.45-3.48,9.38-4.62,14-5.47a180,180,0,0,1,23.56-2.51c2.1-.1,2.11-3.38,0-3.27a175.54,175.54,0,0,0-25.36,2.8c-4.86,1-10.47,2.39-14.23,5.84s-3.9,8.35-1.27,12.59c3.4,5.49,10.3,7.85,16.25,9.29a123.71,123.71,0,0,0,54.29,1c6.43-1.39,21.77-4.88,18-14.62-2.72-7-11.64-11.43-18.24-13.68-9.39-3.19-19.59-3.56-29.42-3.19C232.27,676.9,232.26,680.18,234.37,680.1Z" transform="translate(-47.12 -512.53)"/></g><path id="_Tracciato_56" data-name="&lt;Tracciato&gt;" class="cls-12" d="M250.49,697.27c2.66-.15,5.5.25,7.26,2.45,0.09,0.12.19,0.24,0.27,0.37,1.65,2.44-1.87,3.3-3,3.6a16.38,16.38,0,0,1-7.67-.08c-1.13-.24-3-0.76-3.61-2.16-1.23-2.66,1.81-3.48,3.21-3.73A29.41,29.41,0,0,1,250.49,697.27Z" transform="translate(-47.12 -512.53)"/><path id="_Tracciato_57" data-name="&lt;Tracciato&gt;" class="cls-12" d="M236.78,681.42c2-.12,4.07.2,5.37,1.95l0.2,0.29c1.22,1.94-1.39,2.62-2.21,2.86a11.31,11.31,0,0,1-5.67-.06,3.64,3.64,0,0,1-2.67-1.71c-0.91-2.11,1.34-2.76,2.37-3A20.34,20.34,0,0,1,236.78,681.42Z" transform="translate(-47.12 -512.53)"/><path id="_Tracciato_58" data-name="&lt;Tracciato&gt;" class="cls-12" d="M231.76,696c1.79-.1,3.71.17,4.89,1.68l0.18,0.25c1.11,1.67-1.26,2.26-2,2.46a10.87,10.87,0,0,1-5.17-.05,3.34,3.34,0,0,1-2.43-1.48c-0.83-1.82,1.22-2.38,2.16-2.55A19.54,19.54,0,0,1,231.76,696Z" transform="translate(-47.12 -512.53)"/><path id="_Tracciato_59" data-name="&lt;Tracciato&gt;" class="cls-12" d="M265.67,692.81c1.69-.1,3.5.16,4.61,1.57l0.17,0.24c1,1.56-1.19,2.11-1.9,2.3a10.35,10.35,0,0,1-4.88,0,3.16,3.16,0,0,1-2.3-1.38c-0.78-1.7,1.15-2.23,2-2.39A18.59,18.59,0,0,1,265.67,692.81Z" transform="translate(-47.12 -512.53)"/><path id="_Tracciato_60" data-name="&lt;Tracciato&gt;" class="cls-12" d="M202.63,689.72c1.69-.1,3.5.16,4.61,1.57l0.17,0.24c1,1.56-1.19,2.11-1.9,2.3a10.35,10.35,0,0,1-4.88,0,3.16,3.16,0,0,1-2.3-1.38c-0.78-1.7,1.15-2.23,2-2.39A18.59,18.59,0,0,1,202.63,689.72Z" transform="translate(-47.12 -512.53)"/><path id="_Tracciato_61" data-name="&lt;Tracciato&gt;" class="cls-12" d="M252.1,686.26a4.68,4.68,0,0,1,4.55,1.86l0.17,0.28c1,1.85-1.18,2.51-1.87,2.73a8.55,8.55,0,0,1-4.81-.06,3.08,3.08,0,0,1-2.27-1.64c-0.77-2,1.14-2.64,2-2.83A15.43,15.43,0,0,1,252.1,686.26Z" transform="translate(-47.12 -512.53)"/><path id="_Tracciato_62" data-name="&lt;Tracciato&gt;" class="cls-12" d="M222.87,688.52c2.47-.11,5.11.19,6.74,1.86l0.25,0.28c1.53,1.85-1.74,2.51-2.77,2.73a18.55,18.55,0,0,1-7.12-.06c-1.05-.18-2.76-0.58-3.36-1.64-1.14-2,1.68-2.64,3-2.83C220.57,688.72,221.7,688.57,222.87,688.52Z" transform="translate(-47.12 -512.53)"/><path id="_Tracciato_63" data-name="&lt;Tracciato&gt;" class="cls-12" d="M240.81,691.91a2.28,2.28,0,0,1,2.42,1.25l0.09,0.19a1.32,1.32,0,0,1-1,1.83,3.65,3.65,0,0,1-2.56,0,1.71,1.71,0,0,1-1.21-1.1,1.38,1.38,0,0,1,1.07-1.9A6.65,6.65,0,0,1,240.81,691.91Z" transform="translate(-47.12 -512.53)"/><g id="_Gruppo_32" data-name="&lt;Gruppo&gt;"><path id="_Tracciato_64" data-name="&lt;Tracciato&gt;" class="cls-3" d="M213.35,685.49a5,5,0,0,1,1.76.16c0.69,0.23,2.18,1.11,1.16,2a4.48,4.48,0,0,1-2.59.54c-0.58,0-3.77-.27-3.23-1.73,0.33-.91,2.19-0.95,2.9-1,0.47,0,.48-0.79,0-0.75-1.18.1-3.56,0.22-3.66,1.85-0.11,2,2.58,2.34,4,2.38,1.08,0,3.5-.21,3.75-1.63,0.35-2-2.71-2.65-4.08-2.6A0.37,0.37,0,0,0,213.35,685.49Z" transform="translate(-47.12 -512.53)"/></g><g id="_Gruppo_33" data-name="&lt;Gruppo&gt;"><path id="_Tracciato_65" data-name="&lt;Tracciato&gt;" class="cls-3" d="M214.72,697c1,0,3.12,0,3.57,1.24s-1.94,1.41-2.63,1.45a8.37,8.37,0,0,1-2.46-.23c-0.83-.21-1.06-0.17-1.22-1.12s0-.89.79-1.08a12.07,12.07,0,0,1,1.95-.26c0.5,0,.5-0.82,0-0.79-1.19.09-3.94,0.15-4,1.87-0.13,2.15,3.27,2.41,4.69,2.4,1.07,0,3.75-.25,3.86-1.77,0.15-2.09-3.1-2.55-4.52-2.5A0.39,0.39,0,0,0,214.72,697Z" transform="translate(-47.12 -512.53)"/></g><g id="_Gruppo_34" data-name="&lt;Gruppo&gt;"><path id="_Tracciato_66" data-name="&lt;Tracciato&gt;" class="cls-3" d="M279.33,697.16c0,7.56-9.3,10.77-15.36,12.41-9.72,2.63-20.06,3-30.07,2.43-12.49-.73-39-2.19-38.28-20.43,0.08-2.11-3.19-2.1-3.27,0-0.8,20.57,27,22.85,41.56,23.7,11.32,0.66,23.41.18,34.24-3.55,6.75-2.33,14.42-6.5,14.46-14.56a1.64,1.64,0,0,0-3.27,0h0Z" transform="translate(-47.12 -512.53)"/></g></g><g id="_Gruppo_35" data-name="&lt;Gruppo&gt;"><g id="_Gruppo_36" data-name="&lt;Gruppo&gt;"><path id="_Tracciato_67" data-name="&lt;Tracciato&gt;" class="cls-3" d="M143.82,735.84a42.23,42.23,0,0,1,32.21-10c13.1,1.54,24.3,10.34,19.49,24.69-2.19,6.52-8.06,14.86-15.62,9.63-4.38-3-6.34-8.22-9.54-12.3-6.09-7.76-16-7.84-25.08-6.92-2,.2-2,3.31,0,3.11,9.39-1,18.3-.73,24.09,7.76,3.16,4.63,5.79,10.07,11.27,12.38,11.43,4.83,18.82-10.79,19.23-19.83,0.6-13.21-11.61-20.14-23.21-21.57a45.47,45.47,0,0,0-35,10.83c-1.52,1.3.68,3.49,2.2,2.2h0Z" transform="translate(-47.12 -512.53)"/></g><g id="_Gruppo_37" data-name="&lt;Gruppo&gt;"><path id="_Tracciato_68" data-name="&lt;Tracciato&gt;" class="cls-3" d="M144.45,750.12c12.67,2.08,23.39,10.38,35.65,13.84a1.56,1.56,0,0,0,.83-3c-12.24-3.45-23-11.76-35.65-13.84-2-.32-2.8,2.67-0.83,3h0Z" transform="translate(-47.12 -512.53)"/></g><g id="_Gruppo_38" data-name="&lt;Gruppo&gt;"><path id="_Tracciato_69" data-name="&lt;Tracciato&gt;" class="cls-3" d="M145.27,733.49c13-14.24,41.66-19.59,55.5-3.54,4.83,5.6,7,13.09,3.73,20-3.6,7.48-11.64,10.7-19.34,12.11-2,.36-1.13,3.36.83,3,8.68-1.58,17.45-5.55,21.4-13.95,3.38-7.19,1.77-15.16-2.88-21.42-14.31-19.3-46.7-14.46-61.43,1.65-1.35,1.47.84,3.68,2.2,2.2h0Z" transform="translate(-47.12 -512.53)"/></g><g id="_Gruppo_39" data-name="&lt;Gruppo&gt;"><path id="_Tracciato_70" data-name="&lt;Tracciato&gt;" class="cls-3" d="M156,736.59a6.35,6.35,0,0,1-.5-2.81c0-.27.53-3.63,1.64-2.69,0.41,0.35.13,2.49,0.11,3,0,1.21-.13,2.42-0.25,3.63-0.09.93,1.36,0.92,1.45,0,0.14-1.45,1.39-9.88-2.29-8.12-2.7,1.29-2.41,5.49-1.42,7.75,0.37,0.85,1.62.12,1.25-.73h0Z" transform="translate(-47.12 -512.53)"/></g><g id="_Gruppo_40" data-name="&lt;Gruppo&gt;"><path id="_Tracciato_71" data-name="&lt;Tracciato&gt;" class="cls-3" d="M164,738.06a17.05,17.05,0,0,1,5.26-5.85,4.26,4.26,0,0,1,1.34-.8c0.67,0.22-.86,1.69-1.08,1.95a20.7,20.7,0,0,1-3.12,2.83c-0.74.55,0,1.81,0.73,1.25,1-.72,8.29-6.9,4.18-7.66-1.5-.28-3.54,1.66-4.58,2.57a19,19,0,0,0-4,5,0.73,0.73,0,0,0,1.25.73h0Z" transform="translate(-47.12 -512.53)"/></g><g id="_Gruppo_41" data-name="&lt;Gruppo&gt;"><path id="_Tracciato_72" data-name="&lt;Tracciato&gt;" class="cls-3" d="M174,741.61a28.44,28.44,0,0,1,3.27-3c0.88-.65,2.5-1.94,3.61-1.83,1.7,0.17-1,2.46-1.6,2.89a15.56,15.56,0,0,1-3.52,1.83c-0.86.34-.48,1.74,0.39,1.4a15.06,15.06,0,0,0,5.21-3.09c0.91-.9,2.65-2.77,1.56-4.08s-3.3-.14-4.43.43a21.44,21.44,0,0,0-5.49,4.42,0.73,0.73,0,0,0,1,1h0Z" transform="translate(-47.12 -512.53)"/></g><g id="_Gruppo_42" data-name="&lt;Gruppo&gt;"><path id="_Tracciato_73" data-name="&lt;Tracciato&gt;" class="cls-3" d="M181.6,747.27a27.59,27.59,0,0,1,4.35-.42,4.89,4.89,0,0,1,1.63,0c1,0.41.51,0.8-.26,1.12-2.13.89-4.56,0.7-6.82,0.68a0.73,0.73,0,0,0,0,1.45,25.72,25.72,0,0,0,6-.35c1.24-.29,3.48-1,3.58-2.56,0.19-3.2-7.26-1.63-8.88-1.35-0.92.16-.53,1.56,0.39,1.4h0Z" transform="translate(-47.12 -512.53)"/></g></g><g id="_Gruppo_43" data-name="&lt;Gruppo&gt;"><g id="_Gruppo_44" data-name="&lt;Gruppo&gt;"><path id="_Tracciato_74" data-name="&lt;Tracciato&gt;" class="cls-3" d="M352.05,798c-1.56-9.91,2.37-20.06,11.74-24.29,10.12-4.57,22.36-3.33,27.82,7.34,2.2,4.3,5,16.48-3.7,14.06-4.24-1.18-5.84-5.26-10.73-5.16-3.58.07-7,1.92-9.81,4-1.52,1.12-2.91,2.39-4.38,3.57-2.85,2.28-9.36,6.16-10.94.5a1.56,1.56,0,0,0-3,.83c1.44,5.15,5.48,6.62,10.3,4.67,7.92-3.2,14-15.08,23.4-8.05,3.53,2.64,8.45,4.81,12.28,1.13s2.11-10.63.28-14.92c-5.52-12.94-18.74-16.29-31.31-11.41-11.77,4.57-16.86,16.41-15,28.58C349.36,800.84,352.36,800,352.05,798Z" transform="translate(-47.12 -512.53)"/></g><g id="_Gruppo_45" data-name="&lt;Gruppo&gt;"><path id="_Tracciato_75" data-name="&lt;Tracciato&gt;" class="cls-3" d="M353,800.65c-13.74-5.31-12.33-23.58-1.1-30.83,13-8.38,28.85-4.22,37.68,8,1.16,1.61,3.86.06,2.68-1.57-10.43-14.43-30.73-19.18-44.94-6.91-5.07,4.37-7.7,11.53-7.43,18.16,0.31,7.88,5.11,13.38,12.28,16.15,1.87,0.72,2.68-2.28.83-3h0Z" transform="translate(-47.12 -512.53)"/></g><g id="_Gruppo_46" data-name="&lt;Gruppo&gt;"><path id="_Tracciato_76" data-name="&lt;Tracciato&gt;" class="cls-3" d="M362,792.38a6,6,0,0,1-3.14-3.39c-0.15-.49-0.45-1.74-0.08-2.18s1.32-.13,1.76.1c1.5,0.76,2.46,2.41,3.21,3.84A0.73,0.73,0,0,0,365,790c-1-1.83-2.28-3.88-4.32-4.63a2.73,2.73,0,0,0-3,.43c-0.73.84-.57,2.33-0.32,3.32a7.28,7.28,0,0,0,3.87,4.5,0.73,0.73,0,0,0,.73-1.25h0Z" transform="translate(-47.12 -512.53)"/></g><g id="_Gruppo_47" data-name="&lt;Gruppo&gt;"><path id="_Tracciato_77" data-name="&lt;Tracciato&gt;" class="cls-3" d="M368.24,787a11.61,11.61,0,0,1-1.82-4.34c-0.09-.49-0.45-2-0.16-2.53a1,1,0,0,1,1.18-.21,2.21,2.21,0,0,1,.51.73,19.27,19.27,0,0,1,2,5.64,0.73,0.73,0,0,0,1.4-.39,25.7,25.7,0,0,0-1.57-4.83c-0.52-1.18-1.2-2.61-2.59-2.9-1.76-.37-2.38,1-2.4,2.5a12.52,12.52,0,0,0,2.19,7.05c0.51,0.77,1.77,0,1.25-.73h0Z" transform="translate(-47.12 -512.53)"/></g><g id="_Gruppo_48" data-name="&lt;Gruppo&gt;"><path id="_Tracciato_78" data-name="&lt;Tracciato&gt;" class="cls-3" d="M382.11,786.73a18.83,18.83,0,0,1,.79-3.34c0.22-.68.83-2.87,1.73-3,1.26-.17.86,2.51,0.7,3.09A6,6,0,0,1,383,787a0.73,0.73,0,0,0,.73,1.25,7.59,7.59,0,0,0,3.16-4.84c0.3-1.49.15-3.57-1.46-4.27-3.24-1.41-4.49,5.79-4.74,7.64-0.12.92,1.33,0.91,1.45,0h0Z" transform="translate(-47.12 -512.53)"/></g><g id="_Gruppo_49" data-name="&lt;Gruppo&gt;"><path id="_Tracciato_79" data-name="&lt;Tracciato&gt;" class="cls-3" d="M375.52,784.75a18.68,18.68,0,0,1-.67-3.59c-0.06-.72-0.35-2.73.34-3.25,1-.79,1.84,1.76,1.94,2.4a6.1,6.1,0,0,1-.82,4.27c-0.51.78,0.74,1.51,1.25,0.73a7.61,7.61,0,0,0,.9-5.73c-0.33-1.46-1.36-3.33-3.11-3.24-3.39.17-1.76,7-1.23,8.8a0.73,0.73,0,0,0,1.4-.39h0Z" transform="translate(-47.12 -512.53)"/></g><g id="_Gruppo_50" data-name="&lt;Gruppo&gt;"><path id="_Tracciato_80" data-name="&lt;Tracciato&gt;" class="cls-3" d="M358.72,803.64q10.2-3.09,20.55-5.6c1.94-.47,1.12-3.47-0.83-3q-10.35,2.51-20.55,5.6c-1.91.58-1.1,3.58,0.83,3h0Z" transform="translate(-47.12 -512.53)"/></g></g><g id="_Gruppo_51" data-name="&lt;Gruppo&gt;"><path id="_Tracciato_81" data-name="&lt;Tracciato&gt;" class="cls-13" d="M352.64,546.24a16.77,16.77,0,0,1-2.45,8.3c-1.38,2.22-3.86,3.95-4.58,6.55a7.1,7.1,0,0,0,1.89,6.47,7.92,7.92,0,0,0,3.53,1.84l1.54,0.21q2.14,0-.19-0.19l-2.66-3.47q0.65-1.29,0-.1a6.63,6.63,0,0,0-.56,1.16,12.2,12.2,0,0,0-1,3.16A8.12,8.12,0,0,0,350,576.9a9.29,9.29,0,0,0,4.78,2.68c2.91,0.78,3.51.83,5.48,3.27,3.43,4.26,7.34,2.71,11.77,1s8.14-3.85,8.29-9.13c0.08-2.75-1.89-4.67-4.26-5.59-4.46-1.73-5-5.22-4.84-9.58s0.56-8.54-.13-13c-1.14-7.35-12.32-4.23-11.18,3.08,1,6.45-1.44,12.83.75,19.24,2,5.84,6.8,9.26,12.32,11.41l-4.26-5.59c0.06-2.26,2.78-2.57-.5-1.78-0.91.22-2,1.16-2.88,1.27l4.1,1.7c-2.18-2.67-3.87-4.89-7.15-6.29-0.95-.4-3.35-1.59-4.44-1.2q-2.87-.77,1.59,3.86a12.72,12.72,0,0,0,1-2.09c1.15-2.75,1.56-6-.16-8.7-1.89-2.93-4.31-2.59-7.18-3.61l3.47,2.66-0.39-.82v5.85c2-3,4.29-5.27,5.75-8.69a30.1,30.1,0,0,0,2.28-10.62c0.34-7.46-11.26-7.44-11.6,0h0Z" transform="translate(-47.12 -512.53)"/></g><g id="_Gruppo_52" data-name="&lt;Gruppo&gt;"><g id="_Gruppo_53" data-name="&lt;Gruppo&gt;"><path id="_Tracciato_82" data-name="&lt;Tracciato&gt;" class="cls-14" d="M428.8,698.3c4.08-3.1,9.65-6.8,15.58-4.09,2.94,1.39,2.75,3.53,6.17,3.19s1.91-.64.23-2.18a40.24,40.24,0,0,0-3.74-3.12c-5-3.63-12.44-5.71-19.29-3.78a23.35,23.35,0,0,0-7.83,4c-1.49,1.11-3.35,3.52-5.18,4.1a84.33,84.33,0,0,1,9.32,5.14c-0.18-3.1,4.52-4.16,7.42-3.92a15.49,15.49,0,0,1,6.57,2.24c1.83,1,3.45,3.15,5.2,4,1.84,2.55,3.64,1.49,6.08-3.14l-0.81-.59c-1.14-1.56-4.37-2.9-6.27-3.75a38,38,0,0,0-13.93-3.36q-0.61,6.68-.91,13.37c10.82-.93,20.25,12,30,6.36,9.55-4.5,9.34-18.58-1.55-25-10.53-5.71-19.95,5.88-10.4,10.22a11.59,11.59,0,0,1,2.26,1.68c0.49,0.38.21,1.73,0.51,1.9q1.88-.54,3.81-1-1.27-.55-2.49-1.18c-1.4-.69-2.77-1.45-4.18-2.14-5.91-2.88-12.16-4.87-19.37-4.25-9.79,1.16-9.09,13.49-.6,13.38a26.06,26.06,0,0,1,13.35,3.86c3.56,2.17,7,4.29,11.32,3.7,10.07-1,11.57-11.55,5.21-18.57-6.75-7.57-18.83-13.59-31.56-10.42C412,688,406.46,697,408.54,705.14c0.83,3.27,5.7,5.58,9.2,4.44a34.41,34.41,0,0,0,10.7-5.81c1.48-1.11,3.1-2.71,5.16-2.68s4.13,1.91,5.5,3.07c3.43,2.87,6.6,5.5,11.15,6.17a13.83,13.83,0,0,0,12.55-4.78c5.73-6.71.5-17.62-9.46-22.5-12.32-6.16-25.71-2.55-34.69,4.83-3.6,2.89-4.52,6.81-1.41,9.64,2.63,2.35,8.28,3.21,11.57.79h0Z" transform="translate(-47.12 -512.53)"/></g><g id="_Gruppo_54" data-name="&lt;Gruppo&gt;"><g id="_Gruppo_55" data-name="&lt;Gruppo&gt;"><path id="_Tracciato_83" data-name="&lt;Tracciato&gt;" class="cls-3" d="M452.43,708.91c3-7.68,1.39-16.89-9.18-21.3-12.46-5.24-27.38-.14-29.44,10.74-1.4,7.89,3.84,13.12,11.63,7.81,3.92-2.46,5.11-3.4,9.21-1.81a20.55,20.55,0,0,1,4.94,3.35c1.68,1.33,3.29,2.87,5.29,3.68,3.37,1.38,5.79.54,7.54-2.47,0.73-1.25-1.51-2.27-2.2-1-2.72,5.27-9.2-2.48-11.35-3.71a14.89,14.89,0,0,0-7-2.92,9.43,9.43,0,0,0-6.23,1.62c-3.32,2-3.62,4.45-7.17,2-2.76-1.85-2.67-3.3-1.95-6.25,2-9.09,13.59-13.14,24.2-9.52,9.83,3.34,12.06,11.71,9.53,18.81C449.8,709.24,451.94,710.23,452.43,708.91Z" transform="translate(-47.12 -512.53)"/></g><g id="_Gruppo_56" data-name="&lt;Gruppo&gt;"><path id="_Tracciato_84" data-name="&lt;Tracciato&gt;" class="cls-3" d="M449.45,711.81c10.55-1.93,17.93-13.06,9-22.85-11.72-12.61-35.72-8.21-42.69,4.4-0.83,1.34,1.81,1.91,2.65.61,6.15-10.17,23.51-14.2,35.16-5.92,10.18,7.41,6.34,19.77-4.41,21.55-1.47.3-1.17,2.5,0.27,2.2h0Z" transform="translate(-47.12 -512.53)"/></g><g id="_Gruppo_57" data-name="&lt;Gruppo&gt;"><path id="_Tracciato_85" data-name="&lt;Tracciato&gt;" class="cls-3" d="M443.36,703.89a5.82,5.82,0,0,0,3.5-2.86,2.38,2.38,0,0,0,0-2.37,2.7,2.7,0,0,0-2.51-.56,6.55,6.55,0,0,0-3.88,3c-0.38.57,0.62,1.14,1,.57a6,6,0,0,1,2.9-2.52,1.62,1.62,0,0,1,1.5.08,1.92,1.92,0,0,1-.23,1.54,4.8,4.8,0,0,1-2.81,2.17c-0.69.26-.16,1.19,0.52,0.93h0Z" transform="translate(-47.12 -512.53)"/></g><g id="_Gruppo_58" data-name="&lt;Gruppo&gt;"><path id="_Tracciato_86" data-name="&lt;Tracciato&gt;" class="cls-3" d="M438.84,699.46a8.22,8.22,0,0,0,2.1-4.93,1.64,1.64,0,0,0-2.1-1.86,3.35,3.35,0,0,0-2.37,2,14.27,14.27,0,0,0-1.36,3.44c-0.16.65,1,.91,1.2,0.27a11.08,11.08,0,0,1,1.8-4c0.32-.4.48-0.73,1.1-0.49s0.41,1.07.29,1.64a7.79,7.79,0,0,1-1.72,3.35c-0.45.55,0.6,1.08,1.05,0.54h0Z" transform="translate(-47.12 -512.53)"/></g><g id="_Gruppo_59" data-name="&lt;Gruppo&gt;"><path id="_Tracciato_87" data-name="&lt;Tracciato&gt;" class="cls-3" d="M427.18,699.13c-0.31-1.28-2-6.29-4.8-4.88a2.3,2.3,0,0,0-.88,3.08,5.72,5.72,0,0,0,3.24,3.14c0.7,0.28,1.21-.68.51-1a4.6,4.6,0,0,1-2.3-2.05c-0.23-.41-0.94-2.3.26-2.37,0.76,0,1.5,1.38,1.73,1.79a10.61,10.61,0,0,1,1,2.39c0.18,0.63,1.4.51,1.23-.13h0Z" transform="translate(-47.12 -512.53)"/></g><g id="_Gruppo_60" data-name="&lt;Gruppo&gt;"><path id="_Tracciato_88" data-name="&lt;Tracciato&gt;" class="cls-3" d="M432.71,697.62c0.38-1.31,1.77-6.21-1.37-6.2a2.88,2.88,0,0,0-2.66,2.36,4.57,4.57,0,0,0,1.07,4.13c0.48,0.52,1.52-.06,1.05-0.59a3.7,3.7,0,0,1-.91-3c0.05-.46.67-2.32,1.66-1.8,0.65,0.34.44,1.78,0.41,2.29a11.59,11.59,0,0,1-.46,2.58c-0.19.65,1,.86,1.22,0.22h0Z" transform="translate(-47.12 -512.53)"/></g><g id="_Gruppo_61" data-name="&lt;Gruppo&gt;"><path id="_Tracciato_89" data-name="&lt;Tracciato&gt;" class="cls-3" d="M445.5,709.1a65.18,65.18,0,0,0-16-4.25c-1.59-.2-2,2-0.48,2.18a63.17,63.17,0,0,1,15.59,4.12,1.11,1.11,0,1,0,.85-2h0Z" transform="translate(-47.12 -512.53)"/></g></g></g><g id="_Gruppo_62" data-name="&lt;Gruppo&gt;"><path id="_Tracciato_90" data-name="&lt;Tracciato&gt;" class="cls-3" d="M365.35,583.88a9,9,0,0,0-6.18-6.79c-1.69-.61-3.65-0.64-5.29-1.35-4-1.73-3.18-6.11-2.39-9.58a1.47,1.47,0,0,0-1-1.78c-5.78-1.36.34-5.91,2.14-8.1a10.35,10.35,0,0,0,2.58-6.38c0.26-3.27-.4-7.17,3.38-8.74,1.56-.65,3.48-0.54,5.11-1.18,6-2.35,11.5-4.49,18.07-2.93,11.35,2.69,15.78,15.17,8.22,23.94-5,5.82-8.88,10.3-10.16,18.22-0.3,1.83,2.5,2.61,2.8.77,1.09-6.74,4-11,8.43-15.86,3-3.25,5.58-6.74,5.95-11.29,1-12.49-11.46-20.18-22.66-19.09a32.75,32.75,0,0,0-9.05,2.31,34.72,34.72,0,0,1-5,2,24.46,24.46,0,0,0-3.84.72c-5,2.05-3.48,7.86-4.3,12.15-1,5.43-14.4,13.49-2.46,16.3l-1-1.78c-0.91,4-1.72,9.36,2.14,12.13,4.15,3,10.12.67,11.72,7.12,0.45,1.81,3.24,1,2.8-.77h0Z" transform="translate(-47.12 -512.53)"/></g><g id="_Gruppo_63" data-name="&lt;Gruppo&gt;"><path id="_Tracciato_91" data-name="&lt;Tracciato&gt;" class="cls-15" d="M326,726.69a17.9,17.9,0,0,1-6.6-.18L309.89,725a10.07,10.07,0,0,0-5.18.12c-1.63.64-2.91,2.51-2.27,4.13a4.87,4.87,0,0,0,2.83,2.3A58.09,58.09,0,0,0,334,736.17a6.82,6.82,0,0,0,2.8-.71,2.52,2.52,0,0,0,1.36-2.38Z" transform="translate(-47.12 -512.53)"/><g id="_Gruppo_64" data-name="&lt;Gruppo&gt;"><path id="_Tracciato_92" data-name="&lt;Tracciato&gt;" class="cls-3" d="M325.46,724.58c-4.87.66-10.15-1-15-1.65-2.73-.39-5.64-0.71-8,1-4.13,3-2.14,7.59,1.69,9.53,6.39,3.23,14.09,4.68,21.2,5.05,4.91,0.26,13.48,1.32,14.9-4.87a2.24,2.24,0,0,0-1-2.47l-12.12-6.39c-2.49-1.31-4.7,2.46-2.21,3.78L337.06,735l-1-2.47c-0.68,3-10,1.75-12.41,1.54a56.28,56.28,0,0,1-13.76-3c-1.78-.62-8.85-2.5-1.74-4.06,2-.43,5.77.86,7.85,1.17,3.62,0.55,7,1.12,10.62.62C329.4,728.42,328.21,724.21,325.46,724.58Z" transform="translate(-47.12 -512.53)"/></g></g><g id="_Gruppo_65" data-name="&lt;Gruppo&gt;"><path id="_Tracciato_93" data-name="&lt;Tracciato&gt;" class="cls-16" d="M343.55,671.61c-0.76,18.47-7.42,40.51-5.08,58.85-5,.89-5.46,1.2-8.07.78a7.08,7.08,0,0,1-3.34-1.84,5.85,5.85,0,0,1-1.33-3.75c-1.88-17.65-5.5-44.86-5.13-62.6l14.8-7.28Z" transform="translate(-47.12 -512.53)"/><g id="_Gruppo_66" data-name="&lt;Gruppo&gt;"><path id="_Tracciato_94" data-name="&lt;Tracciato&gt;" class="cls-3" d="M341.38,671.61c-1,19.65-7.32,39.08-5.08,58.85l1.6-2.1c-1.93.35-4.93,1.41-6.92,0.78-3.94-1.26-3.45-6.89-3.81-10.17-0.71-6.33-1.44-12.65-2.11-19-1.28-12.26-2.48-24.6-2.29-36.94l-1.08,1.88,14.8-7.28-3-.78,8.16,15.84c1.28,2.49,5,.29,3.75-2.19l-8.16-15.84a2.22,2.22,0,0,0-3-.78l-14.8,7.28a2.16,2.16,0,0,0-1.08,1.88c-0.24,16,1.7,32,3.49,47.87,0.41,3.6.82,7.21,1.22,10.81,0.32,2.88.16,6.39,2.06,8.77,3.51,4.39,9.18,2.92,13.87,2.06a2.17,2.17,0,0,0,1.6-2.1c-2.24-19.77,4.1-39.2,5.08-58.85C345.86,668.81,341.51,668.82,341.38,671.61Z" transform="translate(-47.12 -512.53)"/></g></g><g id="_Gruppo_67" data-name="&lt;Gruppo&gt;"><path id="_Tracciato_95" data-name="&lt;Tracciato&gt;" class="cls-4" d="M317.22,729.8c-9.67-1.09-19.37-2.18-29.1-2.53-7.92-.28-17-0.83-24.74,1.21-3.49.92-6.64,3.4-4.88,7.28q0.68,1.09,1.44,2.14-0.32,3.78-3.66,4.38a40.14,40.14,0,0,1-4.7,1c-4.7.95-9.41,1.77-14.15,2.51-1.84.29-1.06,3.08,0.77,2.8,6.63-1,15.6-1.29,21.53-4.66,1.58-.9,3.14-2.27,3.44-4.15,0.47-2.89-3.22-5-.87-7.89,1.8-2.19,11.66-1.66,14.18-1.76,4.53-.16,9.06-0.11,13.58.1,9.08,0.42,18.13,1.43,27.16,2.45,1.85,0.21,1.84-2.69,0-2.9h0Z" transform="translate(-47.12 -512.53)"/></g><g id="_Gruppo_68" data-name="&lt;Gruppo&gt;"><path id="_Tracciato_96" data-name="&lt;Tracciato&gt;" class="cls-5" d="M364.7,532a44.37,44.37,0,0,0-13,6.34c-1.61,1.14-3.3,3.24-2.15,4.85,0.74,1,2.23,1.11,3.5,1a53.45,53.45,0,0,0,13.6-2.58,17.5,17.5,0,0,0-5.19,6.2,1.76,1.76,0,0,0-.2,1.59,1.86,1.86,0,0,0,1.9.55q4.58-.48,9.11-1.26c-2.05,2.39.86,4.42,0.59,7.56-0.32,3.73-1.21,4.54-3.72,7.44,1.55,1.95,5.38,10.57,7.87,10.65,11.34,0.33,8.86-3.46,10.39-5.41,6-7.66,4.87-6,8.59-11.14s5.07-12.4,1.92-17.9c-2.41-4.21-7-6.76-11.6-8.19a37.94,37.94,0,0,0-21.79-.16" transform="translate(-47.12 -512.53)"/><g id="_Gruppo_69" data-name="&lt;Gruppo&gt;"><path id="_Tracciato_97" data-name="&lt;Tracciato&gt;" class="cls-3" d="M364.31,530.64c-4.43,1.41-17.27,5.39-16.54,11.77,0.79,6.94,15.93,1.72,19.28.68l-1.41-2.42c-1.94,1.59-7.45,6.41-5.62,9.55s10.17,0.36,12.65,0L371,548c-1.05,1.77-.9,2.67-0.51,4.62,0.92,4.57.82,6.37-2.4,10.09a1.48,1.48,0,0,0-.23,1.76c2.26,3.16,3.55,7.33,6.47,10,2.43,2.22,6.71,1.72,9.67.77,2.49-.8,3-2,4.1-4.16,1.57-3.12,4.06-5.77,6.22-8.58,5.46-7.13,9.93-16.54,3.81-24.81-7.34-9.91-23.26-10.38-34-7.51a1.45,1.45,0,0,0,.77,2.8c9.58-2.56,24.68-2.51,31,6.67,5.31,7.67.31,15.76-4.59,22-1.67,2.14-3.83,4.22-5.18,6.57-0.54.94-.58,2.35-1.23,3.17-1,1.24-3.19,1.43-4.62,1.49-3,.13-4.18-0.56-5.74-2.93s-2.6-4.76-4.17-7l-0.23,1.76c1.78-2.06,3.39-3.91,3.92-6.65,0.5-2.57-1.78-6.6-.56-8.64a1.47,1.47,0,0,0-1.64-2.13c-1.26.21-8.42,1.8-8.73,1.21-0.9-1.73,3.35-4.91,4.52-5.87s-0.09-2.83-1.41-2.42c-2,.63-16.09,4.92-14.5-0.1,0.42-1.32,4.92-3.27,6.17-3.9a47,47,0,0,1,7.13-2.85c1.77-.56,1-3.36-0.77-2.8h0Z" transform="translate(-47.12 -512.53)"/></g></g><g id="_Gruppo_70" data-name="&lt;Gruppo&gt;"><path id="_Tracciato_98" data-name="&lt;Tracciato&gt;" class="cls-3" d="M366.76,557.78c0.29-1.51,1.85-6,3.94-3.29,2.77,3.57-1.75,8.16-4.78,9.52-1.7.76-.23,3.26,1.46,2.5,4.79-2.13,9.92-9.55,5.18-14.27A4.67,4.67,0,0,0,368,551c-2.56.79-3.56,3.65-4,6-0.36,1.82,2.44,2.6,2.8.77h0Z" transform="translate(-47.12 -512.53)"/></g><g id="_Gruppo_71" data-name="&lt;Gruppo&gt;"><path id="_Tracciato_99" data-name="&lt;Tracciato&gt;" class="cls-15" d="M294.85,733.26a17.9,17.9,0,0,1-6.57-.61l-9.44-2.07a10.07,10.07,0,0,0-5.18-.21c-1.67.53-3.07,2.31-2.53,4a4.87,4.87,0,0,0,2.68,2.48,58.09,58.09,0,0,0,28.38,6.4,6.82,6.82,0,0,0,2.84-.53,2.52,2.52,0,0,0,1.51-2.29Z" transform="translate(-47.12 -512.53)"/><g id="_Gruppo_72" data-name="&lt;Gruppo&gt;"><path id="_Tracciato_100" data-name="&lt;Tracciato&gt;" class="cls-3" d="M294.85,731.07c-4.55.32-9.12-1.24-13.54-2.18-2.82-.6-5.94-1.57-8.75-0.41-4.94,2-4.43,7.4-.4,9.92,6,3.72,13.67,5.64,20.55,6.53,5.09,0.66,14,2.5,15.94-3.94a2.23,2.23,0,0,0-1-2.47L296,731.37c-2.41-1.47-4.61,2.31-2.21,3.78l11.69,7.16-1-2.47c-0.84,2.84-11.71.76-13.71,0.41A57.21,57.21,0,0,1,279.38,737c-1.88-.76-8.83-2.86-1.12-4.28,1.5-.28,4.23.93,5.66,1.24,3.63,0.8,7.18,1.78,10.93,1.51C297.64,735.25,297.67,730.87,294.85,731.07Z" transform="translate(-47.12 -512.53)"/></g></g><g id="_Gruppo_73" data-name="&lt;Gruppo&gt;"><path id="_Tracciato_101" data-name="&lt;Tracciato&gt;" class="cls-2" d="M334.78,596.32c0.35,29.57,4.36,76.8,6.26,108.63,0,0.82-2.25,5.25,8.23,4.91,8.7-.29,5.28-3.44,6-7.25l4.47-106.82" transform="translate(-47.12 -512.53)"/><g id="_Gruppo_74" data-name="&lt;Gruppo&gt;"><path id="_Tracciato_102" data-name="&lt;Tracciato&gt;" class="cls-3" d="M332.29,596.32c0.37,27.5,2.63,55,4.53,82.39q0.72,10.4,1.4,20.8c0.19,3-.6,6.15.55,8.9,2.4,5.74,17.07,6.06,18.87-.2,0.75-2.61.13-6.63,0.25-9.51l0.71-16.86,2.16-51.66,1.44-34.38c0.13-3.2-4.84-3.2-5,0l-3,71.49c-0.47,11.21-.83,22.43-1.41,33.63q0,0.85-.07,1.69c0,0.65.43,3.69,0.1,4.11-1,1.29-6.94,1-8.18.35-2.2-1.19-1.22-3.38-1.39-6.18q-0.6-9.54-1.27-19.08c-2-28.46-4.36-57-4.74-85.49,0-3.2-5-3.21-5,0h0Z" transform="translate(-47.12 -512.53)"/></g></g><g id="_Gruppo_75" data-name="&lt;Gruppo&gt;"><path id="_Tracciato_103" data-name="&lt;Tracciato&gt;" class="cls-2" d="M343.66,589.67c-2.42.3-4.95,0.63-6.91,1.75s-3.15,3.27-2,4.9a6.31,6.31,0,0,0,2.79,1.83,26,26,0,0,0,19.28-.26,6.07,6.07,0,0,0,2.87-2.1c1.77-3-2.77-5.13-6-5.68a39.66,39.66,0,0,0-10.09-.45" transform="translate(-47.12 -512.53)"/><g id="_Gruppo_76" data-name="&lt;Gruppo&gt;"><path id="_Tracciato_104" data-name="&lt;Tracciato&gt;" class="cls-3" d="M343.66,587.5c-4.33.56-13.07,2.29-11.31,8.63s13.63,6.31,18.51,5.64c4-.56,13.36-2.87,11-8.93s-13.16-5.58-18.25-5.34c-2.79.14-2.8,4.48,0,4.35,3.5-.17,7.2-0.34,10.61.61,1.38,0.38,2.67.47,2.68,2.07,0,1.9-3,2.17-4.53,2.53a24.28,24.28,0,0,1-11.21,0c-1.63-.39-5.71-0.9-3.38-3.75,0.89-1.09,4.73-1.31,5.82-1.45,2.74-.36,2.77-4.71,0-4.35h0Z" transform="translate(-47.12 -512.53)"/></g></g><g id="_Gruppo_77" data-name="&lt;Gruppo&gt;"><path id="_Tracciato_105" data-name="&lt;Tracciato&gt;" class="cls-17" d="M334.16,684.07c-0.08,1.54-.5,3.06-0.5,4.6,0,5,4.26,9,8.73,11.15,10.76,5.27,23.55,3.86,35.2,1.06,8.49-2,16.9-4.78,24.47-9.14,4.36-2.51,8.69-5.92,10-10.77s-2-11.08-7.05-10.9" transform="translate(-47.12 -512.53)"/><g id="_Gruppo_78" data-name="&lt;Gruppo&gt;"><path id="_Tracciato_106" data-name="&lt;Tracciato&gt;" class="cls-3" d="M331.26,684.07c-0.54,5.15-.52,9.15,3,13.27s8.63,6.3,13.66,7.61c11.89,3.08,24.76.51,36.31-2.82,10-2.87,23.69-7.28,29.16-16.94,4.09-7.22.49-17.47-8.43-18-3.73-.22-3.71,5.57,0,5.8,4.59,0.28,5.14,6.08,3.42,9.28-1.95,3.62-5.87,5.94-9.36,7.84-7.2,3.91-15.13,6.34-23.09,8.19s-16.64,3.13-24.83,1.45c-4-.82-8.25-2.25-11.31-5-3.43-3.1-3.24-6.34-2.78-10.65,0.39-3.71-5.41-3.68-5.8,0h0Z" transform="translate(-47.12 -512.53)"/></g></g><g id="_Gruppo_79" data-name="&lt;Gruppo&gt;"><path id="_Tracciato_107" data-name="&lt;Tracciato&gt;" class="cls-16" d="M315.85,679.41c-1.94,18.39-10,40-8.83,58.41-5,.57-5.53.85-8.11,0.26a7.08,7.08,0,0,1-3.22-2,5.85,5.85,0,0,1-1.09-3.83c-0.75-17.73-2.62-45.12-1.12-62.8l15.24-6.32Z" transform="translate(-47.12 -512.53)"/><g id="_Gruppo_80" data-name="&lt;Gruppo&gt;"><path id="_Tracciato_108" data-name="&lt;Tracciato&gt;" class="cls-3" d="M313.68,679.41c-2.23,19.56-9.81,38.51-8.83,58.41l2.17-2.17c-2.06.24-5,1.05-7.09,0.43-3.93-1.18-3.28-6.76-3.43-9.88-0.3-6.33-.63-12.65-0.89-19-0.52-12.58-1-25.24,0-37.81l-1.6,2.1,15.24-6.32-2.46-1L314,680.51c1.12,2.56,4.87.35,3.75-2.19L310.6,662a2.17,2.17,0,0,0-2.46-1L292.9,667.3a2.31,2.31,0,0,0-1.6,2.1c-1.24,15.69-.37,31.54.38,47.23,0.19,3.88.38,7.75,0.56,11.63,0.12,2.48-.19,5.44.88,7.73,2.56,5.5,9,4.57,13.88,4a2.22,2.22,0,0,0,2.17-2.17c-1-19.85,6.6-38.87,8.83-58.41C318.34,676.63,314,676.66,313.68,679.41Z" transform="translate(-47.12 -512.53)"/></g></g><g id="_Gruppo_81" data-name="&lt;Gruppo&gt;"><path id="_Tracciato_109" data-name="&lt;Tracciato&gt;" class="cls-2" d="M326.29,685.19a408.28,408.28,0,0,0,41.6,1.06c30.17-1.06,30.34-21.19,30.34-21.19l-36.59-2-37.17,6.51Z" transform="translate(-47.12 -512.53)"/><g id="_Gruppo_82" data-name="&lt;Gruppo&gt;"><path id="_Tracciato_110" data-name="&lt;Tracciato&gt;" class="cls-3" d="M326.29,687.37c8.1,0.66,16.23,1,24.36,1.15,11.23,0.21,23.52,1,34.12-3.4,8-3.33,15.48-10.88,15.65-20.06a2.22,2.22,0,0,0-2.17-2.17l-18.79-1c-6-.32-12.43-1.4-18.39-0.87-12.38,1.1-24.9,4.36-37.15,6.51a2.17,2.17,0,0,0-1.6,2.1l1.81,15.57c0.32,2.75,4.67,2.78,4.35,0l-1.81-15.57-1.6,2.1,18.09-3.17c6.21-1.09,12.69-2.9,19-3.33-1.08.07,0.32,0.11,0.72,0.13l4,0.21,12.63,0.67,18.79,1-2.17-2.17c-0.15,8.67-8.61,15-16.21,17.21-10.56,3.13-22.55,2.12-33.43,1.8-6.71-.2-13.44-0.51-20.13-1.05C323.5,682.79,323.51,687.14,326.29,687.37Z" transform="translate(-47.12 -512.53)"/></g></g><path id="_Tracciato_111" data-name="&lt;Tracciato&gt;" class="cls-16" d="M326.29,680.51a408.28,408.28,0,0,0,41.6,1.06c30.17-1.06,30.34-21.19,30.34-21.19l-36.59-2-37.17,6.51Z" transform="translate(-47.12 -512.53)"/><g id="_Gruppo_83" data-name="&lt;Gruppo&gt;"><path id="_Tracciato_112" data-name="&lt;Tracciato&gt;" class="cls-18" d="M215,733.39c0.28,1,21.11.76,24.93-2C249.75,724.14,217,724,217,724Z" transform="translate(-47.12 -512.53)"/><g id="_Gruppo_84" data-name="&lt;Gruppo&gt;"><path id="_Tracciato_113" data-name="&lt;Tracciato&gt;" class="cls-2" d="M203.36,619c0.35,29.57,4.36,76.8,6.26,108.63,0,0.82-2.25,5.25,8.23,4.91,8.7-.29,5.16-3.25,6-7.25l4.47-106.82" transform="translate(-47.12 -512.53)"/><g id="_Gruppo_85" data-name="&lt;Gruppo&gt;"><path id="_Tracciato_114" data-name="&lt;Tracciato&gt;" class="cls-3" d="M200.87,619c0.37,27.5,2.63,55,4.53,82.39q0.72,10.4,1.4,20.8c0.19,3-.6,6.15.55,8.9,2.37,5.68,17.05,6.1,18.83-.13,0.76-2.65.17-6.67,0.3-9.58l0.71-16.86,2.16-51.66,1.44-34.38c0.13-3.2-4.84-3.2-5,0l-3,71.49c-0.47,11.21-.8,22.43-1.41,33.63,0,0.6-.07,1.21-0.09,1.82s0.38,3.7.07,4.07c-1,1.2-6.93.92-8.13,0.27-2.2-1.19-1.22-3.38-1.39-6.18q-0.6-9.54-1.27-19.08c-2-28.46-4.36-57-4.74-85.49,0-3.2-5-3.21-5,0h0Z" transform="translate(-47.12 -512.53)"/></g></g><g id="_Gruppo_86" data-name="&lt;Gruppo&gt;"><path id="_Tracciato_115" data-name="&lt;Tracciato&gt;" class="cls-2" d="M211.56,612.42a16.31,16.31,0,0,0-6.23,1.68c-2,1.11-3.15,3.27-2,4.9a6.31,6.31,0,0,0,2.79,1.83,26,26,0,0,0,19.28-.26,6.07,6.07,0,0,0,2.87-2.1c1.77-3-2.77-5.13-6-5.68a35.91,35.91,0,0,0-10.78-.39" transform="translate(-47.12 -512.53)"/><g id="_Gruppo_87" data-name="&lt;Gruppo&gt;"><path id="_Tracciato_116" data-name="&lt;Tracciato&gt;" class="cls-3" d="M211.56,610.25c-4.27.51-12.29,2.58-10.62,8.57,1.75,6.28,13.63,6.31,18.51,5.64,4-.56,13.36-2.87,11-8.93-2.39-6.28-13.82-5.77-18.94-5.27-2.76.27-2.79,4.62,0,4.35a31.27,31.27,0,0,1,11.3.55c1.37,0.38,2.67.47,2.68,2.07,0,1.9-3,2.17-4.53,2.53a24.28,24.28,0,0,1-11.21,0c-1.64-.4-5.7-0.89-3.38-3.75,0.82-1,4-1.26,5.13-1.39,2.75-.33,2.78-4.68,0-4.35h0Z" transform="translate(-47.12 -512.53)"/></g></g><g id="_Gruppo_88" data-name="&lt;Gruppo&gt;"><path id="_Tracciato_117" data-name="&lt;Tracciato&gt;" class="cls-19" d="M220.95,634.8c-3.68,13.55,16.44,27.06,26.34,29.85,42.2,11.88,90.86,9.75,131-5.74,9.16-3.54,19.77-12.69,18.2-27Z" transform="translate(-47.12 -512.53)"/><g id="_Gruppo_89" data-name="&lt;Gruppo&gt;"><path id="_Tracciato_118" data-name="&lt;Tracciato&gt;" class="cls-3" d="M218.55,634.14c-2.6,11.56,7,21.06,15.79,26.93,11.62,7.74,26.4,9.83,40,11.67,33.87,4.59,69.31,1.49,101.5-10.25,13.55-4.95,24.4-15.14,23.17-30.62a2.54,2.54,0,0,0-2.49-2.49l-59.31,1-94.52,1.58-21.69.36c-3.2.05-3.21,5,0,5l59.31-1,94.52-1.58,21.69-.36L394,631.87c1.55,19.46-17.1,25.64-32.4,30a210.11,210.11,0,0,1-55.9,7.89,205.23,205.23,0,0,1-56.08-7.05c-10.65-2.93-29.25-13.89-26.25-27.24C224,632.34,219.25,631,218.55,634.14Z" transform="translate(-47.12 -512.53)"/></g></g><g id="_Gruppo_90" data-name="&lt;Gruppo&gt;"><path id="_Tracciato_119" data-name="&lt;Tracciato&gt;" class="cls-2" d="M333,600.61a305.12,305.12,0,0,0-69.7,4.72c-13.88,2.63-30.78,8.76-38.37,18.45C213,639,231,652.54,249.28,655.71c45.54,7.9,99,8.93,138-12.9,7.77-4.35,12.26-10.95,8-17.42C385.28,610.16,355.41,601.61,333,600.61Z" transform="translate(-47.12 -512.53)"/><g id="_Gruppo_91" data-name="&lt;Gruppo&gt;"><path id="_Tracciato_120" data-name="&lt;Tracciato&gt;" class="cls-3" d="M333,598.12a316.55,316.55,0,0,0-52,2c-14.29,1.76-28.73,4.11-41.87,10.3-9.32,4.39-21.34,12.58-20.5,24.37,0.83,11.59,13.4,18.59,23.21,21.69,13.54,4.29,29.06,5.17,43.16,6.17a257,257,0,0,0,45.6-.55,165.65,165.65,0,0,0,41.92-9.64c9.23-3.56,25.94-9.14,26.87-21s-15.8-20.31-24.68-24.1a122.59,122.59,0,0,0-41.72-9.2c-3.2-.16-3.19,4.82,0,5a122.69,122.69,0,0,1,33.11,6.24c9.42,3.19,20.53,8,26.46,16.42,12.64,18-49.09,29.79-59.51,31.05-24.94,3-50.39,1.56-75.16-2.21-11.23-1.71-25.61-4.06-32.29-14.55-7.33-11.51,7-21.17,16-25.37,13.15-6.14,27.89-8.33,42.18-10A318,318,0,0,1,333,603.1C336.18,603.24,336.17,598.26,333,598.12Z" transform="translate(-47.12 -512.53)"/></g></g><path id="_Tracciato_121" data-name="&lt;Tracciato&gt;" class="cls-18" d="M310.94,781.55c0.28,1,18.85,2.34,22.67-.45,9.86-7.22-22.92-7.32-22.92-7.32Z" transform="translate(-47.12 -512.53)"/><g id="_Gruppo_92" data-name="&lt;Gruppo&gt;"><path id="_Tracciato_122" data-name="&lt;Tracciato&gt;" class="cls-2" d="M301,667.94c0.35,29.57,4.36,76.8,6.26,108.63,0,0.82-2.25,5.25,8.23,4.91,8.7-.29,5.28-3.44,6-7.25l4.47-106.82" transform="translate(-47.12 -512.53)"/><g id="_Gruppo_93" data-name="&lt;Gruppo&gt;"><path id="_Tracciato_123" data-name="&lt;Tracciato&gt;" class="cls-3" d="M298.47,667.94c0.37,27.5,2.63,55,4.53,82.39q0.72,10.4,1.4,20.8c0.19,3-.6,6.15.55,8.9,2.4,5.74,17.07,6.06,18.87-.2,0.75-2.61.13-6.63,0.25-9.51l0.71-16.86,2.16-51.66,1.44-34.38c0.13-3.2-4.84-3.2-5,0l-3,71.49c-0.47,11.21-.83,22.43-1.41,33.63q0,0.85-.07,1.69c0,0.65.43,3.69,0.1,4.11-1,1.29-6.94,1-8.18.35-2.2-1.19-1.22-3.38-1.39-6.18q-0.6-9.54-1.27-19.08c-2-28.46-4.36-57-4.74-85.49,0-3.2-5-3.21-5,0h0Z" transform="translate(-47.12 -512.53)"/></g></g><g id="_Gruppo_94" data-name="&lt;Gruppo&gt;"><path id="_Tracciato_124" data-name="&lt;Tracciato&gt;" class="cls-2" d="M309.84,661.29c-2.42.3-4.95,0.63-6.91,1.75s-3.15,3.27-2,4.9a6.31,6.31,0,0,0,2.79,1.83,26,26,0,0,0,19.28-.26,6.07,6.07,0,0,0,2.87-2.1c1.77-3-2.77-5.13-6-5.68a39.66,39.66,0,0,0-10.09-.45" transform="translate(-47.12 -512.53)"/><g id="_Gruppo_95" data-name="&lt;Gruppo&gt;"><path id="_Tracciato_125" data-name="&lt;Tracciato&gt;" class="cls-3" d="M309.84,659.11c-4.33.56-13.07,2.29-11.31,8.63s13.63,6.31,18.51,5.64c4-.56,13.36-2.87,11-8.93s-13.16-5.58-18.25-5.34c-2.79.14-2.8,4.48,0,4.35,3.5-.17,7.2-0.34,10.61.61,1.38,0.38,2.67.47,2.68,2.07,0,1.9-3,2.17-4.53,2.53a24.28,24.28,0,0,1-11.21,0c-1.63-.39-5.71-0.9-3.38-3.75,0.89-1.09,4.73-1.31,5.82-1.45,2.74-.36,2.77-4.71,0-4.35h0Z" transform="translate(-47.12 -512.53)"/></g></g></g><g id="_Gruppo_96" data-name="&lt;Gruppo&gt;"><g id="_Gruppo_97" data-name="&lt;Gruppo&gt;"><path id="_Tracciato_126" data-name="&lt;Tracciato&gt;" class="cls-20" d="M258.38,626.32L304.26,602s-4.74-25.07-6.38-34.61c-0.49-2.87-.13-6.07-3.14-5.24s-41.81,19.11-41.81,19.11a5.06,5.06,0,0,0-4,6.43C252.34,599.59,255.7,614.42,258.38,626.32Z" transform="translate(-47.12 -512.53)"/><g id="_Gruppo_98" data-name="&lt;Gruppo&gt;"><path id="_Tracciato_127" data-name="&lt;Tracciato&gt;" class="cls-3" d="M258.95,627.3L304.83,603a1.15,1.15,0,0,0,.52-1.27q-2.46-13-4.85-26c-0.43-2.33-.87-4.66-1.26-7-0.33-2-.12-5.4-1.68-6.92s-3.67-.52-5.41.2c-8,3.34-15.86,7.14-23.74,10.81-5.68,2.65-11.82,5-17.31,8-6.43,3.53-2,11.81-.61,17.07,2.44,9.57,4.62,19.2,6.79,28.83,0.32,1.41,2.49.82,2.17-.6-2.36-10.48-4.73-21-7.45-31.35-0.45-1.71-2.25-5.6-2-7.28,0.15-.92,2.9-4.72,3.57-5.21a19.1,19.1,0,0,1,3.12-1.47c10-4.71,20.06-9.43,30.16-14,1.92-.87,3.84-1.75,5.79-2.57,2.44-1,3.42-1.25,3.95,2.29,1,6.63,2.32,13.21,3.54,19.79q0.86,4.6,1.72,9.2c0.34,1.83.33,4.6,1.18,6.27,0.54,1.06.06-.44,0.51-0.62a5.26,5.26,0,0,1-.92.49c-1.74.27-4.09,2.17-5.64,3l-39.2,20.78C256.53,626,257.67,628,258.95,627.3Z" transform="translate(-47.12 -512.53)"/></g></g><g id="_Gruppo_99" data-name="&lt;Gruppo&gt;"><path id="_Tracciato_128" data-name="&lt;Tracciato&gt;" class="cls-20" d="M260.09,628.19l39.7,12.56a6.07,6.07,0,0,0,4.73-.33l39.24-21.77L343,613.41,306,603.87Z" transform="translate(-47.12 -512.53)"/><g id="_Gruppo_100" data-name="&lt;Gruppo&gt;"><path id="_Tracciato_129" data-name="&lt;Tracciato&gt;" class="cls-3" d="M259.79,629.28L297,641.07c4.17,1.32,7,.89,10.79-1.19l19.89-11,16.6-9.21a1.17,1.17,0,0,0,.52-1.27l-0.71-5.24a1.1,1.1,0,0,0-.79-0.79L326.72,608l-12.36-3.18c-2.33-.6-5.17-1.83-7.59-2-3-.14-6.29,2.59-8.88,4l-22.4,11.87-16,8.47c-1.28.68-.14,2.63,1.14,1.95l34.76-18.43,8.42-4.46c0.68-.36,1.36-0.74,2-1.08,1.13-.57-0.06-0.19,0-0.18,6,0.5,12.52,3.22,18.33,4.72l12,3.09c1.77,0.45,4.79.62,6.32,1.63,0.22,0.14-.64-1.28-0.47.09a20.94,20.94,0,0,0,.38,2.77c0.42,1.58-.31,1.25.72,0.4a2.07,2.07,0,0,1-.58.32c-2.12.68-4.25,2.36-6.19,3.43l-21.62,12c-4.32,2.4-9.71,6.94-14.95,6.14-2.53-.39-5.18-1.64-7.61-2.41l-13.4-4.24-18.43-5.83A1.13,1.13,0,0,0,259.79,629.28Z" transform="translate(-47.12 -512.53)"/></g></g><path id="_Tracciato_130" data-name="&lt;Tracciato&gt;" class="cls-21" d="M261.49,625.9l45.88-24.32S302.59,576.51,301,567c-0.62-3.68-3.67-5.88-7-4.11-2.75,1.44-37.9,18-37.9,18a5.06,5.06,0,0,0-4,6.43C255.45,599.17,258.81,614,261.49,625.9Z" transform="translate(-47.12 -512.53)"/><g id="_Gruppo_101" data-name="&lt;Gruppo&gt;"><path id="_Tracciato_131" data-name="&lt;Tracciato&gt;" class="cls-20" d="M261.49,625.9L297.63,637a7.85,7.85,0,0,0,6-.42l38.91-21.16c1.29-.7.8-2.53-0.81-3l-34.35-10.81Z" transform="translate(-47.12 -512.53)"/><g id="_Gruppo_102" data-name="&lt;Gruppo&gt;"><path id="_Tracciato_132" data-name="&lt;Tracciato&gt;" class="cls-3" d="M261.19,627c11.94,3.67,23.84,7.91,35.93,11,5.38,1.39,9.48-1.78,14-4.23l22.16-12.05c2.32-1.26,10.91-4.1,11.05-7.46,0.17-4-10.1-5.43-12.63-6.22l-22.06-6.94c-3.33-1-5.06.67-8.13,2.3l-40.59,21.51c-1.28.68-.14,2.63,1.14,1.95l32.39-17.17c4.09-2.17,8.81-5.79,13.29-7,0.59-.16-1.34-0.09-0.15.17,0.83,0.18,1.66.52,2.47,0.78l10,3.15c6.45,2,13.67,3.45,19.82,6.24,1.45,0.66,2.31.62,1.19,1.93-1.34,1.57-4.94,2.68-6.73,3.66l-20.69,11.25c-4.59,2.49-10.26,7.14-15.77,6.07-6.22-1.21-12.46-3.83-18.51-5.69l-17.59-5.41A1.13,1.13,0,0,0,261.19,627Z" transform="translate(-47.12 -512.53)"/></g></g><path id="_Tracciato_133" data-name="&lt;Tracciato&gt;" class="cls-22" d="M274,623.2l25.3,7.77a5.5,5.5,0,0,0,4.2-.3l27.23-14.81c0.9-.49.56-1.77-0.57-2.12l-24-7.56Z" transform="translate(-47.12 -512.53)"/><line id="_Tracciato_134" data-name="&lt;Tracciato&gt;" class="cls-22" x1="230.43" y1="108.54" x2="257.73" y2="117.23"/><line id="_Tracciato_135" data-name="&lt;Tracciato&gt;" class="cls-22" x1="233.53" y1="107.3" x2="260.42" y2="115.92"/><line id="_Tracciato_136" data-name="&lt;Tracciato&gt;" class="cls-22" x1="235.98" y1="105.6" x2="257.67" y2="112.5"/><line id="_Tracciato_137" data-name="&lt;Tracciato&gt;" class="cls-22" x1="239.69" y1="104.24" x2="266.32" y2="112.72"/><line id="_Tracciato_138" data-name="&lt;Tracciato&gt;" class="cls-22" x1="242.85" y1="102.46" x2="269.56" y2="110.96"/><line id="_Tracciato_139" data-name="&lt;Tracciato&gt;" class="cls-22" x1="246.12" y1="100.92" x2="272.55" y2="109.33"/><line id="_Tracciato_140" data-name="&lt;Tracciato&gt;" class="cls-22" x1="249.28" y1="99.22" x2="270.01" y2="105.71"/><line id="_Tracciato_141" data-name="&lt;Tracciato&gt;" class="cls-22" x1="252.17" y1="97.64" x2="278.59" y2="106.05"/><line id="_Tracciato_142" data-name="&lt;Tracciato&gt;" class="cls-22" x1="255.06" y1="96.03" x2="281.28" y2="104.58"/><line id="_Tracciato_143" data-name="&lt;Tracciato&gt;" class="cls-22" x1="257.02" y1="94.7" x2="283.8" y2="103.17"/><line id="_Tracciato_144" data-name="&lt;Tracciato&gt;" class="cls-22" x1="262.88" y1="95.07" x2="231.1" y2="111.98"/><line id="_Tracciato_145" data-name="&lt;Tracciato&gt;" class="cls-22" x1="267.36" y1="96.48" x2="235.6" y2="113.36"/><line id="_Tracciato_146" data-name="&lt;Tracciato&gt;" class="cls-22" x1="271.51" y1="97.6" x2="240.65" y2="114.47"/><line id="_Tracciato_147" data-name="&lt;Tracciato&gt;" class="cls-22" x1="275.2" y1="98.91" x2="244.71" y2="116.16"/><line id="_Tracciato_148" data-name="&lt;Tracciato&gt;" class="cls-22" x1="279.66" y1="100.28" x2="249.07" y2="117.5"/><g id="_Gruppo_103" data-name="&lt;Gruppo&gt;"><path id="_Tracciato_149" data-name="&lt;Tracciato&gt;" class="cls-3" d="M297.81,637.46a15.36,15.36,0,0,0,1.43,3.44c0.28,0.66,1.37.37,1.09-.3a15.53,15.53,0,0,1-1.43-3.44c-0.11-.71-1.2-0.41-1.09.3h0Z" transform="translate(-47.12 -512.53)"/></g><g id="_Gruppo_104" data-name="&lt;Gruppo&gt;"><path id="_Tracciato_150" data-name="&lt;Tracciato&gt;" class="cls-3" d="M303.09,636.73a15.65,15.65,0,0,0,1.21,3.54c0.27,0.66,1.36.37,1.09-.3a15.65,15.65,0,0,1-1.21-3.54c-0.11-.71-1.19-0.41-1.09.3h0Z" transform="translate(-47.12 -512.53)"/></g><path id="_Tracciato_151" data-name="&lt;Tracciato&gt;" class="cls-3" d="M263.66,618.21c0-.34-7.7-31.07-7.7-31.07l41-19.67,6,30.68Z" transform="translate(-47.12 -512.53)"/><g id="_Gruppo_105" data-name="&lt;Gruppo&gt;"><path id="_Tracciato_152" data-name="&lt;Tracciato&gt;" class="cls-23" d="M261.56,591.41q8.19-4.2,16.49-8.18c0.84-.4.11-1.65-0.73-1.25q-8.3,4-16.49,8.18c-0.83.43-.1,1.68,0.73,1.25h0Z" transform="translate(-47.12 -512.53)"/></g><g id="_Gruppo_106" data-name="&lt;Gruppo&gt;"><path id="_Tracciato_153" data-name="&lt;Tracciato&gt;" class="cls-23" d="M268,612.68q8.19-4.2,16.49-8.18c0.84-.4.11-1.65-0.73-1.25q-8.3,4-16.49,8.18c-0.83.43-.1,1.68,0.73,1.25h0Z" transform="translate(-47.12 -512.53)"/></g><g id="_Gruppo_107" data-name="&lt;Gruppo&gt;"><path id="_Tracciato_154" data-name="&lt;Tracciato&gt;" class="cls-24" d="M263.07,596.86c9.47-4.82,19.24-9.06,28.83-13.63,0.84-.4.11-1.65-0.73-1.25-9.59,4.57-19.36,8.81-28.83,13.63-0.83.42-.1,1.67,0.73,1.25h0Z" transform="translate(-47.12 -512.53)"/></g><g id="_Gruppo_108" data-name="&lt;Gruppo&gt;"><path id="_Tracciato_155" data-name="&lt;Tracciato&gt;" class="cls-24" d="M266.31,607.49c9.47-4.82,19.24-9.06,28.83-13.63,0.84-.4.11-1.65-0.73-1.25-9.59,4.57-19.36,8.81-28.83,13.63-0.83.42-.1,1.67,0.73,1.25h0Z" transform="translate(-47.12 -512.53)"/></g><g id="_Gruppo_109" data-name="&lt;Gruppo&gt;"><path id="_Tracciato_156" data-name="&lt;Tracciato&gt;" class="cls-25" d="M264.48,602.51c6.77-3.45,13.74-6.5,20.6-9.77,0.84-.4.11-1.65-0.73-1.25-6.86,3.27-13.82,6.32-20.6,9.77-0.83.42-.1,1.67,0.73,1.25h0Z" transform="translate(-47.12 -512.53)"/></g></g><g id="_Gruppo_110" data-name="&lt;Gruppo&gt;"><path id="_Tracciato_157" data-name="&lt;Tracciato&gt;" class="cls-13" d="M320.62,603.16c8.19,4,16.33,7.19,25.42,8.29,3.7,0.45,3.66-5.35,0-5.8-8-1-15.29-4-22.49-7.5-3.34-1.62-6.29,3.38-2.93,5h0Z" transform="translate(-47.12 -512.53)"/></g><g id="_Gruppo_111" data-name="&lt;Gruppo&gt;"><path id="_Tracciato_158" data-name="&lt;Tracciato&gt;" class="cls-2" d="M364.15,585.77c7.54-5.17,11.21-9,20.05-6.66,2,0.53,4.18,4.69,5.21,6.51" transform="translate(-47.12 -512.53)"/><g id="_Gruppo_112" data-name="&lt;Gruppo&gt;"><path id="_Tracciato_159" data-name="&lt;Tracciato&gt;" class="cls-3" d="M364.88,587c3.54-2.46,7.19-5.68,11.46-6.79,2.46-.64,6.24-0.67,8.36.89,1.54,1.13,2.53,3.58,3.46,5.23a1.45,1.45,0,0,0,2.5-1.46c-2.79-5-4.92-7.83-11-7.92-6.41-.1-11.3,4.07-16.29,7.54-1.52,1.06-.07,3.57,1.46,2.5h0Z" transform="translate(-47.12 -512.53)"/></g></g><g id="_Gruppo_113" data-name="&lt;Gruppo&gt;"><path id="_Tracciato_160" data-name="&lt;Tracciato&gt;" class="cls-13" d="M298.25,622.15c2.22,0.88,3.4,3.72,4.88,5.43a29.34,29.34,0,0,0,5.31,4.67c4.15,2.93,9.07,4.59,13.16,7.58,4.43,3.24,8.84,7.46,14.57,3.91,4.87-3,8.37-9.79,11.88-14.23,4.58-5.79-3.57-14.05-8.2-8.2-1.71,2.17-3.4,4.36-5.08,6.55-0.67.87-1.33,1.74-2,2.61-0.53.68-2.81,2.71-1.84,2.62,0.63-.06-3.16-3.06-4-3.61a58.84,58.84,0,0,0-5.76-3.25c-3.58-1.87-7.25-3.67-9.88-6.85-3.06-3.7-5.36-6.57-10-8.41-6.94-2.74-10,8.47-3.08,11.18h0Z" transform="translate(-47.12 -512.53)"/></g><g id="_Gruppo_114" data-name="&lt;Gruppo&gt;"><path id="_Tracciato_161" data-name="&lt;Tracciato&gt;" class="cls-3" d="M346.43,610.24c-3.82-.91-7.67-1.71-11.49-2.64-4.71-1.15-13.14-1.83-15.78-6.51s4-2.31,6.55-1.48a24.83,24.83,0,0,1,5.63,2.61c1.09,0.71,1.92,2,2.93,2.62,1.44,0.89,2.61.83,4.46,0.8a55.2,55.2,0,0,1,11.38.55c1.82,0.33,2.61-2.46.77-2.8-4.42-.81-9,0.07-13.26-0.63-2.31-.38-4.16-2.77-6.44-4-3-1.57-14.43-6.59-16-.95-1.82,6.73,9.12,10.17,13.56,11.21,5.63,1.32,11.26,2.63,16.88,4,1.81,0.43,2.59-2.36.77-2.8h0Z" transform="translate(-47.12 -512.53)"/></g><path id="_Tracciato_162" data-name="&lt;Tracciato&gt;" class="cls-26" d="M399.31,623.59c-0.36-7.74-.93-12.32-3.74-19.54S387.36,587,380,584.54c-3.32-1.1-.3-1.31-3.79-1.16-6.6.27-13.4,1.92-18.47,6.17-2.56,2.15-4.57,11.44-6.52,14.15-4.26,5.94-7,9.37-9.51,12.86,2.8,4.22,7.62,10.11,14.21,13.12l2.32-2.78s0.45,29.7.06,36.79a47.76,47.76,0,0,0,13.23,8.57,50.26,50.26,0,0,0,20.19-.68c2.56-2.32,1-1.44,2.38-4.62C399.93,653.47,400,638.27,399.31,623.59Z" transform="translate(-47.12 -512.53)"/><g id="_Gruppo_115" data-name="&lt;Gruppo&gt;"><path id="_Tracciato_163" data-name="&lt;Tracciato&gt;" class="cls-3" d="M332.26,631.23c-3.7-2.44-8.53-3.31-12.56-5.08a8.5,8.5,0,0,1-5-4.68c-1.28-2.39-2.54-4.92-4.64-6.69-3.29-2.77-9.49-4.77-13.7-3.41-3.56,1.15-6.51,4.53-3.74,8,1.39,1.76,3.79,2.67,5.55,4,2.63,2,5,4.38,7.6,6.46,2.15,1.72,4.51,3.2,6.75,4.81,5.51,4,11,9,17,12.2,4.28,2.29,7.2.6,10-2.74,4.51-5.41,8.82-10.88,13-16.53l-2,.52a25.4,25.4,0,0,0,4.68,2.78,1.49,1.49,0,0,0,1.76-.23c5.37-6.22,10.6-12.8,17-18,1.44-1.18-.62-3.23-2-2-6.38,5.24-11.61,11.81-17,18l1.76-.23a25.4,25.4,0,0,1-4.68-2.78,1.48,1.48,0,0,0-2,.52c-3.93,5.28-7.94,10.44-12.18,15.47-2,2.4-3.61,4.24-7,2.67a18.94,18.94,0,0,1-2.7-1.94c-5.65-4.06-11.23-8.24-17-12.18-4-2.72-7.35-6-11.13-9a19.51,19.51,0,0,1-2.2-1.61c-4-4.17-.24-6.34,3.7-5.52a13.47,13.47,0,0,1,9,5.87c1.27,2,1.88,4.63,3.48,6.31a13,13,0,0,0,4.2,2.36c4,1.78,8.89,2.66,12.56,5.08,1.56,1,3-1.48,1.46-2.5h0Z" transform="translate(-47.12 -512.53)"/></g><g id="_Gruppo_116" data-name="&lt;Gruppo&gt;"><path id="_Tracciato_164" data-name="&lt;Tracciato&gt;" class="cls-3" d="M402.78,667.54c5.58-13.84,2.83-28.63,2-43.06-0.67-12.17-1.92-26.08-9.56-36.2-7-9.29-22.06-8.47-31.85-4.54-4.55,1.83-8,4.21-9.94,8.73-2.26,5.19-3.71,9.63-7.11,14.24s-6.85,9-9.9,13.71c-2.89,4.51-8.26,11-6.85,16.66,0.67,2.72,4.87,1.57,4.19-1.16-0.78-3.15,3.49-8.57,5-11.12q1.87-3.07,3.94-6c3.31-4.7,7.37-9.06,10.31-14,2.39-4,2.77-9.21,5.52-12.95,4-5.46,14.06-6.46,20.21-6.32,8.64,0.19,13.23,4.17,16.38,11.85a69.58,69.58,0,0,1,5,22.64c0.95,15.23,4.23,31.78-1.64,46.36-1,2.6,3.16,3.72,4.19,1.16h0Z" transform="translate(-47.12 -512.53)"/></g><path id="_Tracciato_165" data-name="&lt;Tracciato&gt;" class="cls-17" d="M415,599c-6.33.25-13.66,6.14-17.64,11.08s-6.32,11-8.16,17a127.2,127.2,0,0,0-5.43,37c0,4.26.35,8.84,3,12.18s7.29,1.52,11.63,1.54a17.15,17.15,0,0,0,10.27-3c4-2.93,6-4.49,7.72-9.1,4.09-10.67,8.08-21.55,14.62-30.93,2.75-3.94,9.22-14.18,11.47-18.43,2.11-4,1.09-6.67-1-10.67C436.42,596.39,421.85,597.78,415,599Z" transform="translate(-47.12 -512.53)"/><g id="_Gruppo_117" data-name="&lt;Gruppo&gt;"><path id="_Tracciato_166" data-name="&lt;Tracciato&gt;" class="cls-3" d="M357.45,627.51c1.49,7.34.33,15.25,0,22.65-0.15,2.89-.17,5.79-0.2,8.69,0,2-.7,5.6.22,7.46,1.06,2.15,5,5.35,7.18,6.52,5.51,3,13.2,2,19.12,1.6,2.78-.19,2.8-4.54,0-4.35-5.1.35-12.42,1.57-17.15-1.14-2.3-1.31-4-3.74-6.07-5.35l1.08,1.88c-0.79-12.9,2.64-26.39.05-39.12-0.56-2.74-4.75-1.58-4.19,1.16h0Z" transform="translate(-47.12 -512.53)"/></g><g id="_Gruppo_118" data-name="&lt;Gruppo&gt;"><path id="_Tracciato_167" data-name="&lt;Tracciato&gt;" class="cls-3" d="M415,596.12c-18.12,1.76-26.56,21.3-30.33,36.59a127.56,127.56,0,0,0-3.8,31.47c0.06,6.47,1.25,15.84,9.13,17,3.56,0.52,7.94-.14,11.5-0.59a21.16,21.16,0,0,0,10.77-4.82c6.34-5,8-12.38,10.94-19.61a142.07,142.07,0,0,1,13.07-24c3.44-5.29,8.9-11.74,10.05-18.09,1.3-7.18-4.63-14.48-11-17-6.65-2.64-14.26-2-21.16-.83-3.67.64-2.11,6.23,1.54,5.59,5.87-1,12.89-1.66,18.43,1,4.34,2.09,7.56,7.36,5.75,12.15-1,2.66-3,5.23-4.49,7.64-3.74,6.06-8,11.83-11.44,18.08-4.1,7.55-6.9,15.61-10.14,23.53a16.74,16.74,0,0,1-6.69,8.17c-4.05,2.66-8.49,2.61-13.15,3-6.88.54-7.31-5.77-7.37-11.17a117.57,117.57,0,0,1,.86-15c1.2-10.17,3.39-21,7.82-30.31,3.54-7.42,10.86-16.1,19.65-17C418.64,601.57,418.68,595.76,415,596.12Z" transform="translate(-47.12 -512.53)"/></g><g id="_Gruppo_119" data-name="&lt;Gruppo&gt;"><path id="_Tracciato_168" data-name="&lt;Tracciato&gt;" class="cls-3" d="M391.95,679.59q0,4.88,0,9.76c0,1.6,0,3.21,0,4.81,0,1-.9,4.75-0.79,5.11-1.11-3.55-6.71-2-5.59,1.54,1.9,6.06,9.32,5.06,11.44-.32,1.19-3,.74-6.67.74-9.84q0-5.52,0-11c0-3.73-5.8-3.74-5.8,0h0Z" transform="translate(-47.12 -512.53)"/></g><g id="_Gruppo_120" data-name="&lt;Gruppo&gt;"><path id="_Tracciato_169" data-name="&lt;Tracciato&gt;" class="cls-3" d="M402.35,676.74q0,4.88,0,9.76c0,1.6,0,3.21,0,4.81,0,1-.9,4.75-0.79,5.11-1.11-3.55-6.71-2-5.59,1.54,1.9,6.06,9.32,5.06,11.44-.32,1.19-3,.74-6.67.74-9.84q0-5.52,0-11c0-3.73-5.8-3.74-5.8,0h0Z" transform="translate(-47.12 -512.53)"/></g><g id="_Gruppo_121" data-name="&lt;Gruppo&gt;"><path id="_Tracciato_170" data-name="&lt;Tracciato&gt;" class="cls-2" d="M364.15,704.24c0.08,6.49.15,26.14,0.23,32.63,0,0.94.44,5.3,4.06,5.3,4.22,0,4-1.76,4.54-3.16a14.27,14.27,0,0,0,.56-4.41c0.14-6.64.28-26.43,0.42-33.07" transform="translate(-47.12 -512.53)"/><g id="_Gruppo_122" data-name="&lt;Gruppo&gt;"><path id="_Tracciato_171" data-name="&lt;Tracciato&gt;" class="cls-3" d="M361.66,704.24c0.1,8.76.11,17.51,0.17,26.27,0,5.53-.64,14.48,7.38,14.1,8.22-.39,6.83-10.6,6.9-16.48,0.11-8.87.14-17.74,0.32-26.6,0.06-3.2-4.92-3.2-5,0-0.12,6.17-.16,12.34-0.23,18.51q-0.05,5.13-.12,10.26c0,1.2,0,2.39-.06,3.59,0,2.22.43,5-2.16,5.1-2.81.07-2.05-3.64-2.07-5.85q0-5-.06-10c0-6.31-.06-12.61-0.13-18.92,0-3.2-5-3.21-5,0h0Z" transform="translate(-47.12 -512.53)"/></g></g><g id="_Gruppo_123" data-name="&lt;Gruppo&gt;"><path id="_Tracciato_172" data-name="&lt;Tracciato&gt;" class="cls-3" d="M362.13,737.34a111.89,111.89,0,0,0-29.72,13.46c-2.66,1.76-.17,6.08,2.51,4.3a107.18,107.18,0,0,1,28.53-13c3.06-.92,1.76-5.72-1.32-4.8h0Z" transform="translate(-47.12 -512.53)"/></g><g id="_Gruppo_124" data-name="&lt;Gruppo&gt;"><path id="_Tracciato_173" data-name="&lt;Tracciato&gt;" class="cls-3" d="M362.7,742.11c-9.47,8.79-19.08,17.6-27,27.84-2,2.53,2.37,5,4.3,2.51,7.63-9.88,17.09-18.36,26.22-26.83,2.35-2.18-1.17-5.7-3.52-3.52h0Z" transform="translate(-47.12 -512.53)"/></g><g id="_Gruppo_125" data-name="&lt;Gruppo&gt;"><path id="_Tracciato_174" data-name="&lt;Tracciato&gt;" class="cls-3" d="M369.78,745.33a302.25,302.25,0,0,1,28,25.61c2.24,2.3,5.76-1.22,3.52-3.52a302.25,302.25,0,0,0-28-25.61c-2.48-2-6,1.52-3.52,3.52h0Z" transform="translate(-47.12 -512.53)"/></g><g id="_Gruppo_126" data-name="&lt;Gruppo&gt;"><path id="_Tracciato_175" data-name="&lt;Tracciato&gt;" class="cls-3" d="M372.76,741.08c12.58,4.66,24.53,10.56,36.58,16.42,2.87,1.39,5.4-2.9,2.51-4.3-12.44-6-24.79-12.1-37.77-16.92-3-1.12-4.31,3.69-1.32,4.8h0Z" transform="translate(-47.12 -512.53)"/></g><g id="_Gruppo_127" data-name="&lt;Gruppo&gt;"><path id="_Tracciato_176" data-name="&lt;Tracciato&gt;" class="cls-3" d="M399.54,630c2.79-8.51,6.89-16.77,14.72-21.66a43,43,0,0,1,11.13-4.44c5.7-1.63,9.94-.64,14.45,3.4,2.08,1.86,5.16-1.2,3.07-3.07-4.18-3.74-8.74-6.16-14.47-5.45a44.73,44.73,0,0,0-14.13,4.55c-10.16,5.18-15.54,15.08-19,25.52-0.88,2.66,3.32,3.81,4.19,1.16h0Z" transform="translate(-47.12 -512.53)"/></g><g id="_Gruppo_128" data-name="&lt;Gruppo&gt;"><path id="_Tracciato_177" data-name="&lt;Tracciato&gt;" class="cls-3" d="M334.46,687.13c17.58,13.46,40.51,6.44,59.34-.54,1.73-.64,1-3.45-0.77-2.8-18.09,6.71-40.19,13.77-57.1.83-1.48-1.13-2.93,1.38-1.46,2.5h0Z" transform="translate(-47.12 -512.53)"/></g><g id="_Gruppo_129" data-name="&lt;Gruppo&gt;"><path id="_Tracciato_178" data-name="&lt;Tracciato&gt;" class="cls-3" d="M362.67,733.13a7,7,0,0,0-6.4,8.37c0.94,4.4,5.33,7,9.5,7.56a14.16,14.16,0,0,0,12.33-4.41c3-3.39,3.13-8.76-1.24-11-3.3-1.72-6.24,3.28-2.93,5,2.13,1.11-2.05,3.74-2.72,4a8.62,8.62,0,0,1-3.62.76,7.73,7.73,0,0,1-3.52-.82c-0.53-.28-3.83-3.45-1.4-3.67,3.68-.34,3.72-6.14,0-5.8h0Z" transform="translate(-47.12 -512.53)"/></g><g id="_Gruppo_130" data-name="&lt;Gruppo&gt;"><path id="_Tracciato_179" data-name="&lt;Tracciato&gt;" class="cls-3" d="M340.47,617.29c3.79,5.63,8.54,10.67,14.73,13.64,1.67,0.8,3.15-1.7,1.46-2.5-5.75-2.76-10.17-7.36-13.69-12.6-1-1.54-3.55-.09-2.5,1.46h0Z" transform="translate(-47.12 -512.53)"/></g><g id="_Gruppo_131" data-name="&lt;Gruppo&gt;"><path id="_Tracciato_180" data-name="&lt;Tracciato&gt;" class="cls-3" d="M344.79,614.81a37.78,37.78,0,0,0,14,11.55c1.68,0.8,3.15-1.7,1.46-2.5a34.84,34.84,0,0,1-13-10.51c-1.11-1.47-3.63,0-2.5,1.46h0Z" transform="translate(-47.12 -512.53)"/></g><g id="_Gruppo_132" data-name="&lt;Gruppo&gt;"><path id="_Tracciato_181" data-name="&lt;Tracciato&gt;" class="cls-27" d="M396,559.3c-1.59,1.36-10.5,1.5-12.36.54-9.39-4.82-8.8-8-15.31-13.59-8.86-7.63-30.48-14.8-26.63-24.73,0,0,10.76-17.7,31.63,4a12.41,12.41,0,0,1,11.29-3.32C391.57,523.49,417.78,540.65,396,559.3Z" transform="translate(-47.12 -512.53)"/><g id="_Gruppo_133" data-name="&lt;Gruppo&gt;"><path id="_Tracciato_182" data-name="&lt;Tracciato&gt;" class="cls-3" d="M394.92,557.42c-3.57,2.18-9.87.92-13.1-1.1-4.12-2.58-6.54-6.37-9.91-9.73-6.87-6.87-16.37-10-23.85-16.09-4.86-3.94-6.12-7.9-.87-11.48,8.74-6,18.55,1.88,24.62,8a2.2,2.2,0,0,0,3.07,0c6.11-6.54,15.22-.84,20.32,3.83,3.12,2.86,6,6.49,6.85,10.74,1.32,6.62-2.93,12-7.58,16.16-2.09,1.87,1,4.94,3.07,3.07,5.3-4.74,9.73-10.88,9-18.33-0.56-5.79-4.09-10.87-8.28-14.72-6.89-6.32-18.57-12.29-26.47-3.83h3.07c-6.31-6.37-15.07-13.29-24.68-11-3.83.92-8.32,3.68-10.26,7.28-3.49,6.5,3.53,12.44,8.23,15.69,8.53,5.91,17.41,9.74,24.25,17.8,3.11,3.67,7.4,7.61,12.25,8.58,3.59,0.72,9.19.82,12.43-1.16C399.5,559.72,397.31,556,394.92,557.42Z" transform="translate(-47.12 -512.53)"/></g></g><g id="_Gruppo_134" data-name="&lt;Gruppo&gt;"><g id="_Gruppo_135" data-name="&lt;Gruppo&gt;"><path id="_Tracciato_183" data-name="&lt;Tracciato&gt;" class="cls-15" d="M245.45,644.4c4.07,0.18,7.43.63,11.49,0.31,1-.07,2.21-0.48,2.15-1.44A1.53,1.53,0,0,0,257.9,642c-4.05-.9-7.91-0.49-11.2-0.5" transform="translate(-47.12 -512.53)"/><g id="_Gruppo_136" data-name="&lt;Gruppo&gt;"><path id="_Tracciato_184" data-name="&lt;Tracciato&gt;" class="cls-3" d="M245.45,645.93a101,101,0,0,0,10.49.38c1.8-.1,4.33-0.41,4.63-2.63,0.73-5.36-11-3.75-13.86-3.74a1.53,1.53,0,0,0,0,3.07c1.77,0,3.54-.09,5.32-0.08,0.8,0,1.6,0,2.4.09a19,19,0,0,1,2.07.24q1.26-.19,0-0.06c-3.71,0-7.37-.14-11.08-0.33-2-.1-2,3,0,3.07h0Z" transform="translate(-47.12 -512.53)"/></g></g><g id="_Gruppo_137" data-name="&lt;Gruppo&gt;"><path id="_Tracciato_185" data-name="&lt;Tracciato&gt;" class="cls-2" d="M236.77,624.27c0.84,8.05,1.38,11.72,1.75,16.91,0,0.58,1.42,4.23,8.8,4,6.14-.2,6-2.29,6.53-5.11L255,624" transform="translate(-47.12 -512.53)"/><g id="_Gruppo_138" data-name="&lt;Gruppo&gt;"><path id="_Tracciato_186" data-name="&lt;Tracciato&gt;" class="cls-3" d="M235.75,624.27c0.44,4.16,1,8.32,1.37,12.49,0.19,1.91-.07,4.21.93,5.92,2.37,4.07,10.25,4.54,14,2.62,3-1.55,2.87-5.31,3.08-8.25L256,624c0.09-1.31-2-1.31-2,0-0.38,5.49-.13,11.43-1.27,16.81-1,4.7-11.44,4.87-13.14.27-0.68-1.84-.41-4.76-0.63-6.76-0.36-3.35-.75-6.69-1.11-10-0.14-1.3-2.18-1.31-2,0h0Z" transform="translate(-47.12 -512.53)"/></g></g><g id="_Gruppo_139" data-name="&lt;Gruppo&gt;"><path id="_Tracciato_187" data-name="&lt;Tracciato&gt;" class="cls-2" d="M243.37,620.66a13.4,13.4,0,0,0-4.88,1.23c-1.39.79-2.22,2.31-1.39,3.46,0.42,0.59,1.8,1,2.58,1.3a16.75,16.75,0,0,0,13-.19,4.28,4.28,0,0,0,2-1.48c1.25-2.13-2-3.62-4.2-4A22.24,22.24,0,0,0,243.37,620.66Z" transform="translate(-47.12 -512.53)"/><g id="_Gruppo_140" data-name="&lt;Gruppo&gt;"><path id="_Tracciato_188" data-name="&lt;Tracciato&gt;" class="cls-3" d="M243.37,619.64c-2.63.34-8.61,1.37-7.51,5.38,1,3.83,9.33,4.09,12.29,3.73,2.46-.31,9-1.7,7.66-5.6-1.41-4.1-9.2-3.83-12.44-3.51-1.3.13-1.31,2.17,0,2a20.92,20.92,0,0,1,7.62.45c1.35,0.38,2,.41,2,2,0,1.87-1.94,2-3.49,2.34a16.18,16.18,0,0,1-8.41-.34c-1.14-.34-4-1.07-2.1-3.31,0.68-.82,3.54-1,4.36-1.09C244.65,621.52,244.67,619.47,243.37,619.64Z" transform="translate(-47.12 -512.53)"/></g></g><g id="_Gruppo_141" data-name="&lt;Gruppo&gt;"><path id="_Tracciato_189" data-name="&lt;Tracciato&gt;" class="cls-2" d="M250.48,623.3a22.24,22.24,0,0,0-7.12-.32,13.4,13.4,0,0,0-4.88,1.23" transform="translate(-47.12 -512.53)"/><g id="_Gruppo_142" data-name="&lt;Gruppo&gt;"><path id="_Tracciato_190" data-name="&lt;Tracciato&gt;" class="cls-3" d="M250.62,622.81c-4-.66-8.62-0.89-12.39,1-0.59.29-.07,1.17,0.52,0.88,3.51-1.73,7.86-1.48,11.6-.86,0.64,0.11.92-.88,0.27-1h0Z" transform="translate(-47.12 -512.53)"/></g></g><g id="_Gruppo_143" data-name="&lt;Gruppo&gt;"><path id="_Tracciato_191" data-name="&lt;Tracciato&gt;" class="cls-3" d="M237.15,627.31c-3.68-.06-9.61,1.24-9.09,6.11s6.2,5,9.9,4.09a1,1,0,0,0-.54-2c-2.36.59-7.63,1.19-7.32-2.79,0.24-3.08,4.78-3.43,7.06-3.39a1,1,0,0,0,0-2h0Z" transform="translate(-47.12 -512.53)"/></g></g><g id="_Gruppo_144" data-name="&lt;Gruppo&gt;"><path id="_Tracciato_192" data-name="&lt;Tracciato&gt;" class="cls-3" d="M371.81,524c-3,3.75-5.68,7.71-5.79,12.63-0.15,6.45,2.44,12.31,6.55,17.16,1.81,2.14,4.87-1,3.07-3.07a20.85,20.85,0,0,1-5.28-14.09c0.13-3.6,2.3-6.79,4.52-9.56,1.73-2.16-1.32-5.26-3.07-3.07h0Z" transform="translate(-47.12 -512.53)"/></g><g id="_Gruppo_145" data-name="&lt;Gruppo&gt;"><path id="_Tracciato_193" data-name="&lt;Tracciato&gt;" class="cls-4" d="M409.09,797.07c8.69-.53,18.64-3.41,22.88-11.79,2-4,1.41-7.95-1-11.56-2-3.05-6.2-6.06-2.27-9.48,2.51-2.19,8.51-1.47,11.87-1.75a185.63,185.63,0,0,0,19.78-2.54c3.46-.67,7.41-2.24,6.57-6.6-0.92-4.77-7-7-7.53-11.92Q458,738.62,461,739l3.31-.49c1.86-.22,3.73-0.33,5.6-0.38,3.75-.11,7.5.08,11.24,0.33,1.86,0.12,1.85-2.77,0-2.9-4.52-.3-27.23-3-26.34,5.64,0.18,1.71,1.7,3.14,2.73,4.39s2.15,2.57,3.22,3.86c1.7,2,2.3,2,1.44,5-0.92,3.14-1.75,2.62-4.56,3.08q-3.67.6-7.36,1.08-5.34.69-10.7,1.11c-3.94.31-9.77-.6-13,2.15a7.14,7.14,0,0,0-1.8,8.45c0.86,1.87,2.61,3.21,3.73,4.91,3,4.6,1.54,9.32-2.27,12.93-4.52,4.28-11.1,5.69-17.11,6.06-1.85.11-1.87,3,0,2.9h0Z" transform="translate(-47.12 -512.53)"/></g><g id="_Gruppo_146" data-name="&lt;Gruppo&gt;"><path id="_Tracciato_194" data-name="&lt;Tracciato&gt;" class="cls-3" d="M397,536.48c7.46,0,7.47-11.6,0-11.6s-7.47,11.6,0,11.6h0Z" transform="translate(-47.12 -512.53)"/></g><g id="_Gruppo_147" data-name="&lt;Gruppo&gt;"><line id="_Tracciato_195" data-name="&lt;Tracciato&gt;" class="cls-2" x1="303.52" y1="53.82" x2="304.63" y2="50.61"/><g id="_Gruppo_148" data-name="&lt;Gruppo&gt;"><path id="_Tracciato_196" data-name="&lt;Tracciato&gt;" class="cls-3" d="M351.34,566.54l1.11-3.21c0.3-.88-1.1-1.26-1.4-0.39l-1.11,3.21c-0.3.88,1.1,1.26,1.4,0.39h0Z" transform="translate(-47.12 -512.53)"/></g></g><g id="_Gruppo_149" data-name="&lt;Gruppo&gt;"><path id="_Tracciato_197" data-name="&lt;Tracciato&gt;" class="cls-3" d="M247.38,623.16c-1.2-1.39-2.92-2.7-3.14-4.58s1-2.74,2-4.31c1.21-1.81,2.21-3.88,1.59-6.12-0.9-3.24-4.13-5-1.92-8.66,1.19-2,2.06-3,2.24-5.48,0.14-1.86-2.76-1.85-2.9,0-0.28,3.8-4.74,4.67-4.36,8.45,0.41,4.1,5.32,4.35,3.29,9.72-0.86,2.28-3.71,3.8-3.44,6.57,0.25,2.53,3,4.69,4.53,6.46,1.22,1.41,3.27-.64,2-2h0Z" transform="translate(-47.12 -512.53)"/></g><g id="_Gruppo_150" data-name="&lt;Gruppo&gt;"><path id="_Tracciato_198" data-name="&lt;Tracciato&gt;" class="cls-3" d="M290.59,718.61c-11.46-1.23-23.51-1.78-35-.1-8,1.16-12,6.85-7.52,14.19,1.79,2.93,1.08,3-2.23,3.55s-6.55,1-9.83,1.51c-4.34.67-10.09,0.59-13.84,3.21a7.11,7.11,0,0,0-2.68,8.32c1.33,4,5.14,5.88,8.72,7.4,2.55,1.08,4.77-2.67,2.19-3.75-1.44-.61-5.08-1.74-5.74-3.29l1.91-5.92a23.66,23.66,0,0,1,2.74-.56c4.56-.83,9.18-1.41,13.76-2.12,3.6-.55,11.65-0.56,11.08-6.17-0.37-3.69-6.79-7.53-1.81-10.9,3.13-2.12,8.36-1.65,12-1.84a165.53,165.53,0,0,1,26.18.82c2.78,0.3,2.76-4.05,0-4.35h0Z" transform="translate(-47.12 -512.53)"/></g><g id="_Gruppo_151" data-name="&lt;Gruppo&gt;"><path id="_Tracciato_199" data-name="&lt;Tracciato&gt;" class="cls-3" d="M112.12,744c5.43-1,15.57-2.43,17.26,5.13,0.84,3.76-3.24,6.21-1.09,10.11,1.56,2.82,4.74,3.8,7.75,3.92,6.44,0.27,11.36,0,16.5,4.74,2.06,1.89,5.15-1.18,3.07-3.07a22.3,22.3,0,0,0-12.92-6c-3-.31-10.66,1.6-10.46-3.25,0.08-1.83,1.79-3.56,1.64-5.76-0.79-11.67-14.59-11.43-22.91-10-2.75.49-1.59,4.68,1.16,4.19h0Z" transform="translate(-47.12 -512.53)"/></g><g id="_Gruppo_152" data-name="&lt;Gruppo&gt;"><path id="_Tracciato_200" data-name="&lt;Tracciato&gt;" class="cls-8" d="M88.9,745.16c-7.78,1.23-11.47-1.61-11.56-4.14s2.34-5,5.59-6.41a23.93,23.93,0,0,1,10.83-1.48c9.52,0.7,17.57,5.86,19.19,12.3a9.44,9.44,0,0,1-1.86,8.42,14.82,14.82,0,0,1-10.15,4.92c-4.19.3-8.48-1.35-9.64-4" transform="translate(-47.12 -512.53)"/><path id="_Tracciato_201" data-name="&lt;Tracciato&gt;" class="cls-8" d="M87.58,739.7c3.47,1.84,2.69,5.9-.36,8.35-3.27,2.63-16.7,4.71-16.52,8.46,0.12,2.39,4.8,2.81,7.57,2.42,6-.84,9.13-4.12,13.87-6.4,2.83-1.35,6.84-2,9.33-.61" transform="translate(-47.12 -512.53)"/></g><g id="_Gruppo_153" data-name="&lt;Gruppo&gt;"><path id="_Tracciato_202" data-name="&lt;Tracciato&gt;" class="cls-3" d="M493.35,729.32c-11.82-2.75-25-3.27-36.85-.61-3.19.71-7.1,1.74-9.16,4.51-4,5.37,2.19,9.07,1.4,14.12-1.42,9.1-15.35,7.72-21.54,7-4.63-.51-13-2.46-15.16,3.46-2.36,6.49,7.32,11.37,4.39,16.85-3.68,6.87-16.6,2.84-22.82,4.16-2.74.58-1.58,4.78,1.16,4.19,6.81-1.45,14.06,1.52,20.55-1.75,3.8-1.92,6.79-5.52,6.13-10-0.48-3.22-3-5.13-4.35-7.86-3.67-7.18,7.81-5,11-4.61,6.34,0.67,12.75,1,18.45-2.34,3.6-2.11,7.28-6.18,6.79-10.67-0.54-4.91-6.23-9.44.93-12,11.44-4.09,26.32-3,37.91-.31,2.72,0.63,3.89-3.56,1.16-4.19h0Z" transform="translate(-47.12 -512.53)"/></g><g id="_Gruppo_154" data-name="&lt;Gruppo&gt;"><path id="_Tracciato_203" data-name="&lt;Tracciato&gt;" class="cls-9" d="M467.93,737.9c-15.31-.73-31.67,1.25-41.79,12q-0.82.87-1.57,1.81c-9.5,11.92,10.79,16.15,17.18,17.59,14.76,3.31,29.33,2.24,44.15-.38,6.52-1.15,17.09-3.73,20.8-10.55,7.08-13-10.43-17-18.46-18.23A198,198,0,0,0,467.93,737.9Z" transform="translate(-47.12 -512.53)"/><g id="_Gruppo_155" data-name="&lt;Gruppo&gt;"><path id="_Tracciato_204" data-name="&lt;Tracciato&gt;" class="cls-3" d="M466.39,739.38c-14.53-.54-32.73.58-43,12.49-7.55,8.76,2.55,14.19,10.34,16.36,16.62,4.62,34.1,4,51,1.16,6.13-1,13.17-2.55,17.95-6.84,3.31-3,5.63-7.95,3.48-12.23-2.38-4.74-8.66-6.65-13.43-7.79-8.53-2-17.6-2.71-26.33-3.15-2-.1-2,3,0,3.11a148.86,148.86,0,0,1,24.52,2.81c4.39,1,12.8,2.87,13,8.57,0.27,7.91-11.31,10.8-17.13,12a133.38,133.38,0,0,1-28.24,2.69,97.31,97.31,0,0,1-22.18-2.86c-3.59-.89-11.53-2.47-12.61-6.86-0.86-3.5,4-7.14,6.39-8.86a35.78,35.78,0,0,1,10.18-4.91c8.4-2.64,17.35-2.9,26.08-2.58C468.39,742.57,468.39,739.46,466.39,739.38Z" transform="translate(-47.12 -512.53)"/></g><path id="_Tracciato_205" data-name="&lt;Tracciato&gt;" class="cls-10" d="M451.08,758.81c-2.53-.14-5.23.24-6.9,2.33l-0.26.35c-1.57,2.32,1.78,3.14,2.83,3.42a15.56,15.56,0,0,0,7.29-.07c1.08-.22,2.82-0.73,3.43-2.05,1.17-2.53-1.72-3.31-3-3.54A27.94,27.94,0,0,0,451.08,758.81Z" transform="translate(-47.12 -512.53)"/><path id="_Tracciato_206" data-name="&lt;Tracciato&gt;" class="cls-10" d="M464.11,743.75c-1.87-.11-3.87.19-5.1,1.85l-0.19.28c-1.16,1.84,1.32,2.49,2.1,2.71a10.74,10.74,0,0,0,5.39-.06,3.46,3.46,0,0,0,2.54-1.63c0.86-2-1.27-2.62-2.25-2.81A19.33,19.33,0,0,0,464.11,743.75Z" transform="translate(-47.12 -512.53)"/><path id="_Tracciato_207" data-name="&lt;Tracciato&gt;" class="cls-10" d="M468.88,757.6c-1.7-.1-3.52.17-4.65,1.59l-0.17.24c-1.06,1.58,1.2,2.15,1.91,2.34a10.33,10.33,0,0,0,4.91-.05,3.18,3.18,0,0,0,2.31-1.4c0.79-1.73-1.16-2.26-2.05-2.42A18.56,18.56,0,0,0,468.88,757.6Z" transform="translate(-47.12 -512.53)"/><path id="_Tracciato_208" data-name="&lt;Tracciato&gt;" class="cls-10" d="M436.66,754.58a5,5,0,0,0-4.38,1.49l-0.16.22c-1,1.48,1.13,2,1.8,2.19a9.83,9.83,0,0,0,4.63,0,3,3,0,0,0,2.18-1.31c0.74-1.62-1.09-2.11-1.94-2.27A17.66,17.66,0,0,0,436.66,754.58Z" transform="translate(-47.12 -512.53)"/><path id="_Tracciato_209" data-name="&lt;Tracciato&gt;" class="cls-10" d="M496.55,751.64a5,5,0,0,0-4.38,1.49l-0.16.22c-1,1.48,1.13,2,1.8,2.19a9.83,9.83,0,0,0,4.63,0,3,3,0,0,0,2.18-1.31c0.74-1.62-1.09-2.11-1.94-2.27A17.66,17.66,0,0,0,496.55,751.64Z" transform="translate(-47.12 -512.53)"/><path id="_Tracciato_210" data-name="&lt;Tracciato&gt;" class="cls-10" d="M449.55,748.35a4.45,4.45,0,0,0-4.33,1.77l-0.16.27c-1,1.76,1.12,2.38,1.78,2.59a8.12,8.12,0,0,0,4.57-.06,2.92,2.92,0,0,0,2.15-1.56c0.73-1.92-1.08-2.51-1.91-2.69A14.67,14.67,0,0,0,449.55,748.35Z" transform="translate(-47.12 -512.53)"/><path id="_Tracciato_211" data-name="&lt;Tracciato&gt;" class="cls-10" d="M477.32,750.49c-2.35-.11-4.86.18-6.41,1.77l-0.24.27c-1.46,1.76,1.65,2.38,2.63,2.59a17.62,17.62,0,0,0,6.77-.06c1-.17,2.62-0.55,3.19-1.56,1.09-1.92-1.6-2.51-2.83-2.69C479.51,750.69,478.43,750.54,477.32,750.49Z" transform="translate(-47.12 -512.53)"/><path id="_Tracciato_212" data-name="&lt;Tracciato&gt;" class="cls-10" d="M460.28,753.72a2.17,2.17,0,0,0-2.3,1.19l-0.09.18a1.25,1.25,0,0,0,.95,1.74,3.47,3.47,0,0,0,2.43,0,1.62,1.62,0,0,0,1.15-1,1.31,1.31,0,0,0-1-1.81A6.32,6.32,0,0,0,460.28,753.72Z" transform="translate(-47.12 -512.53)"/><path id="_Tracciato_213" data-name="&lt;Tracciato&gt;" class="cls-10" d="M486.37,747.26a3.51,3.51,0,0,0-3.23,1.19l-0.12.18c-0.73,1.18.83,1.6,1.33,1.74a6.73,6.73,0,0,0,3.42,0,2.19,2.19,0,0,0,1.61-1c0.55-1.29-.81-1.68-1.43-1.81A12.11,12.11,0,0,0,486.37,747.26Z" transform="translate(-47.12 -512.53)"/><path id="_Tracciato_214" data-name="&lt;Tracciato&gt;" class="cls-10" d="M485.07,758.16a4.12,4.12,0,0,0-3.58,1.19l-0.13.18c-0.81,1.18.93,1.6,1.47,1.74a8.23,8.23,0,0,0,3.79,0,2.46,2.46,0,0,0,1.78-1c0.61-1.29-.89-1.68-1.58-1.81A14.78,14.78,0,0,0,485.07,758.16Z" transform="translate(-47.12 -512.53)"/><g id="_Gruppo_156" data-name="&lt;Gruppo&gt;"><path id="_Tracciato_215" data-name="&lt;Tracciato&gt;" class="cls-3" d="M420.57,758.7c0.06,7.55,7.11,11.5,13.45,13.73,10.48,3.7,22.25,4.12,33.23,3.45,13.49-.83,40.88-2.9,40.2-22.18-0.07-2-3.18-2-3.11,0,0.6,17-25.6,18.37-37.09,19.07-9.54.58-19.4,0.26-28.68-2.2-5.86-1.55-14.83-4.59-14.89-11.87a1.56,1.56,0,0,0-3.11,0h0Z" transform="translate(-47.12 -512.53)"/></g></g><g id="_Gruppo_157" data-name="&lt;Gruppo&gt;"><g id="_Gruppo_158" data-name="&lt;Gruppo&gt;"><path id="_Tracciato_216" data-name="&lt;Tracciato&gt;" class="cls-3" d="M92.19,743.71c-2.53.32-6.08,0.82-8.36-.67-4.13-2.7,1.32-6.62,4.21-7.57,5.51-1.81,12-1.13,17.27,1.08,4.63,1.93,10.18,6,9.77,11.73-0.57,7.84-14.74,13.21-19.23,5.71a1.45,1.45,0,0,0-2.5,1.46c4.61,7.7,17.42,5.36,22.29-.87,6.21-8-.83-16.92-8.35-20.35s-21.28-4.93-26.76,2.9c-5.6,8,6.38,10.13,11.67,9.47,1.83-.23,1.85-3.13,0-2.9h0Z" transform="translate(-47.12 -512.53)"/></g><g id="_Gruppo_159" data-name="&lt;Gruppo&gt;"><path id="_Tracciato_217" data-name="&lt;Tracciato&gt;" class="cls-3" d="M90.14,740.95c4.59,3.15-.89,6.33-2.82,7.16-1,.41-2,0.73-3,1.07-2.24.77-4.52,1.45-6.69,2.39-2.39,1-6.33,3-4.75,6.3,1.74,3.63,8.32,2.78,11.31,2,6.57-1.79,13-9.53,20.15-6.53,1.72,0.72,2.47-2.08.77-2.8-5.45-2.28-10.59.73-15.21,3.47-3.29,2-6.76,3.74-10.71,3.61A3.29,3.29,0,0,1,75.7,756a7,7,0,0,1,1.64-1.12c1.05-.85,2.73-1.18,4-1.65,3.83-1.39,8.8-2.17,11.49-5.53s2.17-6.94-1.24-9.28c-1.54-1.06-3,1.45-1.46,2.5h0Z" transform="translate(-47.12 -512.53)"/></g></g><g id="_Gruppo_160" data-name="&lt;Gruppo&gt;"><path id="_Tracciato_218" data-name="&lt;Tracciato&gt;" class="cls-28" d="M195.56,791.58a15.81,15.81,0,0,0,6.09,8.63,2.92,2.92,0,0,0,4-1,3,3,0,0,0-1-4,9.47,9.47,0,0,1-3.42-5.17c-1-3.59-6.59-2.07-5.59,1.54h0Z" transform="translate(-47.12 -512.53)"/></g><g id="_Gruppo_161" data-name="&lt;Gruppo&gt;"><path id="_Tracciato_219" data-name="&lt;Tracciato&gt;" class="cls-28" d="M287.47,777a8.67,8.67,0,0,1,3.5-4c3.19-1.92.28-6.94-2.93-5a14.81,14.81,0,0,0-6.17,7.42,2.92,2.92,0,0,0,2,3.57,3,3,0,0,0,3.57-2h0Z" transform="translate(-47.12 -512.53)"/></g><g id="_Gruppo_162" data-name="&lt;Gruppo&gt;"><path id="_Tracciato_220" data-name="&lt;Tracciato&gt;" class="cls-28" d="M198.06,780.24a17.7,17.7,0,0,1,5.42,0,3,3,0,0,0,3.57-2c0.38-1.38-.47-3.32-2-3.57a26.64,26.64,0,0,0-8.5,0c-1.55.24-2.41,2.18-2,3.57a3,3,0,0,0,3.57,2h0Z" transform="translate(-47.12 -512.53)"/></g><g id="_Gruppo_163" data-name="&lt;Gruppo&gt;"><path id="_Tracciato_221" data-name="&lt;Tracciato&gt;" class="cls-28" d="M180.93,690.5l4.06-4.06a2.9,2.9,0,0,0-4.1-4.1l-4.06,4.06a2.9,2.9,0,0,0,4.1,4.1h0Z" transform="translate(-47.12 -512.53)"/></g><g id="_Gruppo_164" data-name="&lt;Gruppo&gt;"><path id="_Tracciato_222" data-name="&lt;Tracciato&gt;" class="cls-28" d="M84.63,718.71l4.06,0.59a3,3,0,0,0,3.57-2c0.31-1.37-.42-3.33-2-3.57l-4.06-.59a3,3,0,0,0-3.57,2c-0.31,1.37.42,3.33,2,3.57h0Z" transform="translate(-47.12 -512.53)"/></g><g id="_Gruppo_165" data-name="&lt;Gruppo&gt;"><path id="_Tracciato_223" data-name="&lt;Tracciato&gt;" class="cls-28" d="M390.09,724.4a13.39,13.39,0,0,1,4.53-2.72,3,3,0,0,0,2-3.57,2.93,2.93,0,0,0-3.57-2A20.57,20.57,0,0,0,386,720.3a2.9,2.9,0,1,0,4.1,4.1h0Z" transform="translate(-47.12 -512.53)"/></g><g id="_Gruppo_166" data-name="&lt;Gruppo&gt;"><path id="_Tracciato_224" data-name="&lt;Tracciato&gt;" class="cls-28" d="M318.47,800.06a28,28,0,0,1,11.41,1.63c3.52,1.26,5-4.34,1.54-5.59a32.32,32.32,0,0,0-12.95-1.84c-3.71.23-3.73,6,0,5.8h0Z" transform="translate(-47.12 -512.53)"/></g><g id="_Gruppo_167" data-name="&lt;Gruppo&gt;"><path id="_Tracciato_225" data-name="&lt;Tracciato&gt;" class="cls-28" d="M478.2,715.67a16.53,16.53,0,0,1,4.57-2.67,3,3,0,0,0,2-3.57,2.92,2.92,0,0,0-3.57-2,24.94,24.94,0,0,0-7.12,4.16,2.92,2.92,0,0,0,0,4.1,3,3,0,0,0,4.1,0h0Z" transform="translate(-47.12 -512.53)"/></g><g id="_Gruppo_168" data-name="&lt;Gruppo&gt;"><path id="_Tracciato_226" data-name="&lt;Tracciato&gt;" class="cls-28" d="M490.29,722.26l9.28-1.74c3.66-.69,2.11-6.28-1.54-5.59l-9.28,1.74c-3.66.69-2.11,6.28,1.54,5.59h0Z" transform="translate(-47.12 -512.53)"/></g><g id="_Gruppo_169" data-name="&lt;Gruppo&gt;"><path id="_Tracciato_227" data-name="&lt;Tracciato&gt;" class="cls-28" d="M92,772.2A30.88,30.88,0,0,1,101,771c3.73,0.07,3.73-5.73,0-5.8a36.59,36.59,0,0,0-10.61,1.36c-3.59,1-2.06,6.6,1.54,5.59h0Z" transform="translate(-47.12 -512.53)"/></g><g id="_Gruppo_170" data-name="&lt;Gruppo&gt;"><path id="_Tracciato_228" data-name="&lt;Tracciato&gt;" class="cls-28" d="M443.14,787.83l10.43,1.2c1.57,0.18,2.88-1.46,2.9-2.9a3,3,0,0,0-2.9-2.9L443.14,782c-1.57-.18-2.88,1.46-2.9,2.9a3,3,0,0,0,2.9,2.9h0Z" transform="translate(-47.12 -512.53)"/></g><g id="_Gruppo_171" data-name="&lt;Gruppo&gt;"><path id="_Tracciato_229" data-name="&lt;Tracciato&gt;" class="cls-28" d="M413.24,799.86a15.46,15.46,0,0,0,5.26,5.56,2.92,2.92,0,0,0,4-1,3,3,0,0,0-1-4,9.31,9.31,0,0,1-3.18-3.48,2.93,2.93,0,0,0-4-1,3,3,0,0,0-1,4h0Z" transform="translate(-47.12 -512.53)"/></g><g id="_Gruppo_172" data-name="&lt;Gruppo&gt;"><path id="_Tracciato_230" data-name="&lt;Tracciato&gt;" class="cls-28" d="M153.53,688.28l4.66,2.27a2.9,2.9,0,1,0,2.93-5l-4.66-2.27a2.9,2.9,0,1,0-2.93,5h0Z" transform="translate(-47.12 -512.53)"/></g><g id="_Gruppo_173" data-name="&lt;Gruppo&gt;"><path id="_Tracciato_231" data-name="&lt;Tracciato&gt;" class="cls-28" d="M449.91,800.52l12.17,2.37c3.65,0.71,5.21-4.88,1.54-5.59l-12.17-2.37c-3.65-.71-5.21,4.88-1.54,5.59h0Z" transform="translate(-47.12 -512.53)"/></g><g id="_Gruppo_174" data-name="&lt;Gruppo&gt;"><path id="_Tracciato_232" data-name="&lt;Tracciato&gt;" class="cls-28" d="M266.45,751.64a22.57,22.57,0,0,1,10,.95c3.57,1.12,5.09-4.47,1.54-5.59a29.2,29.2,0,0,0-13.11-.95c-1.56.22-2.39,2.19-2,3.57a3,3,0,0,0,3.57,2h0Z" transform="translate(-47.12 -512.53)"/></g><g id="_Gruppo_175" data-name="&lt;Gruppo&gt;"><path id="_Tracciato_233" data-name="&lt;Tracciato&gt;" class="cls-28" d="M86.16,727.49a63.86,63.86,0,0,1,12-1.68c3.72-.17,3.74-6,0-5.8a72.35,72.35,0,0,0-13.52,1.89c-3.63.86-2.09,6.45,1.54,5.59h0Z" transform="translate(-47.12 -512.53)"/></g><g id="_Gruppo_176" data-name="&lt;Gruppo&gt;"><path id="_Tracciato_234" data-name="&lt;Tracciato&gt;" class="cls-28" d="M139.31,802.39A34.39,34.39,0,0,1,150.72,804c3.57,1.12,5.09-4.47,1.54-5.59a39.49,39.49,0,0,0-13-1.82c-3.72.1-3.74,5.9,0,5.8h0Z" transform="translate(-47.12 -512.53)"/></g><g id="_Gruppo_177" data-name="&lt;Gruppo&gt;"><path id="_Tracciato_235" data-name="&lt;Tracciato&gt;" class="cls-28" d="M511.55,773.4a6.8,6.8,0,0,1,4.91,2.61,2.92,2.92,0,0,0,4.1,0,3,3,0,0,0,0-4.1,12.51,12.51,0,0,0-9-4.31c-3.73-.19-3.72,5.6,0,5.8h0Z" transform="translate(-47.12 -512.53)"/></g></svg>